<?xml version="1.0" encoding="utf-8"?>
<svg xmlns="http://www.w3.org/2000/svg" xmlns:xlink="http://www.w3.org/1999/xlink" width="600" height="400" viewBox="0 0 2400 1600">
<defs>
  <clipPath id="clip2700">
    <rect x="0" y="0" width="2400" height="1600"/>
  </clipPath>
</defs>
<path clip-path="url(#clip2700)" d="
M0 1600 L2400 1600 L2400 0 L0 0  Z
  " fill="#ffffff" fill-rule="evenodd" fill-opacity="1"/>
<defs>
  <clipPath id="clip2701">
    <rect x="480" y="0" width="1681" height="1600"/>
  </clipPath>
</defs>
<path clip-path="url(#clip2700)" d="
M141.865 1487.47 L2352.76 1487.47 L2352.76 47.2441 L141.865 47.2441  Z
  " fill="#ffffff" fill-rule="evenodd" fill-opacity="1"/>
<defs>
  <clipPath id="clip2702">
    <rect x="141" y="47" width="2212" height="1441"/>
  </clipPath>
</defs>
<polyline clip-path="url(#clip2702)" style="stroke:#000000; stroke-width:2; stroke-opacity:0.1; fill:none" points="
  204.437,1487.47 204.437,47.2441 
  "/>
<polyline clip-path="url(#clip2702)" style="stroke:#000000; stroke-width:2; stroke-opacity:0.1; fill:none" points="
  725.874,1487.47 725.874,47.2441 
  "/>
<polyline clip-path="url(#clip2702)" style="stroke:#000000; stroke-width:2; stroke-opacity:0.1; fill:none" points="
  1247.31,1487.47 1247.31,47.2441 
  "/>
<polyline clip-path="url(#clip2702)" style="stroke:#000000; stroke-width:2; stroke-opacity:0.1; fill:none" points="
  1768.75,1487.47 1768.75,47.2441 
  "/>
<polyline clip-path="url(#clip2702)" style="stroke:#000000; stroke-width:2; stroke-opacity:0.1; fill:none" points="
  2290.18,1487.47 2290.18,47.2441 
  "/>
<polyline clip-path="url(#clip2702)" style="stroke:#000000; stroke-width:2; stroke-opacity:0.1; fill:none" points="
  141.865,1357.52 2352.76,1357.52 
  "/>
<polyline clip-path="url(#clip2702)" style="stroke:#000000; stroke-width:2; stroke-opacity:0.1; fill:none" points="
  141.865,1094.9 2352.76,1094.9 
  "/>
<polyline clip-path="url(#clip2702)" style="stroke:#000000; stroke-width:2; stroke-opacity:0.1; fill:none" points="
  141.865,832.286 2352.76,832.286 
  "/>
<polyline clip-path="url(#clip2702)" style="stroke:#000000; stroke-width:2; stroke-opacity:0.1; fill:none" points="
  141.865,569.669 2352.76,569.669 
  "/>
<polyline clip-path="url(#clip2702)" style="stroke:#000000; stroke-width:2; stroke-opacity:0.1; fill:none" points="
  141.865,307.052 2352.76,307.052 
  "/>
<polyline clip-path="url(#clip2700)" style="stroke:#000000; stroke-width:4; stroke-opacity:1; fill:none" points="
  141.865,1487.47 2352.76,1487.47 
  "/>
<polyline clip-path="url(#clip2700)" style="stroke:#000000; stroke-width:4; stroke-opacity:1; fill:none" points="
  141.865,1487.47 141.865,47.2441 
  "/>
<polyline clip-path="url(#clip2700)" style="stroke:#000000; stroke-width:4; stroke-opacity:1; fill:none" points="
  204.437,1487.47 204.437,1470.19 
  "/>
<polyline clip-path="url(#clip2700)" style="stroke:#000000; stroke-width:4; stroke-opacity:1; fill:none" points="
  725.874,1487.47 725.874,1470.19 
  "/>
<polyline clip-path="url(#clip2700)" style="stroke:#000000; stroke-width:4; stroke-opacity:1; fill:none" points="
  1247.31,1487.47 1247.31,1470.19 
  "/>
<polyline clip-path="url(#clip2700)" style="stroke:#000000; stroke-width:4; stroke-opacity:1; fill:none" points="
  1768.75,1487.47 1768.75,1470.19 
  "/>
<polyline clip-path="url(#clip2700)" style="stroke:#000000; stroke-width:4; stroke-opacity:1; fill:none" points="
  2290.18,1487.47 2290.18,1470.19 
  "/>
<polyline clip-path="url(#clip2700)" style="stroke:#000000; stroke-width:4; stroke-opacity:1; fill:none" points="
  141.865,1357.52 168.395,1357.52 
  "/>
<polyline clip-path="url(#clip2700)" style="stroke:#000000; stroke-width:4; stroke-opacity:1; fill:none" points="
  141.865,1094.9 168.395,1094.9 
  "/>
<polyline clip-path="url(#clip2700)" style="stroke:#000000; stroke-width:4; stroke-opacity:1; fill:none" points="
  141.865,832.286 168.395,832.286 
  "/>
<polyline clip-path="url(#clip2700)" style="stroke:#000000; stroke-width:4; stroke-opacity:1; fill:none" points="
  141.865,569.669 168.395,569.669 
  "/>
<polyline clip-path="url(#clip2700)" style="stroke:#000000; stroke-width:4; stroke-opacity:1; fill:none" points="
  141.865,307.052 168.395,307.052 
  "/>
<g clip-path="url(#clip2700)">
<text style="fill:#000000; fill-opacity:1; font-family:Arial,Helvetica Neue,Helvetica,sans-serif; font-size:48px; text-anchor:middle;" transform="rotate(0, 204.437, 1541.47)" x="204.437" y="1541.47">-1.0</text>
</g>
<g clip-path="url(#clip2700)">
<text style="fill:#000000; fill-opacity:1; font-family:Arial,Helvetica Neue,Helvetica,sans-serif; font-size:48px; text-anchor:middle;" transform="rotate(0, 725.874, 1541.47)" x="725.874" y="1541.47">-0.5</text>
</g>
<g clip-path="url(#clip2700)">
<text style="fill:#000000; fill-opacity:1; font-family:Arial,Helvetica Neue,Helvetica,sans-serif; font-size:48px; text-anchor:middle;" transform="rotate(0, 1247.31, 1541.47)" x="1247.31" y="1541.47">0.0</text>
</g>
<g clip-path="url(#clip2700)">
<text style="fill:#000000; fill-opacity:1; font-family:Arial,Helvetica Neue,Helvetica,sans-serif; font-size:48px; text-anchor:middle;" transform="rotate(0, 1768.75, 1541.47)" x="1768.75" y="1541.47">0.5</text>
</g>
<g clip-path="url(#clip2700)">
<text style="fill:#000000; fill-opacity:1; font-family:Arial,Helvetica Neue,Helvetica,sans-serif; font-size:48px; text-anchor:middle;" transform="rotate(0, 2290.18, 1541.47)" x="2290.18" y="1541.47">1.0</text>
</g>
<g clip-path="url(#clip2700)">
<text style="fill:#000000; fill-opacity:1; font-family:Arial,Helvetica Neue,Helvetica,sans-serif; font-size:48px; text-anchor:end;" transform="rotate(0, 117.865, 1375.02)" x="117.865" y="1375.02">-4</text>
</g>
<g clip-path="url(#clip2700)">
<text style="fill:#000000; fill-opacity:1; font-family:Arial,Helvetica Neue,Helvetica,sans-serif; font-size:48px; text-anchor:end;" transform="rotate(0, 117.865, 1112.4)" x="117.865" y="1112.4">-3</text>
</g>
<g clip-path="url(#clip2700)">
<text style="fill:#000000; fill-opacity:1; font-family:Arial,Helvetica Neue,Helvetica,sans-serif; font-size:48px; text-anchor:end;" transform="rotate(0, 117.865, 849.786)" x="117.865" y="849.786">-2</text>
</g>
<g clip-path="url(#clip2700)">
<text style="fill:#000000; fill-opacity:1; font-family:Arial,Helvetica Neue,Helvetica,sans-serif; font-size:48px; text-anchor:end;" transform="rotate(0, 117.865, 587.169)" x="117.865" y="587.169">-1</text>
</g>
<g clip-path="url(#clip2700)">
<text style="fill:#000000; fill-opacity:1; font-family:Arial,Helvetica Neue,Helvetica,sans-serif; font-size:48px; text-anchor:end;" transform="rotate(0, 117.865, 324.552)" x="117.865" y="324.552">0</text>
</g>
<polyline clip-path="url(#clip2702)" style="stroke:#000000; stroke-width:4; stroke-opacity:1; fill:none" points="
  204.437,307.052 209.529,317.949 214.621,328.737 219.714,339.415 224.806,349.981 248.349,397.326 271.891,442.092 295.434,484.15 318.976,523.394 342.519,559.733 
  366.062,593.101 389.604,623.447 413.147,650.74 441.443,679.488 469.74,703.818 498.036,723.776 526.332,739.435 550.256,749.399 574.18,756.443 598.105,760.661 
  622.029,762.154 648.017,760.823 674.005,756.57 699.994,749.565 725.982,739.989 773.9,716.227 821.818,685.597 873.191,646.578 924.564,602.71 984.084,547.866 
  1043.61,490.903 1149.4,390.911 1242.16,311.144 1292.73,272.755 1343.31,238.748 1394.18,209.386 1445.05,185.155 1501.29,164.476 1557.54,150.173 1611.06,142.281 
  1664.57,139.63 1720.22,141.959 1775.86,148.885 1822.7,157.791 1869.54,169.056 1983.91,203.745 2091.43,241.169 2263.68,299.147 2290.18,307.052 
  "/>
<polyline clip-path="url(#clip2702)" style="stroke:#0000ff; stroke-width:4; stroke-opacity:1; fill:none" points="
  225.294,377.431 245.735,409.317 266.175,439.325 286.615,467.493 307.056,493.858 327.496,518.459 347.936,541.331 368.377,562.514 388.817,582.046 409.257,599.962 
  429.698,616.302 450.138,631.103 470.578,644.403 491.019,656.239 511.459,666.648 531.899,675.67 552.339,683.34 572.78,689.698 593.22,694.78 613.66,698.624 
  634.101,701.268 654.541,702.75 674.981,703.107 695.422,702.376 715.862,700.597 736.302,697.805 756.743,694.039 777.183,689.337 797.623,683.736 818.064,677.274 
  838.504,669.988 858.944,661.916 879.385,653.097 899.825,643.566 920.265,633.363 940.705,622.525 961.146,611.089 981.586,599.093 1002.03,586.575 1022.47,573.572 
  1042.91,560.123 1063.35,546.264 1083.79,532.033 1104.23,517.469 1124.67,502.608 1145.11,487.489 1165.55,472.149 1185.99,456.625 1206.43,440.956 1226.87,425.179 
  1247.31,409.332 1267.75,393.451 1288.19,377.576 1308.63,361.744 1329.07,345.992 1349.51,330.358 1369.95,314.879 1390.39,299.594 1410.83,284.54 1431.27,269.754 
  1451.71,255.275 1472.15,241.14 1492.59,227.386 1513.03,214.051 1533.47,201.174 1553.91,188.791 1574.36,176.94 1594.8,165.659 1615.24,154.986 1635.68,144.958 
  1656.12,135.613 1676.56,126.988 1697,119.122 1717.44,112.051 1737.88,105.814 1758.32,100.449 1778.76,95.9916 1799.2,92.4811 1819.64,89.9548 1840.08,88.4503 
  1860.52,88.0053 1880.96,88.6575 1901.4,90.4445 1921.84,93.4039 1942.28,97.5734 1962.72,102.991 1983.16,109.694 2003.6,117.719 2024.04,127.106 2044.48,137.891 
  2064.92,150.112 2085.36,163.807 2105.8,179.014 2126.24,195.769 2146.68,214.111 2167.12,234.078 2187.56,255.706 2208.01,279.034 2228.45,304.1 2248.89,330.941 
  2269.33,359.594 
  "/>
<polyline clip-path="url(#clip2702)" style="stroke:#ff0000; stroke-width:4; stroke-opacity:1; fill:none" points="
  204.437,1000.35 225.294,980.193 246.152,960.297 267.009,940.657 287.867,921.274 308.724,902.148 329.582,883.278 350.439,864.665 371.297,846.308 392.154,828.208 
  413.012,810.365 433.869,792.778 454.727,775.448 475.584,758.374 496.441,741.557 517.299,724.997 538.156,708.693 559.014,692.646 579.871,676.856 600.729,661.322 
  621.586,646.044 642.444,631.024 663.301,616.26 684.159,601.752 705.016,587.501 725.874,573.507 746.731,559.77 767.589,546.289 788.446,533.064 809.303,520.097 
  830.161,507.385 851.018,494.931 871.876,482.733 892.733,470.792 913.591,459.107 934.448,447.679 955.306,436.508 976.163,425.593 997.021,414.935 1017.88,404.533 
  1038.74,394.388 1059.59,384.5 1080.45,374.868 1101.31,365.493 1122.17,356.374 1143.02,347.512 1163.88,338.907 1184.74,330.558 1205.6,322.466 1226.45,314.631 
  1247.31,307.052 1268.17,299.73 1289.03,292.664 1309.88,285.855 1330.74,279.303 1351.6,273.007 1372.46,266.968 1393.31,261.185 1414.17,255.659 1435.03,250.39 
  1455.88,245.377 1476.74,240.621 1497.6,236.121 1518.46,231.879 1539.31,227.892 1560.17,224.163 1581.03,220.69 1601.89,217.473 1622.74,214.513 1643.6,211.81 
  1664.46,209.364 1685.32,207.174 1706.17,205.24 1727.03,203.564 1747.89,202.144 1768.75,200.98 1789.6,200.073 1810.46,199.423 1831.32,199.029 1852.18,198.892 
  1873.03,199.012 1893.89,199.388 1914.75,200.021 1935.61,200.91 1956.46,202.056 1977.32,203.459 1998.18,205.118 2019.04,207.034 2039.89,209.206 2060.75,211.635 
  2081.61,214.321 2102.47,217.263 2123.32,220.462 2144.18,223.918 2165.04,227.63 2185.9,231.599 2206.75,235.824 2227.61,240.306 2248.47,245.045 2269.33,250.04 
  2290.18,255.292 
  "/>
<polyline clip-path="url(#clip2702)" style="stroke:#008000; stroke-width:4; stroke-opacity:1; fill:none" points="
  204.437,1000.35 225.294,980.193 246.152,960.297 267.009,940.657 287.867,921.274 308.724,902.148 329.582,883.278 350.439,864.665 371.297,846.308 392.154,828.208 
  413.012,810.365 433.869,792.778 454.727,775.448 475.584,758.374 496.441,741.557 517.299,724.997 538.156,708.693 559.014,692.646 579.871,676.856 600.729,661.322 
  621.586,646.044 642.444,631.024 663.301,616.26 684.159,601.752 705.016,587.501 725.874,573.507 746.731,559.77 767.589,546.289 788.446,533.064 809.303,520.097 
  830.161,507.385 851.018,494.931 871.876,482.733 892.733,470.792 913.591,459.107 934.448,447.679 955.306,436.508 976.163,425.593 997.021,414.935 1017.88,404.533 
  1038.74,394.388 1059.59,384.5 1080.45,374.868 1101.31,365.493 1122.17,356.374 1143.02,347.512 1163.88,338.907 1184.74,330.558 1205.6,322.466 1226.45,314.631 
  1247.31,307.052 1268.17,299.73 1289.03,292.664 1309.88,285.855 1330.74,279.303 1351.6,273.007 1372.46,266.968 1393.31,261.185 1414.17,255.659 1435.03,250.39 
  1455.88,245.377 1476.74,240.621 1497.6,236.121 1518.46,231.879 1539.31,227.892 1560.17,224.163 1581.03,220.69 1601.89,217.473 1622.74,214.513 1643.6,211.81 
  1664.46,209.364 1685.32,207.174 1706.17,205.24 1727.03,203.564 1747.89,202.144 1768.75,200.98 1789.6,200.073 1810.46,199.423 1831.32,199.029 1852.18,198.892 
  1873.03,199.012 1893.89,199.388 1914.75,200.021 1935.61,200.91 1956.46,202.056 1977.32,203.459 1998.18,205.118 2019.04,207.034 2039.89,209.206 2060.75,211.635 
  2081.61,214.321 2102.47,217.263 2123.32,220.462 2144.18,223.918 2165.04,227.63 2185.9,231.599 2206.75,235.824 2227.61,240.306 2248.47,245.045 2269.33,250.04 
  2290.18,255.292 
  "/>
<polyline clip-path="url(#clip2702)" style="stroke:#a52a2a; stroke-width:4; stroke-opacity:1; fill:none" points="
  204.437,1446.71 225.505,1412.85 246.573,1379.44 267.641,1346.48 288.71,1313.96 309.778,1281.89 330.846,1250.26 351.914,1219.09 372.982,1188.36 394.05,1158.07 
  415.118,1128.23 436.187,1098.84 457.255,1069.9 478.323,1041.4 499.391,1013.35 520.459,985.75 541.527,958.594 562.595,931.884 583.664,905.621 604.732,879.805 
  625.8,854.436 646.868,829.514 667.936,805.038 689.004,781.009 710.072,757.427 731.141,734.292 752.209,711.604 773.277,689.362 794.345,667.568 815.413,646.22 
  836.481,625.318 857.55,604.864 878.618,584.857 899.686,565.296 920.754,546.182 941.822,527.515 962.89,509.295 983.958,491.521 1005.03,474.194 1026.09,457.315 
  1047.16,440.881 1068.23,424.895 1089.3,409.356 1110.37,394.263 1131.44,379.617 1152.5,365.418 1173.57,351.666 1194.64,338.361 1215.71,325.502 1236.78,313.09 
  1257.84,301.125 1278.91,289.607 1299.98,278.536 1321.05,267.911 1342.12,257.733 1363.19,248.002 1384.25,238.718 1405.32,229.881 1426.39,221.49 1447.46,213.546 
  1468.53,206.05 1489.59,198.999 1510.66,192.396 1531.73,186.24 1552.8,180.53 1573.87,175.267 1594.93,170.451 1616,166.082 1637.07,162.159 1658.14,158.683 
  1679.21,155.655 1700.28,153.072 1721.34,150.937 1742.41,149.249 1763.48,148.007 1784.55,147.212 1805.62,146.864 1826.68,146.963 1847.75,147.509 1868.82,148.501 
  1889.89,149.94 1910.96,151.826 1932.03,154.159 1953.09,156.939 1974.16,160.165 1995.23,163.838 2016.3,167.958 2037.37,172.525 2058.43,177.539 2079.5,182.999 
  2100.57,188.907 2121.64,195.261 2142.71,202.062 2163.77,209.309 2184.84,217.004 2205.91,225.145 2226.98,233.733 2248.05,242.768 2269.12,252.25 2290.18,262.178 
  
  "/>
</svg>
