<?xml version="1.0" encoding="utf-8"?>
<svg xmlns="http://www.w3.org/2000/svg" xmlns:xlink="http://www.w3.org/1999/xlink" width="600" height="400" viewBox="0 0 2400 1600">
<defs>
  <clipPath id="clip490">
    <rect x="0" y="0" width="2400" height="1600"/>
  </clipPath>
</defs>
<path clip-path="url(#clip490)" d="
M0 1600 L2400 1600 L2400 0 L0 0  Z
  " fill="#ffffff" fill-rule="evenodd" fill-opacity="1"/>
<defs>
  <clipPath id="clip491">
    <rect x="480" y="0" width="1681" height="1600"/>
  </clipPath>
</defs>
<path clip-path="url(#clip490)" d="
M193.936 1486.45 L2352.76 1486.45 L2352.76 47.2441 L193.936 47.2441  Z
  " fill="#ffffff" fill-rule="evenodd" fill-opacity="1"/>
<defs>
  <clipPath id="clip492">
    <rect x="193" y="47" width="2160" height="1440"/>
  </clipPath>
</defs>
<polyline clip-path="url(#clip492)" style="stroke:#000000; stroke-linecap:butt; stroke-linejoin:round; stroke-width:2; stroke-opacity:0.1; fill:none" points="
  255.035,1486.45 255.035,47.2441 
  "/>
<polyline clip-path="url(#clip492)" style="stroke:#000000; stroke-linecap:butt; stroke-linejoin:round; stroke-width:2; stroke-opacity:0.1; fill:none" points="
  764.19,1486.45 764.19,47.2441 
  "/>
<polyline clip-path="url(#clip492)" style="stroke:#000000; stroke-linecap:butt; stroke-linejoin:round; stroke-width:2; stroke-opacity:0.1; fill:none" points="
  1273.35,1486.45 1273.35,47.2441 
  "/>
<polyline clip-path="url(#clip492)" style="stroke:#000000; stroke-linecap:butt; stroke-linejoin:round; stroke-width:2; stroke-opacity:0.1; fill:none" points="
  1782.5,1486.45 1782.5,47.2441 
  "/>
<polyline clip-path="url(#clip492)" style="stroke:#000000; stroke-linecap:butt; stroke-linejoin:round; stroke-width:2; stroke-opacity:0.1; fill:none" points="
  2291.66,1486.45 2291.66,47.2441 
  "/>
<polyline clip-path="url(#clip490)" style="stroke:#000000; stroke-linecap:butt; stroke-linejoin:round; stroke-width:4; stroke-opacity:1; fill:none" points="
  193.936,1486.45 2352.76,1486.45 
  "/>
<polyline clip-path="url(#clip490)" style="stroke:#000000; stroke-linecap:butt; stroke-linejoin:round; stroke-width:4; stroke-opacity:1; fill:none" points="
  255.035,1486.45 255.035,1467.55 
  "/>
<polyline clip-path="url(#clip490)" style="stroke:#000000; stroke-linecap:butt; stroke-linejoin:round; stroke-width:4; stroke-opacity:1; fill:none" points="
  764.19,1486.45 764.19,1467.55 
  "/>
<polyline clip-path="url(#clip490)" style="stroke:#000000; stroke-linecap:butt; stroke-linejoin:round; stroke-width:4; stroke-opacity:1; fill:none" points="
  1273.35,1486.45 1273.35,1467.55 
  "/>
<polyline clip-path="url(#clip490)" style="stroke:#000000; stroke-linecap:butt; stroke-linejoin:round; stroke-width:4; stroke-opacity:1; fill:none" points="
  1782.5,1486.45 1782.5,1467.55 
  "/>
<polyline clip-path="url(#clip490)" style="stroke:#000000; stroke-linecap:butt; stroke-linejoin:round; stroke-width:4; stroke-opacity:1; fill:none" points="
  2291.66,1486.45 2291.66,1467.55 
  "/>
<path clip-path="url(#clip490)" d="M201.563 1532.02 L231.239 1532.02 L231.239 1535.95 L201.563 1535.95 L201.563 1532.02 Z" fill="#000000" fill-rule="evenodd" fill-opacity="1" /><path clip-path="url(#clip490)" d="M242.141 1544.91 L249.78 1544.91 L249.78 1518.55 L241.47 1520.21 L241.47 1515.95 L249.734 1514.29 L254.41 1514.29 L254.41 1544.91 L262.049 1544.91 L262.049 1548.85 L242.141 1548.85 L242.141 1544.91 Z" fill="#000000" fill-rule="evenodd" fill-opacity="1" /><path clip-path="url(#clip490)" d="M271.493 1542.97 L276.377 1542.97 L276.377 1548.85 L271.493 1548.85 L271.493 1542.97 Z" fill="#000000" fill-rule="evenodd" fill-opacity="1" /><path clip-path="url(#clip490)" d="M296.562 1517.37 Q292.951 1517.37 291.122 1520.93 Q289.317 1524.47 289.317 1531.6 Q289.317 1538.71 291.122 1542.27 Q292.951 1545.82 296.562 1545.82 Q300.196 1545.82 302.002 1542.27 Q303.831 1538.71 303.831 1531.6 Q303.831 1524.47 302.002 1520.93 Q300.196 1517.37 296.562 1517.37 M296.562 1513.66 Q302.372 1513.66 305.428 1518.27 Q308.507 1522.85 308.507 1531.6 Q308.507 1540.33 305.428 1544.94 Q302.372 1549.52 296.562 1549.52 Q290.752 1549.52 287.673 1544.94 Q284.618 1540.33 284.618 1531.6 Q284.618 1522.85 287.673 1518.27 Q290.752 1513.66 296.562 1513.66 Z" fill="#000000" fill-rule="evenodd" fill-opacity="1" /><path clip-path="url(#clip490)" d="M711.216 1532.02 L740.892 1532.02 L740.892 1535.95 L711.216 1535.95 L711.216 1532.02 Z" fill="#000000" fill-rule="evenodd" fill-opacity="1" /><path clip-path="url(#clip490)" d="M760.984 1517.37 Q757.373 1517.37 755.545 1520.93 Q753.739 1524.47 753.739 1531.6 Q753.739 1538.71 755.545 1542.27 Q757.373 1545.82 760.984 1545.82 Q764.619 1545.82 766.424 1542.27 Q768.253 1538.71 768.253 1531.6 Q768.253 1524.47 766.424 1520.93 Q764.619 1517.37 760.984 1517.37 M760.984 1513.66 Q766.794 1513.66 769.85 1518.27 Q772.929 1522.85 772.929 1531.6 Q772.929 1540.33 769.85 1544.94 Q766.794 1549.52 760.984 1549.52 Q755.174 1549.52 752.095 1544.94 Q749.04 1540.33 749.04 1531.6 Q749.04 1522.85 752.095 1518.27 Q755.174 1513.66 760.984 1513.66 Z" fill="#000000" fill-rule="evenodd" fill-opacity="1" /><path clip-path="url(#clip490)" d="M781.146 1542.97 L786.03 1542.97 L786.03 1548.85 L781.146 1548.85 L781.146 1542.97 Z" fill="#000000" fill-rule="evenodd" fill-opacity="1" /><path clip-path="url(#clip490)" d="M796.262 1514.29 L814.618 1514.29 L814.618 1518.22 L800.544 1518.22 L800.544 1526.7 Q801.563 1526.35 802.581 1526.19 Q803.6 1526 804.618 1526 Q810.405 1526 813.785 1529.17 Q817.165 1532.34 817.165 1537.76 Q817.165 1543.34 813.692 1546.44 Q810.22 1549.52 803.901 1549.52 Q801.725 1549.52 799.456 1549.15 Q797.211 1548.78 794.804 1548.04 L794.804 1543.34 Q796.887 1544.47 799.109 1545.03 Q801.331 1545.58 803.808 1545.58 Q807.813 1545.58 810.151 1543.48 Q812.489 1541.37 812.489 1537.76 Q812.489 1534.15 810.151 1532.04 Q807.813 1529.94 803.808 1529.94 Q801.933 1529.94 800.058 1530.35 Q798.206 1530.77 796.262 1531.65 L796.262 1514.29 Z" fill="#000000" fill-rule="evenodd" fill-opacity="1" /><path clip-path="url(#clip490)" d="M1250.73 1517.37 Q1247.12 1517.37 1245.29 1520.93 Q1243.49 1524.47 1243.49 1531.6 Q1243.49 1538.71 1245.29 1542.27 Q1247.12 1545.82 1250.73 1545.82 Q1254.36 1545.82 1256.17 1542.27 Q1258 1538.71 1258 1531.6 Q1258 1524.47 1256.17 1520.93 Q1254.36 1517.37 1250.73 1517.37 M1250.73 1513.66 Q1256.54 1513.66 1259.6 1518.27 Q1262.67 1522.85 1262.67 1531.6 Q1262.67 1540.33 1259.6 1544.94 Q1256.54 1549.52 1250.73 1549.52 Q1244.92 1549.52 1241.84 1544.94 Q1238.79 1540.33 1238.79 1531.6 Q1238.79 1522.85 1241.84 1518.27 Q1244.92 1513.66 1250.73 1513.66 Z" fill="#000000" fill-rule="evenodd" fill-opacity="1" /><path clip-path="url(#clip490)" d="M1270.89 1542.97 L1275.78 1542.97 L1275.78 1548.85 L1270.89 1548.85 L1270.89 1542.97 Z" fill="#000000" fill-rule="evenodd" fill-opacity="1" /><path clip-path="url(#clip490)" d="M1295.96 1517.37 Q1292.35 1517.37 1290.52 1520.93 Q1288.72 1524.47 1288.72 1531.6 Q1288.72 1538.71 1290.52 1542.27 Q1292.35 1545.82 1295.96 1545.82 Q1299.6 1545.82 1301.4 1542.27 Q1303.23 1538.71 1303.23 1531.6 Q1303.23 1524.47 1301.4 1520.93 Q1299.6 1517.37 1295.96 1517.37 M1295.96 1513.66 Q1301.77 1513.66 1304.83 1518.27 Q1307.91 1522.85 1307.91 1531.6 Q1307.91 1540.33 1304.83 1544.94 Q1301.77 1549.52 1295.96 1549.52 Q1290.15 1549.52 1287.07 1544.94 Q1284.02 1540.33 1284.02 1531.6 Q1284.02 1522.85 1287.07 1518.27 Q1290.15 1513.66 1295.96 1513.66 Z" fill="#000000" fill-rule="evenodd" fill-opacity="1" /><path clip-path="url(#clip490)" d="M1760.38 1517.37 Q1756.77 1517.37 1754.94 1520.93 Q1753.14 1524.47 1753.14 1531.6 Q1753.14 1538.71 1754.94 1542.27 Q1756.77 1545.82 1760.38 1545.82 Q1764.02 1545.82 1765.82 1542.27 Q1767.65 1538.71 1767.65 1531.6 Q1767.65 1524.47 1765.82 1520.93 Q1764.02 1517.37 1760.38 1517.37 M1760.38 1513.66 Q1766.19 1513.66 1769.25 1518.27 Q1772.33 1522.85 1772.33 1531.6 Q1772.33 1540.33 1769.25 1544.94 Q1766.19 1549.52 1760.38 1549.52 Q1754.57 1549.52 1751.49 1544.94 Q1748.44 1540.33 1748.44 1531.6 Q1748.44 1522.85 1751.49 1518.27 Q1754.57 1513.66 1760.38 1513.66 Z" fill="#000000" fill-rule="evenodd" fill-opacity="1" /><path clip-path="url(#clip490)" d="M1780.55 1542.97 L1785.43 1542.97 L1785.43 1548.85 L1780.55 1548.85 L1780.55 1542.97 Z" fill="#000000" fill-rule="evenodd" fill-opacity="1" /><path clip-path="url(#clip490)" d="M1795.66 1514.29 L1814.02 1514.29 L1814.02 1518.22 L1799.94 1518.22 L1799.94 1526.7 Q1800.96 1526.35 1801.98 1526.19 Q1803 1526 1804.02 1526 Q1809.8 1526 1813.18 1529.17 Q1816.56 1532.34 1816.56 1537.76 Q1816.56 1543.34 1813.09 1546.44 Q1809.62 1549.52 1803.3 1549.52 Q1801.12 1549.52 1798.86 1549.15 Q1796.61 1548.78 1794.2 1548.04 L1794.2 1543.34 Q1796.29 1544.47 1798.51 1545.03 Q1800.73 1545.58 1803.21 1545.58 Q1807.21 1545.58 1809.55 1543.48 Q1811.89 1541.37 1811.89 1537.76 Q1811.89 1534.15 1809.55 1532.04 Q1807.21 1529.94 1803.21 1529.94 Q1801.33 1529.94 1799.46 1530.35 Q1797.61 1530.77 1795.66 1531.65 L1795.66 1514.29 Z" fill="#000000" fill-rule="evenodd" fill-opacity="1" /><path clip-path="url(#clip490)" d="M2258.81 1544.91 L2266.45 1544.91 L2266.45 1518.55 L2258.14 1520.21 L2258.14 1515.95 L2266.4 1514.29 L2271.08 1514.29 L2271.08 1544.91 L2278.72 1544.91 L2278.72 1548.85 L2258.81 1548.85 L2258.81 1544.91 Z" fill="#000000" fill-rule="evenodd" fill-opacity="1" /><path clip-path="url(#clip490)" d="M2288.16 1542.97 L2293.05 1542.97 L2293.05 1548.85 L2288.16 1548.85 L2288.16 1542.97 Z" fill="#000000" fill-rule="evenodd" fill-opacity="1" /><path clip-path="url(#clip490)" d="M2313.23 1517.37 Q2309.62 1517.37 2307.79 1520.93 Q2305.99 1524.47 2305.99 1531.6 Q2305.99 1538.71 2307.79 1542.27 Q2309.62 1545.82 2313.23 1545.82 Q2316.87 1545.82 2318.67 1542.27 Q2320.5 1538.71 2320.5 1531.6 Q2320.5 1524.47 2318.67 1520.93 Q2316.87 1517.37 2313.23 1517.37 M2313.23 1513.66 Q2319.04 1513.66 2322.1 1518.27 Q2325.18 1522.85 2325.18 1531.6 Q2325.18 1540.33 2322.1 1544.94 Q2319.04 1549.52 2313.23 1549.52 Q2307.42 1549.52 2304.34 1544.94 Q2301.29 1540.33 2301.29 1531.6 Q2301.29 1522.85 2304.34 1518.27 Q2307.42 1513.66 2313.23 1513.66 Z" fill="#000000" fill-rule="evenodd" fill-opacity="1" /><polyline clip-path="url(#clip492)" style="stroke:#000000; stroke-linecap:butt; stroke-linejoin:round; stroke-width:2; stroke-opacity:0.1; fill:none" points="
  193.936,1445.72 2352.76,1445.72 
  "/>
<polyline clip-path="url(#clip492)" style="stroke:#000000; stroke-linecap:butt; stroke-linejoin:round; stroke-width:2; stroke-opacity:0.1; fill:none" points="
  193.936,1106.28 2352.76,1106.28 
  "/>
<polyline clip-path="url(#clip492)" style="stroke:#000000; stroke-linecap:butt; stroke-linejoin:round; stroke-width:2; stroke-opacity:0.1; fill:none" points="
  193.936,766.846 2352.76,766.846 
  "/>
<polyline clip-path="url(#clip492)" style="stroke:#000000; stroke-linecap:butt; stroke-linejoin:round; stroke-width:2; stroke-opacity:0.1; fill:none" points="
  193.936,427.411 2352.76,427.411 
  "/>
<polyline clip-path="url(#clip492)" style="stroke:#000000; stroke-linecap:butt; stroke-linejoin:round; stroke-width:2; stroke-opacity:0.1; fill:none" points="
  193.936,87.9763 2352.76,87.9763 
  "/>
<polyline clip-path="url(#clip490)" style="stroke:#000000; stroke-linecap:butt; stroke-linejoin:round; stroke-width:4; stroke-opacity:1; fill:none" points="
  193.936,1486.45 193.936,47.2441 
  "/>
<polyline clip-path="url(#clip490)" style="stroke:#000000; stroke-linecap:butt; stroke-linejoin:round; stroke-width:4; stroke-opacity:1; fill:none" points="
  193.936,1445.72 212.834,1445.72 
  "/>
<polyline clip-path="url(#clip490)" style="stroke:#000000; stroke-linecap:butt; stroke-linejoin:round; stroke-width:4; stroke-opacity:1; fill:none" points="
  193.936,1106.28 212.834,1106.28 
  "/>
<polyline clip-path="url(#clip490)" style="stroke:#000000; stroke-linecap:butt; stroke-linejoin:round; stroke-width:4; stroke-opacity:1; fill:none" points="
  193.936,766.846 212.834,766.846 
  "/>
<polyline clip-path="url(#clip490)" style="stroke:#000000; stroke-linecap:butt; stroke-linejoin:round; stroke-width:4; stroke-opacity:1; fill:none" points="
  193.936,427.411 212.834,427.411 
  "/>
<polyline clip-path="url(#clip490)" style="stroke:#000000; stroke-linecap:butt; stroke-linejoin:round; stroke-width:4; stroke-opacity:1; fill:none" points="
  193.936,87.9763 212.834,87.9763 
  "/>
<path clip-path="url(#clip490)" d="M50.9921 1446.17 L80.6679 1446.17 L80.6679 1450.1 L50.9921 1450.1 L50.9921 1446.17 Z" fill="#000000" fill-rule="evenodd" fill-opacity="1" /><path clip-path="url(#clip490)" d="M91.5706 1459.06 L99.2095 1459.06 L99.2095 1432.69 L90.8993 1434.36 L90.8993 1430.1 L99.1632 1428.44 L103.839 1428.44 L103.839 1459.06 L111.478 1459.06 L111.478 1463 L91.5706 1463 L91.5706 1459.06 Z" fill="#000000" fill-rule="evenodd" fill-opacity="1" /><path clip-path="url(#clip490)" d="M120.922 1457.12 L125.807 1457.12 L125.807 1463 L120.922 1463 L120.922 1457.12 Z" fill="#000000" fill-rule="evenodd" fill-opacity="1" /><path clip-path="url(#clip490)" d="M145.992 1431.51 Q142.381 1431.51 140.552 1435.08 Q138.746 1438.62 138.746 1445.75 Q138.746 1452.86 140.552 1456.42 Q142.381 1459.96 145.992 1459.96 Q149.626 1459.96 151.431 1456.42 Q153.26 1452.86 153.26 1445.75 Q153.26 1438.62 151.431 1435.08 Q149.626 1431.51 145.992 1431.51 M145.992 1427.81 Q151.802 1427.81 154.857 1432.42 Q157.936 1437 157.936 1445.75 Q157.936 1454.48 154.857 1459.08 Q151.802 1463.67 145.992 1463.67 Q140.181 1463.67 137.103 1459.08 Q134.047 1454.48 134.047 1445.75 Q134.047 1437 137.103 1432.42 Q140.181 1427.81 145.992 1427.81 Z" fill="#000000" fill-rule="evenodd" fill-opacity="1" /><path clip-path="url(#clip490)" d="M51.9875 1106.73 L81.6633 1106.73 L81.6633 1110.67 L51.9875 1110.67 L51.9875 1106.73 Z" fill="#000000" fill-rule="evenodd" fill-opacity="1" /><path clip-path="url(#clip490)" d="M101.756 1092.08 Q98.1447 1092.08 96.316 1095.64 Q94.5104 1099.19 94.5104 1106.32 Q94.5104 1113.42 96.316 1116.99 Q98.1447 1120.53 101.756 1120.53 Q105.39 1120.53 107.196 1116.99 Q109.024 1113.42 109.024 1106.32 Q109.024 1099.19 107.196 1095.64 Q105.39 1092.08 101.756 1092.08 M101.756 1088.38 Q107.566 1088.38 110.621 1092.98 Q113.7 1097.57 113.7 1106.32 Q113.7 1115.04 110.621 1119.65 Q107.566 1124.23 101.756 1124.23 Q95.9456 1124.23 92.8669 1119.65 Q89.8114 1115.04 89.8114 1106.32 Q89.8114 1097.57 92.8669 1092.98 Q95.9456 1088.38 101.756 1088.38 Z" fill="#000000" fill-rule="evenodd" fill-opacity="1" /><path clip-path="url(#clip490)" d="M121.918 1117.68 L126.802 1117.68 L126.802 1123.56 L121.918 1123.56 L121.918 1117.68 Z" fill="#000000" fill-rule="evenodd" fill-opacity="1" /><path clip-path="url(#clip490)" d="M137.033 1089 L155.39 1089 L155.39 1092.94 L141.316 1092.94 L141.316 1101.41 Q142.334 1101.06 143.353 1100.9 Q144.371 1100.71 145.39 1100.71 Q151.177 1100.71 154.556 1103.89 Q157.936 1107.06 157.936 1112.47 Q157.936 1118.05 154.464 1121.15 Q150.992 1124.23 144.672 1124.23 Q142.496 1124.23 140.228 1123.86 Q137.982 1123.49 135.575 1122.75 L135.575 1118.05 Q137.658 1119.19 139.881 1119.74 Q142.103 1120.3 144.58 1120.3 Q148.584 1120.3 150.922 1118.19 Q153.26 1116.08 153.26 1112.47 Q153.26 1108.86 150.922 1106.76 Q148.584 1104.65 144.58 1104.65 Q142.705 1104.65 140.83 1105.07 Q138.978 1105.48 137.033 1106.36 L137.033 1089 Z" fill="#000000" fill-rule="evenodd" fill-opacity="1" /><path clip-path="url(#clip490)" d="M100.76 752.645 Q97.1493 752.645 95.3206 756.209 Q93.515 759.751 93.515 766.881 Q93.515 773.987 95.3206 777.552 Q97.1493 781.094 100.76 781.094 Q104.395 781.094 106.2 777.552 Q108.029 773.987 108.029 766.881 Q108.029 759.751 106.2 756.209 Q104.395 752.645 100.76 752.645 M100.76 748.941 Q106.571 748.941 109.626 753.547 Q112.705 758.131 112.705 766.881 Q112.705 775.608 109.626 780.214 Q106.571 784.797 100.76 784.797 Q94.9502 784.797 91.8715 780.214 Q88.816 775.608 88.816 766.881 Q88.816 758.131 91.8715 753.547 Q94.9502 748.941 100.76 748.941 Z" fill="#000000" fill-rule="evenodd" fill-opacity="1" /><path clip-path="url(#clip490)" d="M120.922 778.246 L125.807 778.246 L125.807 784.126 L120.922 784.126 L120.922 778.246 Z" fill="#000000" fill-rule="evenodd" fill-opacity="1" /><path clip-path="url(#clip490)" d="M145.992 752.645 Q142.381 752.645 140.552 756.209 Q138.746 759.751 138.746 766.881 Q138.746 773.987 140.552 777.552 Q142.381 781.094 145.992 781.094 Q149.626 781.094 151.431 777.552 Q153.26 773.987 153.26 766.881 Q153.26 759.751 151.431 756.209 Q149.626 752.645 145.992 752.645 M145.992 748.941 Q151.802 748.941 154.857 753.547 Q157.936 758.131 157.936 766.881 Q157.936 775.608 154.857 780.214 Q151.802 784.797 145.992 784.797 Q140.181 784.797 137.103 780.214 Q134.047 775.608 134.047 766.881 Q134.047 758.131 137.103 753.547 Q140.181 748.941 145.992 748.941 Z" fill="#000000" fill-rule="evenodd" fill-opacity="1" /><path clip-path="url(#clip490)" d="M101.756 413.21 Q98.1447 413.21 96.316 416.775 Q94.5104 420.316 94.5104 427.446 Q94.5104 434.552 96.316 438.117 Q98.1447 441.659 101.756 441.659 Q105.39 441.659 107.196 438.117 Q109.024 434.552 109.024 427.446 Q109.024 420.316 107.196 416.775 Q105.39 413.21 101.756 413.21 M101.756 409.506 Q107.566 409.506 110.621 414.113 Q113.7 418.696 113.7 427.446 Q113.7 436.173 110.621 440.779 Q107.566 445.362 101.756 445.362 Q95.9456 445.362 92.8669 440.779 Q89.8114 436.173 89.8114 427.446 Q89.8114 418.696 92.8669 414.113 Q95.9456 409.506 101.756 409.506 Z" fill="#000000" fill-rule="evenodd" fill-opacity="1" /><path clip-path="url(#clip490)" d="M121.918 438.812 L126.802 438.812 L126.802 444.691 L121.918 444.691 L121.918 438.812 Z" fill="#000000" fill-rule="evenodd" fill-opacity="1" /><path clip-path="url(#clip490)" d="M137.033 410.131 L155.39 410.131 L155.39 414.066 L141.316 414.066 L141.316 422.538 Q142.334 422.191 143.353 422.029 Q144.371 421.844 145.39 421.844 Q151.177 421.844 154.556 425.015 Q157.936 428.187 157.936 433.603 Q157.936 439.182 154.464 442.284 Q150.992 445.362 144.672 445.362 Q142.496 445.362 140.228 444.992 Q137.982 444.622 135.575 443.881 L135.575 439.182 Q137.658 440.316 139.881 440.872 Q142.103 441.427 144.58 441.427 Q148.584 441.427 150.922 439.321 Q153.26 437.214 153.26 433.603 Q153.26 429.992 150.922 427.886 Q148.584 425.779 144.58 425.779 Q142.705 425.779 140.83 426.196 Q138.978 426.613 137.033 427.492 L137.033 410.131 Z" fill="#000000" fill-rule="evenodd" fill-opacity="1" /><path clip-path="url(#clip490)" d="M91.5706 101.321 L99.2095 101.321 L99.2095 74.9555 L90.8993 76.6222 L90.8993 72.3629 L99.1632 70.6963 L103.839 70.6963 L103.839 101.321 L111.478 101.321 L111.478 105.256 L91.5706 105.256 L91.5706 101.321 Z" fill="#000000" fill-rule="evenodd" fill-opacity="1" /><path clip-path="url(#clip490)" d="M120.922 99.3767 L125.807 99.3767 L125.807 105.256 L120.922 105.256 L120.922 99.3767 Z" fill="#000000" fill-rule="evenodd" fill-opacity="1" /><path clip-path="url(#clip490)" d="M145.992 73.775 Q142.381 73.775 140.552 77.3398 Q138.746 80.8814 138.746 88.011 Q138.746 95.1174 140.552 98.6822 Q142.381 102.224 145.992 102.224 Q149.626 102.224 151.431 98.6822 Q153.26 95.1174 153.26 88.011 Q153.26 80.8814 151.431 77.3398 Q149.626 73.775 145.992 73.775 M145.992 70.0713 Q151.802 70.0713 154.857 74.6777 Q157.936 79.261 157.936 88.011 Q157.936 96.7378 154.857 101.344 Q151.802 105.928 145.992 105.928 Q140.181 105.928 137.103 101.344 Q134.047 96.7378 134.047 88.011 Q134.047 79.261 137.103 74.6777 Q140.181 70.0713 145.992 70.0713 Z" fill="#000000" fill-rule="evenodd" fill-opacity="1" /><polyline clip-path="url(#clip492)" style="stroke:#4063d8; stroke-linecap:butt; stroke-linejoin:round; stroke-width:20; stroke-opacity:1; fill:none" points="
  255.035,1445.72 275.401,1432.14 295.767,1418.56 316.133,1404.98 336.5,1391.41 356.866,1377.83 377.232,1364.25 397.598,1350.67 417.964,1337.1 438.331,1323.52 
  458.697,1309.94 479.063,1296.36 499.429,1282.79 519.796,1269.21 540.162,1255.63 560.528,1242.05 580.894,1228.48 601.261,1214.9 621.627,1201.32 641.993,1187.75 
  662.359,1174.17 682.725,1160.59 703.092,1147.01 723.458,1133.44 743.824,1119.86 764.19,1106.28 784.557,1092.7 804.923,1079.13 825.289,1065.55 845.655,1051.97 
  866.021,1038.39 886.388,1024.82 906.754,1011.24 927.12,997.662 947.486,984.084 967.853,970.507 988.219,956.93 1008.59,943.352 1028.95,929.775 1049.32,916.197 
  1069.68,902.62 1090.05,889.043 1110.42,875.465 1130.78,861.888 1151.15,848.31 1171.51,834.733 1191.88,821.156 1212.25,807.578 1232.61,794.001 1252.98,780.423 
  1273.35,766.846 1293.71,753.269 1314.08,739.691 1334.44,726.114 1354.81,712.536 1375.18,698.959 1395.54,685.382 1415.91,671.804 1436.28,658.227 1456.64,644.649 
  1477.01,631.072 1497.37,617.495 1517.74,603.917 1538.11,590.34 1558.47,576.762 1578.84,563.185 1599.21,549.608 1619.57,536.03 1639.94,522.453 1660.3,508.875 
  1680.67,495.298 1701.04,481.721 1721.4,468.143 1741.77,454.566 1762.14,440.989 1782.5,427.411 1802.87,413.834 1823.23,400.256 1843.6,386.679 1863.97,373.102 
  1884.33,359.524 1904.7,345.947 1925.07,332.369 1945.43,318.792 1965.8,305.215 1986.16,291.637 2006.53,278.06 2026.9,264.482 2047.26,250.905 2067.63,237.328 
  2087.99,223.75 2108.36,210.173 2128.73,196.595 2149.09,183.018 2169.46,169.441 2189.83,155.863 2210.19,142.286 2230.56,128.708 2250.92,115.131 2271.29,101.554 
  2291.66,87.9763 
  "/>
<polyline clip-path="url(#clip492)" style="stroke:#389826; stroke-linecap:butt; stroke-linejoin:round; stroke-width:20; stroke-opacity:1; fill:none" points="
  255.035,87.9763 275.401,141.743 295.767,194.423 316.133,246.017 336.5,296.525 356.866,345.947 377.232,394.282 397.598,441.532 417.964,487.695 438.331,532.772 
  458.697,576.762 479.063,619.667 499.429,661.485 519.796,702.218 540.162,741.864 560.528,780.423 580.894,817.897 601.261,854.284 621.627,889.586 641.993,923.801 
  662.359,956.93 682.725,988.972 703.092,1019.93 723.458,1049.8 743.824,1078.58 764.19,1106.28 784.557,1132.89 804.923,1158.42 825.289,1182.86 845.655,1206.21 
  866.021,1228.48 886.388,1249.66 906.754,1269.75 927.12,1288.76 947.486,1306.68 967.853,1323.52 988.219,1339.27 1008.59,1353.93 1028.95,1367.51 1049.32,1380 
  1069.68,1391.41 1090.05,1401.72 1110.42,1410.96 1130.78,1419.1 1151.15,1426.16 1171.51,1432.14 1191.88,1437.03 1212.25,1440.83 1232.61,1443.54 1252.98,1445.17 
  1273.35,1445.72 1293.71,1445.17 1314.08,1443.54 1334.44,1440.83 1354.81,1437.03 1375.18,1432.14 1395.54,1426.16 1415.91,1419.1 1436.28,1410.96 1456.64,1401.72 
  1477.01,1391.41 1497.37,1380 1517.74,1367.51 1538.11,1353.93 1558.47,1339.27 1578.84,1323.52 1599.21,1306.68 1619.57,1288.76 1639.94,1269.75 1660.3,1249.66 
  1680.67,1228.48 1701.04,1206.21 1721.4,1182.86 1741.77,1158.42 1762.14,1132.89 1782.5,1106.28 1802.87,1078.58 1823.23,1049.8 1843.6,1019.93 1863.97,988.972 
  1884.33,956.93 1904.7,923.801 1925.07,889.586 1945.43,854.284 1965.8,817.897 1986.16,780.423 2006.53,741.864 2026.9,702.218 2047.26,661.485 2067.63,619.667 
  2087.99,576.762 2108.36,532.772 2128.73,487.695 2149.09,441.532 2169.46,394.282 2189.83,345.947 2210.19,296.525 2230.56,246.017 2250.92,194.423 2271.29,141.743 
  2291.66,87.9763 
  "/>
<polyline clip-path="url(#clip492)" style="stroke:#cb3c33; stroke-linecap:butt; stroke-linejoin:round; stroke-width:20; stroke-opacity:1; fill:none" points="
  255.035,1445.72 275.401,1326.76 295.767,1214.18 316.133,1107.87 336.5,1007.68 356.866,913.482 377.232,825.153 397.598,742.559 417.964,665.569 438.331,594.055 
  458.697,527.884 479.063,466.927 499.429,411.053 519.796,360.132 540.162,314.034 560.528,272.629 580.894,235.785 601.261,203.373 621.627,175.263 641.993,151.323 
  662.359,131.424 682.725,115.435 703.092,103.226 723.458,94.6672 743.824,89.6273 764.19,87.9763 784.557,89.5838 804.923,94.3196 825.289,102.053 845.655,112.655 
  866.021,125.993 886.388,141.938 906.754,160.36 927.12,181.128 947.486,204.112 967.853,229.181 988.219,256.206 1008.59,285.055 1028.95,315.599 1049.32,347.706 
  1069.68,381.248 1090.05,416.093 1110.42,452.111 1130.78,489.172 1151.15,527.145 1171.51,565.901 1191.88,605.308 1212.25,645.236 1232.61,685.555 1252.98,726.136 
  1273.35,766.846 1293.71,807.556 1314.08,848.137 1334.44,888.456 1354.81,928.384 1375.18,967.791 1395.54,1006.55 1415.91,1044.52 1436.28,1081.58 1456.64,1117.6 
  1477.01,1152.44 1497.37,1185.99 1517.74,1218.09 1538.11,1248.64 1558.47,1277.49 1578.84,1304.51 1599.21,1329.58 1619.57,1352.56 1639.94,1373.33 1660.3,1391.75 
  1680.67,1407.7 1701.04,1421.04 1721.4,1431.64 1741.77,1439.37 1762.14,1444.11 1782.5,1445.72 1802.87,1444.06 1823.23,1439.02 1843.6,1430.47 1863.97,1418.26 
  1884.33,1402.27 1904.7,1382.37 1925.07,1358.43 1945.43,1330.32 1965.8,1297.91 1986.16,1261.06 2006.53,1219.66 2026.9,1173.56 2047.26,1122.64 2067.63,1066.77 
  2087.99,1005.81 2108.36,939.637 2128.73,868.122 2149.09,791.133 2169.46,708.539 2189.83,620.21 2210.19,526.016 2230.56,425.825 2250.92,319.509 2271.29,206.936 
  2291.66,87.9763 
  "/>
<polyline clip-path="url(#clip492)" style="stroke:#9558b2; stroke-linecap:butt; stroke-linejoin:round; stroke-width:20; stroke-opacity:1; fill:none" points="
  255.035,87.9763 275.401,294.526 295.767,480.382 316.133,646.556 336.5,794.039 356.866,923.801 377.232,1036.79 397.598,1133.93 417.964,1216.14 438.331,1284.3 
  458.697,1339.27 479.063,1381.9 499.429,1413.01 519.796,1433.41 540.162,1443.88 560.528,1445.17 580.894,1438.04 601.261,1423.19 621.627,1401.33 641.993,1373.14 
  662.359,1339.27 682.725,1300.36 703.092,1257.02 723.458,1209.85 743.824,1159.42 764.19,1106.28 784.557,1050.97 804.923,993.998 825.289,935.852 845.655,877.002 
  866.021,817.897 886.388,758.964 906.754,700.609 927.12,643.219 947.486,587.159 967.853,532.772 988.219,480.382 1008.59,430.291 1028.95,382.781 1049.32,338.112 
  1069.68,296.525 1090.05,258.238 1110.42,223.45 1130.78,192.337 1151.15,165.056 1171.51,141.743 1191.88,122.512 1212.25,107.457 1232.61,96.6519 1252.98,90.1478 
  1273.35,87.9763 1293.71,90.1478 1314.08,96.6519 1334.44,107.457 1354.81,122.512 1375.18,141.743 1395.54,165.056 1415.91,192.337 1436.28,223.45 1456.64,258.238 
  1477.01,296.525 1497.37,338.112 1517.74,382.781 1538.11,430.291 1558.47,480.382 1578.84,532.772 1599.21,587.159 1619.57,643.219 1639.94,700.609 1660.3,758.964 
  1680.67,817.897 1701.04,877.002 1721.4,935.852 1741.77,993.998 1762.14,1050.97 1782.5,1106.28 1802.87,1159.42 1823.23,1209.85 1843.6,1257.02 1863.97,1300.36 
  1884.33,1339.27 1904.7,1373.14 1925.07,1401.33 1945.43,1423.19 1965.8,1438.04 1986.16,1445.17 2006.53,1443.88 2026.9,1433.41 2047.26,1413.01 2067.63,1381.9 
  2087.99,1339.27 2108.36,1284.3 2128.73,1216.14 2149.09,1133.93 2169.46,1036.79 2189.83,923.801 2210.19,794.039 2230.56,646.556 2250.92,480.382 2271.29,294.526 
  2291.66,87.9763 
  "/>
</svg>
