<?xml version="1.0" encoding="utf-8"?>
<svg xmlns="http://www.w3.org/2000/svg" xmlns:xlink="http://www.w3.org/1999/xlink" width="600" height="400" viewBox="0 0 2400 1600">
<defs>
  <clipPath id="clip930">
    <rect x="0" y="0" width="2400" height="1600"/>
  </clipPath>
</defs>
<path clip-path="url(#clip930)" d="
M0 1600 L2400 1600 L2400 0 L0 0  Z
  " fill="#ffffff" fill-rule="evenodd" fill-opacity="1"/>
<defs>
  <clipPath id="clip931">
    <rect x="480" y="0" width="1681" height="1600"/>
  </clipPath>
</defs>
<path clip-path="url(#clip930)" d="
M162.455 1486.45 L2352.76 1486.45 L2352.76 47.2441 L162.455 47.2441  Z
  " fill="#ffffff" fill-rule="evenodd" fill-opacity="1"/>
<defs>
  <clipPath id="clip932">
    <rect x="162" y="47" width="2191" height="1440"/>
  </clipPath>
</defs>
<polyline clip-path="url(#clip932)" style="stroke:#000000; stroke-width:2; stroke-opacity:0.1; fill:none" points="
  224.444,1486.45 224.444,47.2441 
  "/>
<polyline clip-path="url(#clip932)" style="stroke:#000000; stroke-width:2; stroke-opacity:0.1; fill:none" points="
  741.025,1486.45 741.025,47.2441 
  "/>
<polyline clip-path="url(#clip932)" style="stroke:#000000; stroke-width:2; stroke-opacity:0.1; fill:none" points="
  1257.61,1486.45 1257.61,47.2441 
  "/>
<polyline clip-path="url(#clip932)" style="stroke:#000000; stroke-width:2; stroke-opacity:0.1; fill:none" points="
  1774.19,1486.45 1774.19,47.2441 
  "/>
<polyline clip-path="url(#clip932)" style="stroke:#000000; stroke-width:2; stroke-opacity:0.1; fill:none" points="
  2290.77,1486.45 2290.77,47.2441 
  "/>
<polyline clip-path="url(#clip932)" style="stroke:#000000; stroke-width:2; stroke-opacity:0.1; fill:none" points="
  162.455,1445.72 2352.76,1445.72 
  "/>
<polyline clip-path="url(#clip932)" style="stroke:#000000; stroke-width:2; stroke-opacity:0.1; fill:none" points="
  162.455,1106.28 2352.76,1106.28 
  "/>
<polyline clip-path="url(#clip932)" style="stroke:#000000; stroke-width:2; stroke-opacity:0.1; fill:none" points="
  162.455,766.846 2352.76,766.846 
  "/>
<polyline clip-path="url(#clip932)" style="stroke:#000000; stroke-width:2; stroke-opacity:0.1; fill:none" points="
  162.455,427.411 2352.76,427.411 
  "/>
<polyline clip-path="url(#clip932)" style="stroke:#000000; stroke-width:2; stroke-opacity:0.1; fill:none" points="
  162.455,87.9763 2352.76,87.9763 
  "/>
<polyline clip-path="url(#clip930)" style="stroke:#000000; stroke-width:4; stroke-opacity:1; fill:none" points="
  162.455,1486.45 2352.76,1486.45 
  "/>
<polyline clip-path="url(#clip930)" style="stroke:#000000; stroke-width:4; stroke-opacity:1; fill:none" points="
  162.455,1486.45 162.455,47.2441 
  "/>
<polyline clip-path="url(#clip930)" style="stroke:#000000; stroke-width:4; stroke-opacity:1; fill:none" points="
  224.444,1486.45 224.444,1469.18 
  "/>
<polyline clip-path="url(#clip930)" style="stroke:#000000; stroke-width:4; stroke-opacity:1; fill:none" points="
  741.025,1486.45 741.025,1469.18 
  "/>
<polyline clip-path="url(#clip930)" style="stroke:#000000; stroke-width:4; stroke-opacity:1; fill:none" points="
  1257.61,1486.45 1257.61,1469.18 
  "/>
<polyline clip-path="url(#clip930)" style="stroke:#000000; stroke-width:4; stroke-opacity:1; fill:none" points="
  1774.19,1486.45 1774.19,1469.18 
  "/>
<polyline clip-path="url(#clip930)" style="stroke:#000000; stroke-width:4; stroke-opacity:1; fill:none" points="
  2290.77,1486.45 2290.77,1469.18 
  "/>
<polyline clip-path="url(#clip930)" style="stroke:#000000; stroke-width:4; stroke-opacity:1; fill:none" points="
  162.455,1445.72 188.738,1445.72 
  "/>
<polyline clip-path="url(#clip930)" style="stroke:#000000; stroke-width:4; stroke-opacity:1; fill:none" points="
  162.455,1106.28 188.738,1106.28 
  "/>
<polyline clip-path="url(#clip930)" style="stroke:#000000; stroke-width:4; stroke-opacity:1; fill:none" points="
  162.455,766.846 188.738,766.846 
  "/>
<polyline clip-path="url(#clip930)" style="stroke:#000000; stroke-width:4; stroke-opacity:1; fill:none" points="
  162.455,427.411 188.738,427.411 
  "/>
<polyline clip-path="url(#clip930)" style="stroke:#000000; stroke-width:4; stroke-opacity:1; fill:none" points="
  162.455,87.9763 188.738,87.9763 
  "/>
<path clip-path="url(#clip930)" d="M 0 0 M186.829 1525.04 L199.306 1525.04 L199.306 1528.83 L186.829 1528.83 L186.829 1525.04 Z" fill="#000000" fill-rule="evenodd" fill-opacity="1" /><path clip-path="url(#clip930)" d="M 0 0 M205.185 1535.98 L212.824 1535.98 L212.824 1509.62 L204.514 1511.29 L204.514 1507.03 L212.778 1505.36 L217.454 1505.36 L217.454 1535.98 L225.092 1535.98 L225.092 1539.92 L205.185 1539.92 L205.185 1535.98 Z" fill="#000000" fill-rule="evenodd" fill-opacity="1" /><path clip-path="url(#clip930)" d="M 0 0 M230.162 1534.04 L235.046 1534.04 L235.046 1539.92 L230.162 1539.92 L230.162 1534.04 Z" fill="#000000" fill-rule="evenodd" fill-opacity="1" /><path clip-path="url(#clip930)" d="M 0 0 M250.116 1508.44 Q246.504 1508.44 244.676 1512 Q242.87 1515.55 242.87 1522.67 Q242.87 1529.78 244.676 1533.35 Q246.504 1536.89 250.116 1536.89 Q253.75 1536.89 255.555 1533.35 Q257.384 1529.78 257.384 1522.67 Q257.384 1515.55 255.555 1512 Q253.75 1508.44 250.116 1508.44 M250.116 1504.73 Q255.926 1504.73 258.981 1509.34 Q262.06 1513.92 262.06 1522.67 Q262.06 1531.4 258.981 1536.01 Q255.926 1540.59 250.116 1540.59 Q244.305 1540.59 241.227 1536.01 Q238.171 1531.4 238.171 1522.67 Q238.171 1513.92 241.227 1509.34 Q244.305 1504.73 250.116 1504.73 Z" fill="#000000" fill-rule="evenodd" fill-opacity="1" /><path clip-path="url(#clip930)" d="M 0 0 M703.294 1525.04 L715.77 1525.04 L715.77 1528.83 L703.294 1528.83 L703.294 1525.04 Z" fill="#000000" fill-rule="evenodd" fill-opacity="1" /><path clip-path="url(#clip930)" d="M 0 0 M730.84 1508.44 Q727.229 1508.44 725.4 1512 Q723.594 1515.55 723.594 1522.67 Q723.594 1529.78 725.4 1533.35 Q727.229 1536.89 730.84 1536.89 Q734.474 1536.89 736.279 1533.35 Q738.108 1529.78 738.108 1522.67 Q738.108 1515.55 736.279 1512 Q734.474 1508.44 730.84 1508.44 M730.84 1504.73 Q736.65 1504.73 739.705 1509.34 Q742.784 1513.92 742.784 1522.67 Q742.784 1531.4 739.705 1536.01 Q736.65 1540.59 730.84 1540.59 Q725.03 1540.59 721.951 1536.01 Q718.895 1531.4 718.895 1522.67 Q718.895 1513.92 721.951 1509.34 Q725.03 1504.73 730.84 1504.73 Z" fill="#000000" fill-rule="evenodd" fill-opacity="1" /><path clip-path="url(#clip930)" d="M 0 0 M747.853 1534.04 L752.738 1534.04 L752.738 1539.92 L747.853 1539.92 L747.853 1534.04 Z" fill="#000000" fill-rule="evenodd" fill-opacity="1" /><path clip-path="url(#clip930)" d="M 0 0 M757.853 1505.36 L776.21 1505.36 L776.21 1509.3 L762.136 1509.3 L762.136 1517.77 Q763.154 1517.42 764.173 1517.26 Q765.191 1517.07 766.21 1517.07 Q771.997 1517.07 775.376 1520.24 Q778.756 1523.42 778.756 1528.83 Q778.756 1534.41 775.284 1537.51 Q771.812 1540.59 765.492 1540.59 Q763.316 1540.59 761.048 1540.22 Q758.803 1539.85 756.395 1539.11 L756.395 1534.41 Q758.478 1535.54 760.701 1536.1 Q762.923 1536.66 765.4 1536.66 Q769.404 1536.66 771.742 1534.55 Q774.08 1532.44 774.08 1528.83 Q774.08 1525.22 771.742 1523.11 Q769.404 1521.01 765.4 1521.01 Q763.525 1521.01 761.65 1521.42 Q759.798 1521.84 757.853 1522.72 L757.853 1505.36 Z" fill="#000000" fill-rule="evenodd" fill-opacity="1" /><path clip-path="url(#clip930)" d="M 0 0 M1239.12 1508.44 Q1235.51 1508.44 1233.68 1512 Q1231.88 1515.55 1231.88 1522.67 Q1231.88 1529.78 1233.68 1533.35 Q1235.51 1536.89 1239.12 1536.89 Q1242.76 1536.89 1244.56 1533.35 Q1246.39 1529.78 1246.39 1522.67 Q1246.39 1515.55 1244.56 1512 Q1242.76 1508.44 1239.12 1508.44 M1239.12 1504.73 Q1244.93 1504.73 1247.99 1509.34 Q1251.07 1513.92 1251.07 1522.67 Q1251.07 1531.4 1247.99 1536.01 Q1244.93 1540.59 1239.12 1540.59 Q1233.31 1540.59 1230.23 1536.01 Q1227.18 1531.4 1227.18 1522.67 Q1227.18 1513.92 1230.23 1509.34 Q1233.31 1504.73 1239.12 1504.73 Z" fill="#000000" fill-rule="evenodd" fill-opacity="1" /><path clip-path="url(#clip930)" d="M 0 0 M1256.14 1534.04 L1261.02 1534.04 L1261.02 1539.92 L1256.14 1539.92 L1256.14 1534.04 Z" fill="#000000" fill-rule="evenodd" fill-opacity="1" /><path clip-path="url(#clip930)" d="M 0 0 M1276.09 1508.44 Q1272.48 1508.44 1270.65 1512 Q1268.84 1515.55 1268.84 1522.67 Q1268.84 1529.78 1270.65 1533.35 Q1272.48 1536.89 1276.09 1536.89 Q1279.72 1536.89 1281.53 1533.35 Q1283.36 1529.78 1283.36 1522.67 Q1283.36 1515.55 1281.53 1512 Q1279.72 1508.44 1276.09 1508.44 M1276.09 1504.73 Q1281.9 1504.73 1284.95 1509.34 Q1288.03 1513.92 1288.03 1522.67 Q1288.03 1531.4 1284.95 1536.01 Q1281.9 1540.59 1276.09 1540.59 Q1270.28 1540.59 1267.2 1536.01 Q1264.14 1531.4 1264.14 1522.67 Q1264.14 1513.92 1267.2 1509.34 Q1270.28 1504.73 1276.09 1504.73 Z" fill="#000000" fill-rule="evenodd" fill-opacity="1" /><path clip-path="url(#clip930)" d="M 0 0 M1756.2 1508.44 Q1752.59 1508.44 1750.76 1512 Q1748.95 1515.55 1748.95 1522.67 Q1748.95 1529.78 1750.76 1533.35 Q1752.59 1536.89 1756.2 1536.89 Q1759.83 1536.89 1761.64 1533.35 Q1763.47 1529.78 1763.47 1522.67 Q1763.47 1515.55 1761.64 1512 Q1759.83 1508.44 1756.2 1508.44 M1756.2 1504.73 Q1762.01 1504.73 1765.07 1509.34 Q1768.14 1513.92 1768.14 1522.67 Q1768.14 1531.4 1765.07 1536.01 Q1762.01 1540.59 1756.2 1540.59 Q1750.39 1540.59 1747.31 1536.01 Q1744.26 1531.4 1744.26 1522.67 Q1744.26 1513.92 1747.31 1509.34 Q1750.39 1504.73 1756.2 1504.73 Z" fill="#000000" fill-rule="evenodd" fill-opacity="1" /><path clip-path="url(#clip930)" d="M 0 0 M1773.21 1534.04 L1778.1 1534.04 L1778.1 1539.92 L1773.21 1539.92 L1773.21 1534.04 Z" fill="#000000" fill-rule="evenodd" fill-opacity="1" /><path clip-path="url(#clip930)" d="M 0 0 M1783.21 1505.36 L1801.57 1505.36 L1801.57 1509.3 L1787.5 1509.3 L1787.5 1517.77 Q1788.51 1517.42 1789.53 1517.26 Q1790.55 1517.07 1791.57 1517.07 Q1797.36 1517.07 1800.74 1520.24 Q1804.12 1523.42 1804.12 1528.83 Q1804.12 1534.41 1800.64 1537.51 Q1797.17 1540.59 1790.85 1540.59 Q1788.68 1540.59 1786.41 1540.22 Q1784.16 1539.85 1781.76 1539.11 L1781.76 1534.41 Q1783.84 1535.54 1786.06 1536.1 Q1788.28 1536.66 1790.76 1536.66 Q1794.76 1536.66 1797.1 1534.55 Q1799.44 1532.44 1799.44 1528.83 Q1799.44 1525.22 1797.1 1523.11 Q1794.76 1521.01 1790.76 1521.01 Q1788.88 1521.01 1787.01 1521.42 Q1785.16 1521.84 1783.21 1522.72 L1783.21 1505.36 Z" fill="#000000" fill-rule="evenodd" fill-opacity="1" /><path clip-path="url(#clip930)" d="M 0 0 M2262.66 1535.98 L2270.3 1535.98 L2270.3 1509.62 L2261.99 1511.29 L2261.99 1507.03 L2270.26 1505.36 L2274.93 1505.36 L2274.93 1535.98 L2282.57 1535.98 L2282.57 1539.92 L2262.66 1539.92 L2262.66 1535.98 Z" fill="#000000" fill-rule="evenodd" fill-opacity="1" /><path clip-path="url(#clip930)" d="M 0 0 M2287.64 1534.04 L2292.53 1534.04 L2292.53 1539.92 L2287.64 1539.92 L2287.64 1534.04 Z" fill="#000000" fill-rule="evenodd" fill-opacity="1" /><path clip-path="url(#clip930)" d="M 0 0 M2307.59 1508.44 Q2303.98 1508.44 2302.16 1512 Q2300.35 1515.55 2300.35 1522.67 Q2300.35 1529.78 2302.16 1533.35 Q2303.98 1536.89 2307.59 1536.89 Q2311.23 1536.89 2313.03 1533.35 Q2314.86 1529.78 2314.86 1522.67 Q2314.86 1515.55 2313.03 1512 Q2311.23 1508.44 2307.59 1508.44 M2307.59 1504.73 Q2313.41 1504.73 2316.46 1509.34 Q2319.54 1513.92 2319.54 1522.67 Q2319.54 1531.4 2316.46 1536.01 Q2313.41 1540.59 2307.59 1540.59 Q2301.78 1540.59 2298.71 1536.01 Q2295.65 1531.4 2295.65 1522.67 Q2295.65 1513.92 2298.71 1509.34 Q2301.78 1504.73 2307.59 1504.73 Z" fill="#000000" fill-rule="evenodd" fill-opacity="1" /><path clip-path="url(#clip930)" d="M 0 0 M63.2236 1448.11 L75.7004 1448.11 L75.7004 1451.91 L63.2236 1451.91 L63.2236 1448.11 Z" fill="#000000" fill-rule="evenodd" fill-opacity="1" /><path clip-path="url(#clip930)" d="M 0 0 M81.58 1459.06 L89.2188 1459.06 L89.2188 1432.69 L80.9087 1434.36 L80.9087 1430.1 L89.1725 1428.44 L93.8484 1428.44 L93.8484 1459.06 L101.487 1459.06 L101.487 1463 L81.58 1463 L81.58 1459.06 Z" fill="#000000" fill-rule="evenodd" fill-opacity="1" /><path clip-path="url(#clip930)" d="M 0 0 M106.557 1457.12 L111.441 1457.12 L111.441 1463 L106.557 1463 L106.557 1457.12 Z" fill="#000000" fill-rule="evenodd" fill-opacity="1" /><path clip-path="url(#clip930)" d="M 0 0 M126.51 1431.51 Q122.899 1431.51 121.071 1435.08 Q119.265 1438.62 119.265 1445.75 Q119.265 1452.86 121.071 1456.42 Q122.899 1459.96 126.51 1459.96 Q130.145 1459.96 131.95 1456.42 Q133.779 1452.86 133.779 1445.75 Q133.779 1438.62 131.95 1435.08 Q130.145 1431.51 126.51 1431.51 M126.51 1427.81 Q132.32 1427.81 135.376 1432.42 Q138.455 1437 138.455 1445.75 Q138.455 1454.48 135.376 1459.08 Q132.32 1463.67 126.51 1463.67 Q120.7 1463.67 117.621 1459.08 Q114.566 1454.48 114.566 1445.75 Q114.566 1437 117.621 1432.42 Q120.7 1427.81 126.51 1427.81 Z" fill="#000000" fill-rule="evenodd" fill-opacity="1" /><path clip-path="url(#clip930)" d="M 0 0 M62.9921 1108.68 L75.4689 1108.68 L75.4689 1112.47 L62.9921 1112.47 L62.9921 1108.68 Z" fill="#000000" fill-rule="evenodd" fill-opacity="1" /><path clip-path="url(#clip930)" d="M 0 0 M90.5383 1092.08 Q86.9272 1092.08 85.0985 1095.64 Q83.2929 1099.19 83.2929 1106.32 Q83.2929 1113.42 85.0985 1116.99 Q86.9272 1120.53 90.5383 1120.53 Q94.1725 1120.53 95.9781 1116.99 Q97.8068 1113.42 97.8068 1106.32 Q97.8068 1099.19 95.9781 1095.64 Q94.1725 1092.08 90.5383 1092.08 M90.5383 1088.38 Q96.3484 1088.38 99.404 1092.98 Q102.483 1097.57 102.483 1106.32 Q102.483 1115.04 99.404 1119.65 Q96.3484 1124.23 90.5383 1124.23 Q84.7281 1124.23 81.6494 1119.65 Q78.5939 1115.04 78.5939 1106.32 Q78.5939 1097.57 81.6494 1092.98 Q84.7281 1088.38 90.5383 1088.38 Z" fill="#000000" fill-rule="evenodd" fill-opacity="1" /><path clip-path="url(#clip930)" d="M 0 0 M107.552 1117.68 L112.436 1117.68 L112.436 1123.56 L107.552 1123.56 L107.552 1117.68 Z" fill="#000000" fill-rule="evenodd" fill-opacity="1" /><path clip-path="url(#clip930)" d="M 0 0 M117.552 1089 L135.908 1089 L135.908 1092.94 L121.834 1092.94 L121.834 1101.41 Q122.853 1101.06 123.871 1100.9 Q124.89 1100.71 125.908 1100.71 Q131.695 1100.71 135.075 1103.89 Q138.455 1107.06 138.455 1112.47 Q138.455 1118.05 134.982 1121.15 Q131.51 1124.23 125.191 1124.23 Q123.015 1124.23 120.746 1123.86 Q118.501 1123.49 116.094 1122.75 L116.094 1118.05 Q118.177 1119.19 120.399 1119.74 Q122.621 1120.3 125.098 1120.3 Q129.103 1120.3 131.441 1118.19 Q133.779 1116.08 133.779 1112.47 Q133.779 1108.86 131.441 1106.76 Q129.103 1104.65 125.098 1104.65 Q123.223 1104.65 121.348 1105.07 Q119.496 1105.48 117.552 1106.36 L117.552 1089 Z" fill="#000000" fill-rule="evenodd" fill-opacity="1" /><path clip-path="url(#clip930)" d="M 0 0 M89.5429 752.645 Q85.9318 752.645 84.1031 756.209 Q82.2976 759.751 82.2976 766.881 Q82.2976 773.987 84.1031 777.552 Q85.9318 781.094 89.5429 781.094 Q93.1771 781.094 94.9827 777.552 Q96.8114 773.987 96.8114 766.881 Q96.8114 759.751 94.9827 756.209 Q93.1771 752.645 89.5429 752.645 M89.5429 748.941 Q95.3531 748.941 98.4086 753.547 Q101.487 758.131 101.487 766.881 Q101.487 775.608 98.4086 780.214 Q95.3531 784.797 89.5429 784.797 Q83.7328 784.797 80.6541 780.214 Q77.5985 775.608 77.5985 766.881 Q77.5985 758.131 80.6541 753.547 Q83.7328 748.941 89.5429 748.941 Z" fill="#000000" fill-rule="evenodd" fill-opacity="1" /><path clip-path="url(#clip930)" d="M 0 0 M106.557 778.246 L111.441 778.246 L111.441 784.126 L106.557 784.126 L106.557 778.246 Z" fill="#000000" fill-rule="evenodd" fill-opacity="1" /><path clip-path="url(#clip930)" d="M 0 0 M126.51 752.645 Q122.899 752.645 121.071 756.209 Q119.265 759.751 119.265 766.881 Q119.265 773.987 121.071 777.552 Q122.899 781.094 126.51 781.094 Q130.145 781.094 131.95 777.552 Q133.779 773.987 133.779 766.881 Q133.779 759.751 131.95 756.209 Q130.145 752.645 126.51 752.645 M126.51 748.941 Q132.32 748.941 135.376 753.547 Q138.455 758.131 138.455 766.881 Q138.455 775.608 135.376 780.214 Q132.32 784.797 126.51 784.797 Q120.7 784.797 117.621 780.214 Q114.566 775.608 114.566 766.881 Q114.566 758.131 117.621 753.547 Q120.7 748.941 126.51 748.941 Z" fill="#000000" fill-rule="evenodd" fill-opacity="1" /><path clip-path="url(#clip930)" d="M 0 0 M90.5383 413.21 Q86.9272 413.21 85.0985 416.775 Q83.2929 420.316 83.2929 427.446 Q83.2929 434.552 85.0985 438.117 Q86.9272 441.659 90.5383 441.659 Q94.1725 441.659 95.9781 438.117 Q97.8068 434.552 97.8068 427.446 Q97.8068 420.316 95.9781 416.775 Q94.1725 413.21 90.5383 413.21 M90.5383 409.506 Q96.3484 409.506 99.404 414.113 Q102.483 418.696 102.483 427.446 Q102.483 436.173 99.404 440.779 Q96.3484 445.362 90.5383 445.362 Q84.7281 445.362 81.6494 440.779 Q78.5939 436.173 78.5939 427.446 Q78.5939 418.696 81.6494 414.113 Q84.7281 409.506 90.5383 409.506 Z" fill="#000000" fill-rule="evenodd" fill-opacity="1" /><path clip-path="url(#clip930)" d="M 0 0 M107.552 438.812 L112.436 438.812 L112.436 444.691 L107.552 444.691 L107.552 438.812 Z" fill="#000000" fill-rule="evenodd" fill-opacity="1" /><path clip-path="url(#clip930)" d="M 0 0 M117.552 410.131 L135.908 410.131 L135.908 414.066 L121.834 414.066 L121.834 422.538 Q122.853 422.191 123.871 422.029 Q124.89 421.844 125.908 421.844 Q131.695 421.844 135.075 425.015 Q138.455 428.187 138.455 433.603 Q138.455 439.182 134.982 442.284 Q131.51 445.362 125.191 445.362 Q123.015 445.362 120.746 444.992 Q118.501 444.622 116.094 443.881 L116.094 439.182 Q118.177 440.316 120.399 440.872 Q122.621 441.427 125.098 441.427 Q129.103 441.427 131.441 439.321 Q133.779 437.214 133.779 433.603 Q133.779 429.992 131.441 427.886 Q129.103 425.779 125.098 425.779 Q123.223 425.779 121.348 426.196 Q119.496 426.613 117.552 427.492 L117.552 410.131 Z" fill="#000000" fill-rule="evenodd" fill-opacity="1" /><path clip-path="url(#clip930)" d="M 0 0 M81.58 101.321 L89.2188 101.321 L89.2188 74.9555 L80.9087 76.6222 L80.9087 72.3629 L89.1725 70.6963 L93.8484 70.6963 L93.8484 101.321 L101.487 101.321 L101.487 105.256 L81.58 105.256 L81.58 101.321 Z" fill="#000000" fill-rule="evenodd" fill-opacity="1" /><path clip-path="url(#clip930)" d="M 0 0 M106.557 99.3767 L111.441 99.3767 L111.441 105.256 L106.557 105.256 L106.557 99.3767 Z" fill="#000000" fill-rule="evenodd" fill-opacity="1" /><path clip-path="url(#clip930)" d="M 0 0 M126.51 73.775 Q122.899 73.775 121.071 77.3398 Q119.265 80.8814 119.265 88.011 Q119.265 95.1174 121.071 98.6822 Q122.899 102.224 126.51 102.224 Q130.145 102.224 131.95 98.6822 Q133.779 95.1174 133.779 88.011 Q133.779 80.8814 131.95 77.3398 Q130.145 73.775 126.51 73.775 M126.51 70.0713 Q132.32 70.0713 135.376 74.6777 Q138.455 79.261 138.455 88.011 Q138.455 96.7378 135.376 101.344 Q132.32 105.928 126.51 105.928 Q120.7 105.928 117.621 101.344 Q114.566 96.7378 114.566 88.011 Q114.566 79.261 117.621 74.6777 Q120.7 70.0713 126.51 70.0713 Z" fill="#000000" fill-rule="evenodd" fill-opacity="1" /><polyline clip-path="url(#clip932)" style="stroke:#4063d8; stroke-width:20; stroke-opacity:1; fill:none" points="
  224.444,1445.72 245.108,1432.14 265.771,1418.56 286.434,1404.98 307.097,1391.41 327.76,1377.83 348.424,1364.25 369.087,1350.67 389.75,1337.1 410.413,1323.52 
  431.077,1309.94 451.74,1296.36 472.403,1282.79 493.066,1269.21 513.729,1255.63 534.393,1242.05 555.056,1228.48 575.719,1214.9 596.382,1201.32 617.046,1187.75 
  637.709,1174.17 658.372,1160.59 679.035,1147.01 699.698,1133.44 720.362,1119.86 741.025,1106.28 761.688,1092.7 782.351,1079.13 803.014,1065.55 823.678,1051.97 
  844.341,1038.39 865.004,1024.82 885.667,1011.24 906.331,997.662 926.994,984.084 947.657,970.507 968.32,956.93 988.983,943.352 1009.65,929.775 1030.31,916.197 
  1050.97,902.62 1071.64,889.043 1092.3,875.465 1112.96,861.888 1133.63,848.31 1154.29,834.733 1174.95,821.156 1195.62,807.578 1216.28,794.001 1236.94,780.423 
  1257.61,766.846 1278.27,753.269 1298.93,739.691 1319.59,726.114 1340.26,712.536 1360.92,698.959 1381.58,685.382 1402.25,671.804 1422.91,658.227 1443.57,644.649 
  1464.24,631.072 1484.9,617.495 1505.56,603.917 1526.23,590.34 1546.89,576.762 1567.55,563.185 1588.22,549.608 1608.88,536.03 1629.54,522.453 1650.21,508.875 
  1670.87,495.298 1691.53,481.721 1712.2,468.143 1732.86,454.566 1753.52,440.989 1774.19,427.411 1794.85,413.834 1815.51,400.256 1836.18,386.679 1856.84,373.102 
  1877.5,359.524 1898.17,345.947 1918.83,332.369 1939.49,318.792 1960.15,305.215 1980.82,291.637 2001.48,278.06 2022.14,264.482 2042.81,250.905 2063.47,237.328 
  2084.13,223.75 2104.8,210.173 2125.46,196.595 2146.12,183.018 2166.79,169.441 2187.45,155.863 2208.11,142.286 2228.78,128.708 2249.44,115.131 2270.1,101.554 
  2290.77,87.9763 
  "/>
<polyline clip-path="url(#clip932)" style="stroke:#389826; stroke-width:20; stroke-opacity:1; fill:none" points="
  224.444,87.9763 245.108,141.743 265.771,194.423 286.434,246.017 307.097,296.525 327.76,345.947 348.424,394.282 369.087,441.532 389.75,487.695 410.413,532.772 
  431.077,576.762 451.74,619.667 472.403,661.485 493.066,702.218 513.729,741.864 534.393,780.423 555.056,817.897 575.719,854.284 596.382,889.586 617.046,923.801 
  637.709,956.93 658.372,988.972 679.035,1019.93 699.698,1049.8 720.362,1078.58 741.025,1106.28 761.688,1132.89 782.351,1158.42 803.014,1182.86 823.678,1206.21 
  844.341,1228.48 865.004,1249.66 885.667,1269.75 906.331,1288.76 926.994,1306.68 947.657,1323.52 968.32,1339.27 988.983,1353.93 1009.65,1367.51 1030.31,1380 
  1050.97,1391.41 1071.64,1401.72 1092.3,1410.96 1112.96,1419.1 1133.63,1426.16 1154.29,1432.14 1174.95,1437.03 1195.62,1440.83 1216.28,1443.54 1236.94,1445.17 
  1257.61,1445.72 1278.27,1445.17 1298.93,1443.54 1319.59,1440.83 1340.26,1437.03 1360.92,1432.14 1381.58,1426.16 1402.25,1419.1 1422.91,1410.96 1443.57,1401.72 
  1464.24,1391.41 1484.9,1380 1505.56,1367.51 1526.23,1353.93 1546.89,1339.27 1567.55,1323.52 1588.22,1306.68 1608.88,1288.76 1629.54,1269.75 1650.21,1249.66 
  1670.87,1228.48 1691.53,1206.21 1712.2,1182.86 1732.86,1158.42 1753.52,1132.89 1774.19,1106.28 1794.85,1078.58 1815.51,1049.8 1836.18,1019.93 1856.84,988.972 
  1877.5,956.93 1898.17,923.801 1918.83,889.586 1939.49,854.284 1960.15,817.897 1980.82,780.423 2001.48,741.864 2022.14,702.218 2042.81,661.485 2063.47,619.667 
  2084.13,576.762 2104.8,532.772 2125.46,487.695 2146.12,441.532 2166.79,394.282 2187.45,345.947 2208.11,296.525 2228.78,246.017 2249.44,194.423 2270.1,141.743 
  2290.77,87.9763 
  "/>
<polyline clip-path="url(#clip932)" style="stroke:#cb3c33; stroke-width:20; stroke-opacity:1; fill:none" points="
  224.444,1445.72 245.108,1326.76 265.771,1214.18 286.434,1107.87 307.097,1007.68 327.76,913.482 348.424,825.153 369.087,742.559 389.75,665.569 410.413,594.055 
  431.077,527.884 451.74,466.927 472.403,411.053 493.066,360.132 513.729,314.034 534.393,272.629 555.056,235.785 575.719,203.373 596.382,175.263 617.046,151.323 
  637.709,131.424 658.372,115.435 679.035,103.226 699.698,94.6672 720.362,89.6273 741.025,87.9763 761.688,89.5838 782.351,94.3196 803.014,102.053 823.678,112.655 
  844.341,125.993 865.004,141.938 885.667,160.36 906.331,181.128 926.994,204.112 947.657,229.181 968.32,256.206 988.983,285.055 1009.65,315.599 1030.31,347.706 
  1050.97,381.248 1071.64,416.093 1092.3,452.111 1112.96,489.172 1133.63,527.145 1154.29,565.901 1174.95,605.308 1195.62,645.236 1216.28,685.555 1236.94,726.136 
  1257.61,766.846 1278.27,807.556 1298.93,848.137 1319.59,888.456 1340.26,928.384 1360.92,967.791 1381.58,1006.55 1402.25,1044.52 1422.91,1081.58 1443.57,1117.6 
  1464.24,1152.44 1484.9,1185.99 1505.56,1218.09 1526.23,1248.64 1546.89,1277.49 1567.55,1304.51 1588.22,1329.58 1608.88,1352.56 1629.54,1373.33 1650.21,1391.75 
  1670.87,1407.7 1691.53,1421.04 1712.2,1431.64 1732.86,1439.37 1753.52,1444.11 1774.19,1445.72 1794.85,1444.06 1815.51,1439.02 1836.18,1430.47 1856.84,1418.26 
  1877.5,1402.27 1898.17,1382.37 1918.83,1358.43 1939.49,1330.32 1960.15,1297.91 1980.82,1261.06 2001.48,1219.66 2022.14,1173.56 2042.81,1122.64 2063.47,1066.77 
  2084.13,1005.81 2104.8,939.637 2125.46,868.122 2146.12,791.133 2166.79,708.539 2187.45,620.21 2208.11,526.016 2228.78,425.825 2249.44,319.509 2270.1,206.936 
  2290.77,87.9763 
  "/>
<polyline clip-path="url(#clip932)" style="stroke:#9558b2; stroke-width:20; stroke-opacity:1; fill:none" points="
  224.444,87.9763 245.108,294.526 265.771,480.382 286.434,646.556 307.097,794.039 327.76,923.801 348.424,1036.79 369.087,1133.93 389.75,1216.14 410.413,1284.3 
  431.077,1339.27 451.74,1381.9 472.403,1413.01 493.066,1433.41 513.729,1443.88 534.393,1445.17 555.056,1438.04 575.719,1423.19 596.382,1401.33 617.046,1373.14 
  637.709,1339.27 658.372,1300.36 679.035,1257.02 699.698,1209.85 720.362,1159.42 741.025,1106.28 761.688,1050.97 782.351,993.998 803.014,935.852 823.678,877.002 
  844.341,817.897 865.004,758.964 885.667,700.609 906.331,643.219 926.994,587.159 947.657,532.772 968.32,480.382 988.983,430.291 1009.65,382.781 1030.31,338.112 
  1050.97,296.525 1071.64,258.238 1092.3,223.45 1112.96,192.337 1133.63,165.056 1154.29,141.743 1174.95,122.512 1195.62,107.457 1216.28,96.6519 1236.94,90.1478 
  1257.61,87.9763 1278.27,90.1478 1298.93,96.6519 1319.59,107.457 1340.26,122.512 1360.92,141.743 1381.58,165.056 1402.25,192.337 1422.91,223.45 1443.57,258.238 
  1464.24,296.525 1484.9,338.112 1505.56,382.781 1526.23,430.291 1546.89,480.382 1567.55,532.772 1588.22,587.159 1608.88,643.219 1629.54,700.609 1650.21,758.964 
  1670.87,817.897 1691.53,877.002 1712.2,935.852 1732.86,993.998 1753.52,1050.97 1774.19,1106.28 1794.85,1159.42 1815.51,1209.85 1836.18,1257.02 1856.84,1300.36 
  1877.5,1339.27 1898.17,1373.14 1918.83,1401.33 1939.49,1423.19 1960.15,1438.04 1980.82,1445.17 2001.48,1443.88 2022.14,1433.41 2042.81,1413.01 2063.47,1381.9 
  2084.13,1339.27 2104.8,1284.3 2125.46,1216.14 2146.12,1133.93 2166.79,1036.79 2187.45,923.801 2208.11,794.039 2228.78,646.556 2249.44,480.382 2270.1,294.526 
  2290.77,87.9763 
  "/>
</svg>
