<?xml version="1.0" encoding="utf-8"?>
<svg xmlns="http://www.w3.org/2000/svg" xmlns:xlink="http://www.w3.org/1999/xlink" width="600" height="400" viewBox="0 0 2400 1600">
<defs>
  <clipPath id="clip860">
    <rect x="0" y="0" width="2400" height="1600"/>
  </clipPath>
</defs>
<path clip-path="url(#clip860)" d="
M0 1600 L2400 1600 L2400 0 L0 0  Z
  " fill="#ffffff" fill-rule="evenodd" fill-opacity="1"/>
<defs>
  <clipPath id="clip861">
    <rect x="480" y="0" width="1681" height="1600"/>
  </clipPath>
</defs>
<path clip-path="url(#clip860)" d="
M186.274 1486.45 L2352.76 1486.45 L2352.76 47.2441 L186.274 47.2441  Z
  " fill="#ffffff" fill-rule="evenodd" fill-opacity="1"/>
<defs>
  <clipPath id="clip862">
    <rect x="186" y="47" width="2167" height="1440"/>
  </clipPath>
</defs>
<polyline clip-path="url(#clip862)" style="stroke:#000000; stroke-linecap:butt; stroke-linejoin:round; stroke-width:2; stroke-opacity:0.1; fill:none" points="
  247.59,1486.45 247.59,47.2441 
  "/>
<polyline clip-path="url(#clip862)" style="stroke:#000000; stroke-linecap:butt; stroke-linejoin:round; stroke-width:2; stroke-opacity:0.1; fill:none" points="
  758.552,1486.45 758.552,47.2441 
  "/>
<polyline clip-path="url(#clip862)" style="stroke:#000000; stroke-linecap:butt; stroke-linejoin:round; stroke-width:2; stroke-opacity:0.1; fill:none" points="
  1269.51,1486.45 1269.51,47.2441 
  "/>
<polyline clip-path="url(#clip862)" style="stroke:#000000; stroke-linecap:butt; stroke-linejoin:round; stroke-width:2; stroke-opacity:0.1; fill:none" points="
  1780.48,1486.45 1780.48,47.2441 
  "/>
<polyline clip-path="url(#clip862)" style="stroke:#000000; stroke-linecap:butt; stroke-linejoin:round; stroke-width:2; stroke-opacity:0.1; fill:none" points="
  2291.44,1486.45 2291.44,47.2441 
  "/>
<polyline clip-path="url(#clip860)" style="stroke:#000000; stroke-linecap:butt; stroke-linejoin:round; stroke-width:4; stroke-opacity:1; fill:none" points="
  186.274,1486.45 2352.76,1486.45 
  "/>
<polyline clip-path="url(#clip860)" style="stroke:#000000; stroke-linecap:butt; stroke-linejoin:round; stroke-width:4; stroke-opacity:1; fill:none" points="
  247.59,1486.45 247.59,1467.55 
  "/>
<polyline clip-path="url(#clip860)" style="stroke:#000000; stroke-linecap:butt; stroke-linejoin:round; stroke-width:4; stroke-opacity:1; fill:none" points="
  758.552,1486.45 758.552,1467.55 
  "/>
<polyline clip-path="url(#clip860)" style="stroke:#000000; stroke-linecap:butt; stroke-linejoin:round; stroke-width:4; stroke-opacity:1; fill:none" points="
  1269.51,1486.45 1269.51,1467.55 
  "/>
<polyline clip-path="url(#clip860)" style="stroke:#000000; stroke-linecap:butt; stroke-linejoin:round; stroke-width:4; stroke-opacity:1; fill:none" points="
  1780.48,1486.45 1780.48,1467.55 
  "/>
<polyline clip-path="url(#clip860)" style="stroke:#000000; stroke-linecap:butt; stroke-linejoin:round; stroke-width:4; stroke-opacity:1; fill:none" points="
  2291.44,1486.45 2291.44,1467.55 
  "/>
<path clip-path="url(#clip860)" d="M224.974 1517.37 Q221.363 1517.37 219.534 1520.93 Q217.729 1524.47 217.729 1531.6 Q217.729 1538.71 219.534 1542.27 Q221.363 1545.82 224.974 1545.82 Q228.608 1545.82 230.414 1542.27 Q232.242 1538.71 232.242 1531.6 Q232.242 1524.47 230.414 1520.93 Q228.608 1517.37 224.974 1517.37 M224.974 1513.66 Q230.784 1513.66 233.84 1518.27 Q236.918 1522.85 236.918 1531.6 Q236.918 1540.33 233.84 1544.94 Q230.784 1549.52 224.974 1549.52 Q219.164 1549.52 216.085 1544.94 Q213.03 1540.33 213.03 1531.6 Q213.03 1522.85 216.085 1518.27 Q219.164 1513.66 224.974 1513.66 Z" fill="#000000" fill-rule="evenodd" fill-opacity="1" /><path clip-path="url(#clip860)" d="M245.136 1542.97 L250.02 1542.97 L250.02 1548.85 L245.136 1548.85 L245.136 1542.97 Z" fill="#000000" fill-rule="evenodd" fill-opacity="1" /><path clip-path="url(#clip860)" d="M270.205 1517.37 Q266.594 1517.37 264.765 1520.93 Q262.96 1524.47 262.96 1531.6 Q262.96 1538.71 264.765 1542.27 Q266.594 1545.82 270.205 1545.82 Q273.839 1545.82 275.645 1542.27 Q277.474 1538.71 277.474 1531.6 Q277.474 1524.47 275.645 1520.93 Q273.839 1517.37 270.205 1517.37 M270.205 1513.66 Q276.015 1513.66 279.071 1518.27 Q282.15 1522.85 282.15 1531.6 Q282.15 1540.33 279.071 1544.94 Q276.015 1549.52 270.205 1549.52 Q264.395 1549.52 261.316 1544.94 Q258.261 1540.33 258.261 1531.6 Q258.261 1522.85 261.316 1518.27 Q264.395 1513.66 270.205 1513.66 Z" fill="#000000" fill-rule="evenodd" fill-opacity="1" /><path clip-path="url(#clip860)" d="M730.289 1544.91 L746.608 1544.91 L746.608 1548.85 L724.664 1548.85 L724.664 1544.91 Q727.326 1542.16 731.909 1537.53 Q736.515 1532.88 737.696 1531.53 Q739.941 1529.01 740.821 1527.27 Q741.724 1525.51 741.724 1523.82 Q741.724 1521.07 739.779 1519.33 Q737.858 1517.6 734.756 1517.6 Q732.557 1517.6 730.103 1518.36 Q727.673 1519.13 724.895 1520.68 L724.895 1515.95 Q727.719 1514.82 730.173 1514.24 Q732.626 1513.66 734.663 1513.66 Q740.034 1513.66 743.228 1516.35 Q746.423 1519.03 746.423 1523.52 Q746.423 1525.65 745.612 1527.57 Q744.825 1529.47 742.719 1532.07 Q742.14 1532.74 739.038 1535.95 Q735.937 1539.15 730.289 1544.91 Z" fill="#000000" fill-rule="evenodd" fill-opacity="1" /><path clip-path="url(#clip860)" d="M756.423 1542.97 L761.307 1542.97 L761.307 1548.85 L756.423 1548.85 L756.423 1542.97 Z" fill="#000000" fill-rule="evenodd" fill-opacity="1" /><path clip-path="url(#clip860)" d="M771.538 1514.29 L789.895 1514.29 L789.895 1518.22 L775.821 1518.22 L775.821 1526.7 Q776.839 1526.35 777.858 1526.19 Q778.876 1526 779.895 1526 Q785.682 1526 789.061 1529.17 Q792.441 1532.34 792.441 1537.76 Q792.441 1543.34 788.969 1546.44 Q785.497 1549.52 779.177 1549.52 Q777.001 1549.52 774.733 1549.15 Q772.487 1548.78 770.08 1548.04 L770.08 1543.34 Q772.163 1544.47 774.385 1545.03 Q776.608 1545.58 779.085 1545.58 Q783.089 1545.58 785.427 1543.48 Q787.765 1541.37 787.765 1537.76 Q787.765 1534.15 785.427 1532.04 Q783.089 1529.94 779.085 1529.94 Q777.21 1529.94 775.335 1530.35 Q773.483 1530.77 771.538 1531.65 L771.538 1514.29 Z" fill="#000000" fill-rule="evenodd" fill-opacity="1" /><path clip-path="url(#clip860)" d="M1236.68 1514.29 L1255.04 1514.29 L1255.04 1518.22 L1240.96 1518.22 L1240.96 1526.7 Q1241.98 1526.35 1243 1526.19 Q1244.02 1526 1245.04 1526 Q1250.82 1526 1254.2 1529.17 Q1257.58 1532.34 1257.58 1537.76 Q1257.58 1543.34 1254.11 1546.44 Q1250.64 1549.52 1244.32 1549.52 Q1242.14 1549.52 1239.87 1549.15 Q1237.63 1548.78 1235.22 1548.04 L1235.22 1543.34 Q1237.3 1544.47 1239.53 1545.03 Q1241.75 1545.58 1244.23 1545.58 Q1248.23 1545.58 1250.57 1543.48 Q1252.91 1541.37 1252.91 1537.76 Q1252.91 1534.15 1250.57 1532.04 Q1248.23 1529.94 1244.23 1529.94 Q1242.35 1529.94 1240.48 1530.35 Q1238.62 1530.77 1236.68 1531.65 L1236.68 1514.29 Z" fill="#000000" fill-rule="evenodd" fill-opacity="1" /><path clip-path="url(#clip860)" d="M1266.8 1542.97 L1271.68 1542.97 L1271.68 1548.85 L1266.8 1548.85 L1266.8 1542.97 Z" fill="#000000" fill-rule="evenodd" fill-opacity="1" /><path clip-path="url(#clip860)" d="M1291.86 1517.37 Q1288.25 1517.37 1286.42 1520.93 Q1284.62 1524.47 1284.62 1531.6 Q1284.62 1538.71 1286.42 1542.27 Q1288.25 1545.82 1291.86 1545.82 Q1295.5 1545.82 1297.3 1542.27 Q1299.13 1538.71 1299.13 1531.6 Q1299.13 1524.47 1297.3 1520.93 Q1295.5 1517.37 1291.86 1517.37 M1291.86 1513.66 Q1297.67 1513.66 1300.73 1518.27 Q1303.81 1522.85 1303.81 1531.6 Q1303.81 1540.33 1300.73 1544.94 Q1297.67 1549.52 1291.86 1549.52 Q1286.05 1549.52 1282.98 1544.94 Q1279.92 1540.33 1279.92 1531.6 Q1279.92 1522.85 1282.98 1518.27 Q1286.05 1513.66 1291.86 1513.66 Z" fill="#000000" fill-rule="evenodd" fill-opacity="1" /><path clip-path="url(#clip860)" d="M1746.8 1514.29 L1769.02 1514.29 L1769.02 1516.28 L1756.47 1548.85 L1751.59 1548.85 L1763.39 1518.22 L1746.8 1518.22 L1746.8 1514.29 Z" fill="#000000" fill-rule="evenodd" fill-opacity="1" /><path clip-path="url(#clip860)" d="M1778.14 1542.97 L1783.02 1542.97 L1783.02 1548.85 L1778.14 1548.85 L1778.14 1542.97 Z" fill="#000000" fill-rule="evenodd" fill-opacity="1" /><path clip-path="url(#clip860)" d="M1793.26 1514.29 L1811.61 1514.29 L1811.61 1518.22 L1797.54 1518.22 L1797.54 1526.7 Q1798.56 1526.35 1799.57 1526.19 Q1800.59 1526 1801.61 1526 Q1807.4 1526 1810.78 1529.17 Q1814.16 1532.34 1814.16 1537.76 Q1814.16 1543.34 1810.69 1546.44 Q1807.21 1549.52 1800.89 1549.52 Q1798.72 1549.52 1796.45 1549.15 Q1794.2 1548.78 1791.8 1548.04 L1791.8 1543.34 Q1793.88 1544.47 1796.1 1545.03 Q1798.32 1545.58 1800.8 1545.58 Q1804.81 1545.58 1807.14 1543.48 Q1809.48 1541.37 1809.48 1537.76 Q1809.48 1534.15 1807.14 1532.04 Q1804.81 1529.94 1800.8 1529.94 Q1798.93 1529.94 1797.05 1530.35 Q1795.2 1530.77 1793.26 1531.65 L1793.26 1514.29 Z" fill="#000000" fill-rule="evenodd" fill-opacity="1" /><path clip-path="url(#clip860)" d="M2243.51 1544.91 L2251.15 1544.91 L2251.15 1518.55 L2242.84 1520.21 L2242.84 1515.95 L2251.1 1514.29 L2255.78 1514.29 L2255.78 1544.91 L2263.42 1544.91 L2263.42 1548.85 L2243.51 1548.85 L2243.51 1544.91 Z" fill="#000000" fill-rule="evenodd" fill-opacity="1" /><path clip-path="url(#clip860)" d="M2282.86 1517.37 Q2279.25 1517.37 2277.42 1520.93 Q2275.62 1524.47 2275.62 1531.6 Q2275.62 1538.71 2277.42 1542.27 Q2279.25 1545.82 2282.86 1545.82 Q2286.5 1545.82 2288.3 1542.27 Q2290.13 1538.71 2290.13 1531.6 Q2290.13 1524.47 2288.3 1520.93 Q2286.5 1517.37 2282.86 1517.37 M2282.86 1513.66 Q2288.67 1513.66 2291.73 1518.27 Q2294.81 1522.85 2294.81 1531.6 Q2294.81 1540.33 2291.73 1544.94 Q2288.67 1549.52 2282.86 1549.52 Q2277.05 1549.52 2273.98 1544.94 Q2270.92 1540.33 2270.92 1531.6 Q2270.92 1522.85 2273.98 1518.27 Q2277.05 1513.66 2282.86 1513.66 Z" fill="#000000" fill-rule="evenodd" fill-opacity="1" /><path clip-path="url(#clip860)" d="M2303.03 1542.97 L2307.91 1542.97 L2307.91 1548.85 L2303.03 1548.85 L2303.03 1542.97 Z" fill="#000000" fill-rule="evenodd" fill-opacity="1" /><path clip-path="url(#clip860)" d="M2328.1 1517.37 Q2324.48 1517.37 2322.66 1520.93 Q2320.85 1524.47 2320.85 1531.6 Q2320.85 1538.71 2322.66 1542.27 Q2324.48 1545.82 2328.1 1545.82 Q2331.73 1545.82 2333.54 1542.27 Q2335.36 1538.71 2335.36 1531.6 Q2335.36 1524.47 2333.54 1520.93 Q2331.73 1517.37 2328.1 1517.37 M2328.1 1513.66 Q2333.91 1513.66 2336.96 1518.27 Q2340.04 1522.85 2340.04 1531.6 Q2340.04 1540.33 2336.96 1544.94 Q2333.91 1549.52 2328.1 1549.52 Q2322.29 1549.52 2319.21 1544.94 Q2316.15 1540.33 2316.15 1531.6 Q2316.15 1522.85 2319.21 1518.27 Q2322.29 1513.66 2328.1 1513.66 Z" fill="#000000" fill-rule="evenodd" fill-opacity="1" /><polyline clip-path="url(#clip862)" style="stroke:#000000; stroke-linecap:butt; stroke-linejoin:round; stroke-width:2; stroke-opacity:0.1; fill:none" points="
  186.274,1317.25 2352.76,1317.25 
  "/>
<polyline clip-path="url(#clip862)" style="stroke:#000000; stroke-linecap:butt; stroke-linejoin:round; stroke-width:2; stroke-opacity:0.1; fill:none" points="
  186.274,1009.93 2352.76,1009.93 
  "/>
<polyline clip-path="url(#clip862)" style="stroke:#000000; stroke-linecap:butt; stroke-linejoin:round; stroke-width:2; stroke-opacity:0.1; fill:none" points="
  186.274,702.613 2352.76,702.613 
  "/>
<polyline clip-path="url(#clip862)" style="stroke:#000000; stroke-linecap:butt; stroke-linejoin:round; stroke-width:2; stroke-opacity:0.1; fill:none" points="
  186.274,395.295 2352.76,395.295 
  "/>
<polyline clip-path="url(#clip862)" style="stroke:#000000; stroke-linecap:butt; stroke-linejoin:round; stroke-width:2; stroke-opacity:0.1; fill:none" points="
  186.274,87.9763 2352.76,87.9763 
  "/>
<polyline clip-path="url(#clip860)" style="stroke:#000000; stroke-linecap:butt; stroke-linejoin:round; stroke-width:4; stroke-opacity:1; fill:none" points="
  186.274,1486.45 186.274,47.2441 
  "/>
<polyline clip-path="url(#clip860)" style="stroke:#000000; stroke-linecap:butt; stroke-linejoin:round; stroke-width:4; stroke-opacity:1; fill:none" points="
  186.274,1317.25 205.172,1317.25 
  "/>
<polyline clip-path="url(#clip860)" style="stroke:#000000; stroke-linecap:butt; stroke-linejoin:round; stroke-width:4; stroke-opacity:1; fill:none" points="
  186.274,1009.93 205.172,1009.93 
  "/>
<polyline clip-path="url(#clip860)" style="stroke:#000000; stroke-linecap:butt; stroke-linejoin:round; stroke-width:4; stroke-opacity:1; fill:none" points="
  186.274,702.613 205.172,702.613 
  "/>
<polyline clip-path="url(#clip860)" style="stroke:#000000; stroke-linecap:butt; stroke-linejoin:round; stroke-width:4; stroke-opacity:1; fill:none" points="
  186.274,395.295 205.172,395.295 
  "/>
<polyline clip-path="url(#clip860)" style="stroke:#000000; stroke-linecap:butt; stroke-linejoin:round; stroke-width:4; stroke-opacity:1; fill:none" points="
  186.274,87.9763 205.172,87.9763 
  "/>
<path clip-path="url(#clip860)" d="M62.9365 1303.05 Q59.3254 1303.05 57.4967 1306.61 Q55.6912 1310.15 55.6912 1317.28 Q55.6912 1324.39 57.4967 1327.96 Q59.3254 1331.5 62.9365 1331.5 Q66.5707 1331.5 68.3763 1327.96 Q70.205 1324.39 70.205 1317.28 Q70.205 1310.15 68.3763 1306.61 Q66.5707 1303.05 62.9365 1303.05 M62.9365 1299.34 Q68.7467 1299.34 71.8022 1303.95 Q74.8809 1308.53 74.8809 1317.28 Q74.8809 1326.01 71.8022 1330.62 Q68.7467 1335.2 62.9365 1335.2 Q57.1264 1335.2 54.0477 1330.62 Q50.9921 1326.01 50.9921 1317.28 Q50.9921 1308.53 54.0477 1303.95 Q57.1264 1299.34 62.9365 1299.34 Z" fill="#000000" fill-rule="evenodd" fill-opacity="1" /><path clip-path="url(#clip860)" d="M83.0984 1328.65 L87.9827 1328.65 L87.9827 1334.53 L83.0984 1334.53 L83.0984 1328.65 Z" fill="#000000" fill-rule="evenodd" fill-opacity="1" /><path clip-path="url(#clip860)" d="M108.168 1303.05 Q104.557 1303.05 102.728 1306.61 Q100.922 1310.15 100.922 1317.28 Q100.922 1324.39 102.728 1327.96 Q104.557 1331.5 108.168 1331.5 Q111.802 1331.5 113.608 1327.96 Q115.436 1324.39 115.436 1317.28 Q115.436 1310.15 113.608 1306.61 Q111.802 1303.05 108.168 1303.05 M108.168 1299.34 Q113.978 1299.34 117.033 1303.95 Q120.112 1308.53 120.112 1317.28 Q120.112 1326.01 117.033 1330.62 Q113.978 1335.2 108.168 1335.2 Q102.358 1335.2 99.2789 1330.62 Q96.2234 1326.01 96.2234 1317.28 Q96.2234 1308.53 99.2789 1303.95 Q102.358 1299.34 108.168 1299.34 Z" fill="#000000" fill-rule="evenodd" fill-opacity="1" /><path clip-path="url(#clip860)" d="M138.33 1303.05 Q134.719 1303.05 132.89 1306.61 Q131.084 1310.15 131.084 1317.28 Q131.084 1324.39 132.89 1327.96 Q134.719 1331.5 138.33 1331.5 Q141.964 1331.5 143.769 1327.96 Q145.598 1324.39 145.598 1317.28 Q145.598 1310.15 143.769 1306.61 Q141.964 1303.05 138.33 1303.05 M138.33 1299.34 Q144.14 1299.34 147.195 1303.95 Q150.274 1308.53 150.274 1317.28 Q150.274 1326.01 147.195 1330.62 Q144.14 1335.2 138.33 1335.2 Q132.519 1335.2 129.441 1330.62 Q126.385 1326.01 126.385 1317.28 Q126.385 1308.53 129.441 1303.95 Q132.519 1299.34 138.33 1299.34 Z" fill="#000000" fill-rule="evenodd" fill-opacity="1" /><path clip-path="url(#clip860)" d="M63.9319 995.73 Q60.3208 995.73 58.4921 999.295 Q56.6865 1002.84 56.6865 1009.97 Q56.6865 1017.07 58.4921 1020.64 Q60.3208 1024.18 63.9319 1024.18 Q67.5661 1024.18 69.3717 1020.64 Q71.2004 1017.07 71.2004 1009.97 Q71.2004 1002.84 69.3717 999.295 Q67.5661 995.73 63.9319 995.73 M63.9319 992.026 Q69.742 992.026 72.7976 996.633 Q75.8763 1001.22 75.8763 1009.97 Q75.8763 1018.69 72.7976 1023.3 Q69.742 1027.88 63.9319 1027.88 Q58.1217 1027.88 55.043 1023.3 Q51.9875 1018.69 51.9875 1009.97 Q51.9875 1001.22 55.043 996.633 Q58.1217 992.026 63.9319 992.026 Z" fill="#000000" fill-rule="evenodd" fill-opacity="1" /><path clip-path="url(#clip860)" d="M84.0938 1021.33 L88.978 1021.33 L88.978 1027.21 L84.0938 1027.21 L84.0938 1021.33 Z" fill="#000000" fill-rule="evenodd" fill-opacity="1" /><path clip-path="url(#clip860)" d="M103.191 1023.28 L119.51 1023.28 L119.51 1027.21 L97.566 1027.21 L97.566 1023.28 Q100.228 1020.52 104.811 1015.89 Q109.418 1011.24 110.598 1009.9 Q112.844 1007.37 113.723 1005.64 Q114.626 1003.88 114.626 1002.19 Q114.626 999.434 112.682 997.698 Q110.76 995.962 107.658 995.962 Q105.459 995.962 103.006 996.725 Q100.575 997.489 97.7974 999.04 L97.7974 994.318 Q100.621 993.184 103.075 992.605 Q105.529 992.026 107.566 992.026 Q112.936 992.026 116.131 994.712 Q119.325 997.397 119.325 1001.89 Q119.325 1004.02 118.515 1005.94 Q117.728 1007.84 115.621 1010.43 Q115.043 1011.1 111.941 1014.32 Q108.839 1017.51 103.191 1023.28 Z" fill="#000000" fill-rule="evenodd" fill-opacity="1" /><path clip-path="url(#clip860)" d="M129.371 992.651 L147.728 992.651 L147.728 996.587 L133.654 996.587 L133.654 1005.06 Q134.672 1004.71 135.691 1004.55 Q136.709 1004.36 137.728 1004.36 Q143.515 1004.36 146.894 1007.54 Q150.274 1010.71 150.274 1016.12 Q150.274 1021.7 146.802 1024.8 Q143.33 1027.88 137.01 1027.88 Q134.834 1027.88 132.566 1027.51 Q130.32 1027.14 127.913 1026.4 L127.913 1021.7 Q129.996 1022.84 132.219 1023.39 Q134.441 1023.95 136.918 1023.95 Q140.922 1023.95 143.26 1021.84 Q145.598 1019.73 145.598 1016.12 Q145.598 1012.51 143.26 1010.41 Q140.922 1008.3 136.918 1008.3 Q135.043 1008.3 133.168 1008.72 Q131.316 1009.13 129.371 1010.01 L129.371 992.651 Z" fill="#000000" fill-rule="evenodd" fill-opacity="1" /><path clip-path="url(#clip860)" d="M62.9365 688.412 Q59.3254 688.412 57.4967 691.976 Q55.6912 695.518 55.6912 702.648 Q55.6912 709.754 57.4967 713.319 Q59.3254 716.861 62.9365 716.861 Q66.5707 716.861 68.3763 713.319 Q70.205 709.754 70.205 702.648 Q70.205 695.518 68.3763 691.976 Q66.5707 688.412 62.9365 688.412 M62.9365 684.708 Q68.7467 684.708 71.8022 689.314 Q74.8809 693.898 74.8809 702.648 Q74.8809 711.375 71.8022 715.981 Q68.7467 720.564 62.9365 720.564 Q57.1264 720.564 54.0477 715.981 Q50.9921 711.375 50.9921 702.648 Q50.9921 693.898 54.0477 689.314 Q57.1264 684.708 62.9365 684.708 Z" fill="#000000" fill-rule="evenodd" fill-opacity="1" /><path clip-path="url(#clip860)" d="M83.0984 714.013 L87.9827 714.013 L87.9827 719.893 L83.0984 719.893 L83.0984 714.013 Z" fill="#000000" fill-rule="evenodd" fill-opacity="1" /><path clip-path="url(#clip860)" d="M98.2141 685.333 L116.57 685.333 L116.57 689.268 L102.496 689.268 L102.496 697.74 Q103.515 697.393 104.534 697.231 Q105.552 697.046 106.571 697.046 Q112.358 697.046 115.737 700.217 Q119.117 703.388 119.117 708.805 Q119.117 714.384 115.645 717.486 Q112.172 720.564 105.853 720.564 Q103.677 720.564 101.409 720.194 Q99.1632 719.824 96.7558 719.083 L96.7558 714.384 Q98.8391 715.518 101.061 716.074 Q103.284 716.629 105.76 716.629 Q109.765 716.629 112.103 714.523 Q114.441 712.416 114.441 708.805 Q114.441 705.194 112.103 703.088 Q109.765 700.981 105.76 700.981 Q103.885 700.981 102.01 701.398 Q100.159 701.814 98.2141 702.694 L98.2141 685.333 Z" fill="#000000" fill-rule="evenodd" fill-opacity="1" /><path clip-path="url(#clip860)" d="M138.33 688.412 Q134.719 688.412 132.89 691.976 Q131.084 695.518 131.084 702.648 Q131.084 709.754 132.89 713.319 Q134.719 716.861 138.33 716.861 Q141.964 716.861 143.769 713.319 Q145.598 709.754 145.598 702.648 Q145.598 695.518 143.769 691.976 Q141.964 688.412 138.33 688.412 M138.33 684.708 Q144.14 684.708 147.195 689.314 Q150.274 693.898 150.274 702.648 Q150.274 711.375 147.195 715.981 Q144.14 720.564 138.33 720.564 Q132.519 720.564 129.441 715.981 Q126.385 711.375 126.385 702.648 Q126.385 693.898 129.441 689.314 Q132.519 684.708 138.33 684.708 Z" fill="#000000" fill-rule="evenodd" fill-opacity="1" /><path clip-path="url(#clip860)" d="M63.9319 381.093 Q60.3208 381.093 58.4921 384.658 Q56.6865 388.2 56.6865 395.329 Q56.6865 402.436 58.4921 406.001 Q60.3208 409.542 63.9319 409.542 Q67.5661 409.542 69.3717 406.001 Q71.2004 402.436 71.2004 395.329 Q71.2004 388.2 69.3717 384.658 Q67.5661 381.093 63.9319 381.093 M63.9319 377.39 Q69.742 377.39 72.7976 381.996 Q75.8763 386.579 75.8763 395.329 Q75.8763 404.056 72.7976 408.663 Q69.742 413.246 63.9319 413.246 Q58.1217 413.246 55.043 408.663 Q51.9875 404.056 51.9875 395.329 Q51.9875 386.579 55.043 381.996 Q58.1217 377.39 63.9319 377.39 Z" fill="#000000" fill-rule="evenodd" fill-opacity="1" /><path clip-path="url(#clip860)" d="M84.0938 406.695 L88.978 406.695 L88.978 412.575 L84.0938 412.575 L84.0938 406.695 Z" fill="#000000" fill-rule="evenodd" fill-opacity="1" /><path clip-path="url(#clip860)" d="M97.9826 378.015 L120.205 378.015 L120.205 380.005 L107.658 412.575 L102.774 412.575 L114.58 381.95 L97.9826 381.95 L97.9826 378.015 Z" fill="#000000" fill-rule="evenodd" fill-opacity="1" /><path clip-path="url(#clip860)" d="M129.371 378.015 L147.728 378.015 L147.728 381.95 L133.654 381.95 L133.654 390.422 Q134.672 390.075 135.691 389.913 Q136.709 389.728 137.728 389.728 Q143.515 389.728 146.894 392.899 Q150.274 396.07 150.274 401.487 Q150.274 407.065 146.802 410.167 Q143.33 413.246 137.01 413.246 Q134.834 413.246 132.566 412.876 Q130.32 412.505 127.913 411.764 L127.913 407.065 Q129.996 408.2 132.219 408.755 Q134.441 409.311 136.918 409.311 Q140.922 409.311 143.26 407.204 Q145.598 405.098 145.598 401.487 Q145.598 397.876 143.26 395.769 Q140.922 393.663 136.918 393.663 Q135.043 393.663 133.168 394.079 Q131.316 394.496 129.371 395.376 L129.371 378.015 Z" fill="#000000" fill-rule="evenodd" fill-opacity="1" /><path clip-path="url(#clip860)" d="M53.7467 101.321 L61.3856 101.321 L61.3856 74.9555 L53.0754 76.6222 L53.0754 72.3629 L61.3393 70.6963 L66.0152 70.6963 L66.0152 101.321 L73.654 101.321 L73.654 105.256 L53.7467 105.256 L53.7467 101.321 Z" fill="#000000" fill-rule="evenodd" fill-opacity="1" /><path clip-path="url(#clip860)" d="M83.0984 99.3767 L87.9827 99.3767 L87.9827 105.256 L83.0984 105.256 L83.0984 99.3767 Z" fill="#000000" fill-rule="evenodd" fill-opacity="1" /><path clip-path="url(#clip860)" d="M108.168 73.775 Q104.557 73.775 102.728 77.3398 Q100.922 80.8814 100.922 88.011 Q100.922 95.1174 102.728 98.6822 Q104.557 102.224 108.168 102.224 Q111.802 102.224 113.608 98.6822 Q115.436 95.1174 115.436 88.011 Q115.436 80.8814 113.608 77.3398 Q111.802 73.775 108.168 73.775 M108.168 70.0713 Q113.978 70.0713 117.033 74.6777 Q120.112 79.261 120.112 88.011 Q120.112 96.7378 117.033 101.344 Q113.978 105.928 108.168 105.928 Q102.358 105.928 99.2789 101.344 Q96.2234 96.7378 96.2234 88.011 Q96.2234 79.261 99.2789 74.6777 Q102.358 70.0713 108.168 70.0713 Z" fill="#000000" fill-rule="evenodd" fill-opacity="1" /><path clip-path="url(#clip860)" d="M138.33 73.775 Q134.719 73.775 132.89 77.3398 Q131.084 80.8814 131.084 88.011 Q131.084 95.1174 132.89 98.6822 Q134.719 102.224 138.33 102.224 Q141.964 102.224 143.769 98.6822 Q145.598 95.1174 145.598 88.011 Q145.598 80.8814 143.769 77.3398 Q141.964 73.775 138.33 73.775 M138.33 70.0713 Q144.14 70.0713 147.195 74.6777 Q150.274 79.261 150.274 88.011 Q150.274 96.7378 147.195 101.344 Q144.14 105.928 138.33 105.928 Q132.519 105.928 129.441 101.344 Q126.385 96.7378 126.385 88.011 Q126.385 79.261 129.441 74.6777 Q132.519 70.0713 138.33 70.0713 Z" fill="#000000" fill-rule="evenodd" fill-opacity="1" /><circle clip-path="url(#clip862)" cx="247.59" cy="87.9763" r="14" fill="#009af9" fill-rule="evenodd" fill-opacity="1" stroke="#000000" stroke-opacity="1" stroke-width="0"/>
<circle clip-path="url(#clip862)" cx="474.684" cy="912.582" r="14" fill="#009af9" fill-rule="evenodd" fill-opacity="1" stroke="#000000" stroke-opacity="1" stroke-width="0"/>
<circle clip-path="url(#clip862)" cx="701.779" cy="1184.04" r="14" fill="#009af9" fill-rule="evenodd" fill-opacity="1" stroke="#000000" stroke-opacity="1" stroke-width="0"/>
<circle clip-path="url(#clip862)" cx="928.873" cy="1273.4" r="14" fill="#009af9" fill-rule="evenodd" fill-opacity="1" stroke="#000000" stroke-opacity="1" stroke-width="0"/>
<circle clip-path="url(#clip862)" cx="1155.97" cy="1302.81" r="14" fill="#009af9" fill-rule="evenodd" fill-opacity="1" stroke="#000000" stroke-opacity="1" stroke-width="0"/>
<circle clip-path="url(#clip862)" cx="1383.06" cy="1312.5" r="14" fill="#009af9" fill-rule="evenodd" fill-opacity="1" stroke="#000000" stroke-opacity="1" stroke-width="0"/>
<circle clip-path="url(#clip862)" cx="1610.16" cy="1315.69" r="14" fill="#009af9" fill-rule="evenodd" fill-opacity="1" stroke="#000000" stroke-opacity="1" stroke-width="0"/>
<circle clip-path="url(#clip862)" cx="1837.25" cy="1316.73" r="14" fill="#009af9" fill-rule="evenodd" fill-opacity="1" stroke="#000000" stroke-opacity="1" stroke-width="0"/>
<circle clip-path="url(#clip862)" cx="2064.35" cy="1317.08" r="14" fill="#009af9" fill-rule="evenodd" fill-opacity="1" stroke="#000000" stroke-opacity="1" stroke-width="0"/>
<circle clip-path="url(#clip862)" cx="2291.44" cy="1317.19" r="14" fill="#009af9" fill-rule="evenodd" fill-opacity="1" stroke="#000000" stroke-opacity="1" stroke-width="0"/>
<polyline clip-path="url(#clip862)" style="stroke:#e26f46; stroke-linecap:butt; stroke-linejoin:round; stroke-width:4; stroke-opacity:1; fill:none" points="
  247.59,87.9763 268.028,204.552 288.467,310.199 308.905,405.911 329.344,492.598 349.782,571.091 370.221,642.147 390.659,706.46 411.098,764.658 431.536,817.317 
  451.975,864.957 472.413,908.054 492.852,947.039 513.29,982.302 533.729,1014.2 554.167,1043.05 574.606,1069.15 595.044,1092.76 615.483,1114.11 635.921,1133.44 
  656.36,1150.92 676.798,1166.73 697.237,1181.04 717.675,1194 738.114,1205.72 758.552,1216.32 778.991,1225.92 799.429,1234.61 819.868,1242.47 840.306,1249.59 
  860.745,1256.03 881.183,1261.86 901.622,1267.14 922.06,1271.91 942.499,1276.23 962.937,1280.14 983.376,1283.67 1003.81,1286.87 1024.25,1289.76 1044.69,1292.38 
  1065.13,1294.75 1085.57,1296.89 1106.01,1298.82 1126.45,1300.57 1146.88,1302.16 1167.32,1303.59 1187.76,1304.89 1208.2,1306.06 1228.64,1307.13 1249.08,1308.09 
  1269.51,1308.96 1289.95,1309.75 1310.39,1310.46 1330.83,1311.11 1351.27,1311.69 1371.71,1312.22 1392.15,1312.71 1412.58,1313.14 1433.02,1313.53 1453.46,1313.89 
  1473.9,1314.21 1494.34,1314.5 1514.78,1314.76 1535.22,1315 1555.65,1315.21 1576.09,1315.41 1596.53,1315.58 1616.97,1315.74 1637.41,1315.88 1657.85,1316 
  1678.29,1316.12 1698.72,1316.22 1719.16,1316.32 1739.6,1316.4 1760.04,1316.48 1780.48,1316.56 1800.92,1316.62 1821.35,1316.69 1841.79,1316.75 1862.23,1316.8 
  1882.67,1316.86 1903.11,1316.9 1923.55,1316.95 1943.99,1316.99 1964.42,1317.02 1984.86,1317.05 2005.3,1317.07 2025.74,1317.08 2046.18,1317.08 2066.62,1317.08 
  2087.06,1317.06 2107.49,1317.04 2127.93,1317.01 2148.37,1316.97 2168.81,1316.94 2189.25,1316.9 2209.69,1316.88 2230.12,1316.88 2250.56,1316.92 2271,1317.02 
  2291.44,1317.19 
  "/>
<polyline clip-path="url(#clip862)" style="stroke:#3da44d; stroke-linecap:butt; stroke-linejoin:round; stroke-width:4; stroke-opacity:1; fill:none" points="
  247.59,376.926 268.028,408.752 288.467,440.097 308.905,470.961 329.344,501.344 349.782,531.245 370.221,560.666 390.659,589.606 411.098,618.065 431.536,646.042 
  451.975,673.539 472.413,700.555 492.852,727.089 513.29,753.143 533.729,778.715 554.167,803.807 574.606,828.418 595.044,852.547 615.483,876.195 635.921,899.363 
  656.36,922.049 676.798,944.255 697.237,965.979 717.675,987.222 738.114,1007.98 758.552,1028.27 778.991,1048.07 799.429,1067.39 819.868,1086.22 840.306,1104.58 
  860.745,1122.46 881.183,1139.85 901.622,1156.77 922.06,1173.2 942.499,1189.15 962.937,1204.62 983.376,1219.61 1003.81,1234.12 1024.25,1248.15 1044.69,1261.7 
  1065.13,1274.76 1085.57,1287.35 1106.01,1299.45 1126.45,1311.07 1146.88,1322.22 1167.32,1332.88 1187.76,1343.06 1208.2,1352.76 1228.64,1361.97 1249.08,1370.71 
  1269.51,1378.97 1289.95,1386.74 1310.39,1394.03 1330.83,1400.85 1351.27,1407.18 1371.71,1413.03 1392.15,1418.4 1412.58,1423.29 1433.02,1427.69 1453.46,1431.62 
  1473.9,1435.07 1494.34,1438.03 1514.78,1440.51 1535.22,1442.52 1555.65,1444.04 1576.09,1445.08 1596.53,1445.64 1616.97,1445.72 1637.41,1445.31 1657.85,1444.43 
  1678.29,1443.06 1698.72,1441.22 1719.16,1438.89 1739.6,1436.08 1760.04,1432.79 1780.48,1429.03 1800.92,1424.77 1821.35,1420.04 1841.79,1414.83 1862.23,1409.14 
  1882.67,1402.96 1903.11,1396.3 1923.55,1389.17 1943.99,1381.55 1964.42,1373.45 1984.86,1364.87 2005.3,1355.81 2025.74,1346.27 2046.18,1336.24 2066.62,1325.74 
  2087.06,1314.75 2107.49,1303.29 2127.93,1291.34 2148.37,1278.91 2168.81,1266 2189.25,1252.61 2209.69,1238.74 2230.12,1224.39 2250.56,1209.55 2271,1194.24 
  2291.44,1178.44 
  "/>
<path clip-path="url(#clip860)" d="
M1740.1 302.578 L2280.54 302.578 L2280.54 95.2176 L1740.1 95.2176  Z
  " fill="#ffffff" fill-rule="evenodd" fill-opacity="1"/>
<polyline clip-path="url(#clip860)" style="stroke:#000000; stroke-linecap:butt; stroke-linejoin:round; stroke-width:4; stroke-opacity:1; fill:none" points="
  1740.1,302.578 2280.54,302.578 2280.54,95.2176 1740.1,95.2176 1740.1,302.578 
  "/>
<circle clip-path="url(#clip860)" cx="1836.39" cy="147.058" r="23" fill="#009af9" fill-rule="evenodd" fill-opacity="1" stroke="#000000" stroke-opacity="1" stroke-width="0"/>
<path clip-path="url(#clip860)" d="M1937.35 133.62 L1937.35 160.495 L1943 160.495 Q1950.15 160.495 1953.46 157.254 Q1956.8 154.014 1956.8 147.023 Q1956.8 140.078 1953.46 136.861 Q1950.15 133.62 1943 133.62 L1937.35 133.62 M1932.68 129.778 L1942.28 129.778 Q1952.33 129.778 1957.03 133.967 Q1961.73 138.134 1961.73 147.023 Q1961.73 155.958 1957 160.148 Q1952.28 164.338 1942.28 164.338 L1932.68 164.338 L1932.68 129.778 Z" fill="#000000" fill-rule="evenodd" fill-opacity="1" /><path clip-path="url(#clip860)" d="M1980.78 151.305 Q1975.61 151.305 1973.62 152.486 Q1971.63 153.666 1971.63 156.514 Q1971.63 158.782 1973.11 160.125 Q1974.62 161.444 1977.19 161.444 Q1980.73 161.444 1982.86 158.944 Q1985.01 156.421 1985.01 152.254 L1985.01 151.305 L1980.78 151.305 M1989.27 149.546 L1989.27 164.338 L1985.01 164.338 L1985.01 160.402 Q1983.55 162.763 1981.38 163.898 Q1979.2 165.009 1976.05 165.009 Q1972.07 165.009 1969.71 162.787 Q1967.37 160.541 1967.37 156.791 Q1967.37 152.416 1970.29 150.194 Q1973.23 147.972 1979.04 147.972 L1985.01 147.972 L1985.01 147.555 Q1985.01 144.615 1983.07 143.018 Q1981.15 141.398 1977.65 141.398 Q1975.43 141.398 1973.32 141.93 Q1971.22 142.463 1969.27 143.527 L1969.27 139.592 Q1971.61 138.69 1973.81 138.25 Q1976.01 137.787 1978.09 137.787 Q1983.72 137.787 1986.49 140.703 Q1989.27 143.62 1989.27 149.546 Z" fill="#000000" fill-rule="evenodd" fill-opacity="1" /><path clip-path="url(#clip860)" d="M2002.26 131.051 L2002.26 138.412 L2011.03 138.412 L2011.03 141.722 L2002.26 141.722 L2002.26 155.796 Q2002.26 158.967 2003.11 159.87 Q2003.99 160.773 2006.66 160.773 L2011.03 160.773 L2011.03 164.338 L2006.66 164.338 Q2001.73 164.338 1999.85 162.509 Q1997.98 160.657 1997.98 155.796 L1997.98 141.722 L1994.85 141.722 L1994.85 138.412 L1997.98 138.412 L1997.98 131.051 L2002.26 131.051 Z" fill="#000000" fill-rule="evenodd" fill-opacity="1" /><path clip-path="url(#clip860)" d="M2028.42 151.305 Q2023.25 151.305 2021.26 152.486 Q2019.27 153.666 2019.27 156.514 Q2019.27 158.782 2020.75 160.125 Q2022.26 161.444 2024.83 161.444 Q2028.37 161.444 2030.5 158.944 Q2032.65 156.421 2032.65 152.254 L2032.65 151.305 L2028.42 151.305 M2036.91 149.546 L2036.91 164.338 L2032.65 164.338 L2032.65 160.402 Q2031.19 162.763 2029.02 163.898 Q2026.84 165.009 2023.69 165.009 Q2019.71 165.009 2017.35 162.787 Q2015.01 160.541 2015.01 156.791 Q2015.01 152.416 2017.93 150.194 Q2020.87 147.972 2026.68 147.972 L2032.65 147.972 L2032.65 147.555 Q2032.65 144.615 2030.71 143.018 Q2028.79 141.398 2025.29 141.398 Q2023.07 141.398 2020.96 141.93 Q2018.86 142.463 2016.91 143.527 L2016.91 139.592 Q2019.25 138.69 2021.45 138.25 Q2023.65 137.787 2025.73 137.787 Q2031.36 137.787 2034.13 140.703 Q2036.91 143.62 2036.91 149.546 Z" fill="#000000" fill-rule="evenodd" fill-opacity="1" /><polyline clip-path="url(#clip860)" style="stroke:#e26f46; stroke-linecap:butt; stroke-linejoin:round; stroke-width:4; stroke-opacity:1; fill:none" points="
  1764.17,198.898 1908.6,198.898 
  "/>
<path clip-path="url(#clip860)" d="M1932.68 181.618 L1952.54 181.618 L1952.54 185.553 L1937.35 185.553 L1937.35 195.738 L1951.05 195.738 L1951.05 199.673 L1937.35 199.673 L1937.35 216.178 L1932.68 216.178 L1932.68 181.618 Z" fill="#000000" fill-rule="evenodd" fill-opacity="1" /><path clip-path="url(#clip860)" d="M1956.31 190.252 L1960.57 190.252 L1960.57 216.178 L1956.31 216.178 L1956.31 190.252 M1956.31 180.159 L1960.57 180.159 L1960.57 185.553 L1956.31 185.553 L1956.31 180.159 Z" fill="#000000" fill-rule="evenodd" fill-opacity="1" /><path clip-path="url(#clip860)" d="M1973.69 182.891 L1973.69 190.252 L1982.47 190.252 L1982.47 193.562 L1973.69 193.562 L1973.69 207.636 Q1973.69 210.807 1974.55 211.71 Q1975.43 212.613 1978.09 212.613 L1982.47 212.613 L1982.47 216.178 L1978.09 216.178 Q1973.16 216.178 1971.29 214.349 Q1969.41 212.497 1969.41 207.636 L1969.41 193.562 L1966.29 193.562 L1966.29 190.252 L1969.41 190.252 L1969.41 182.891 L1973.69 182.891 Z" fill="#000000" fill-rule="evenodd" fill-opacity="1" /><polyline clip-path="url(#clip860)" style="stroke:#3da44d; stroke-linecap:butt; stroke-linejoin:round; stroke-width:4; stroke-opacity:1; fill:none" points="
  1764.17,250.738 1908.6,250.738 
  "/>
<path clip-path="url(#clip860)" d="M1948.69 236.629 Q1943.6 236.629 1940.59 240.425 Q1937.61 244.221 1937.61 250.772 Q1937.61 257.3 1940.59 261.096 Q1943.6 264.893 1948.69 264.893 Q1953.79 264.893 1956.75 261.096 Q1959.74 257.3 1959.74 250.772 Q1959.74 244.221 1956.75 240.425 Q1953.79 236.629 1948.69 236.629 M1955.24 267.393 L1961.4 274.129 L1955.75 274.129 L1950.64 268.596 Q1949.87 268.643 1949.46 268.666 Q1949.06 268.689 1948.69 268.689 Q1941.4 268.689 1937.03 263.828 Q1932.68 258.944 1932.68 250.772 Q1932.68 242.578 1937.03 237.717 Q1941.4 232.833 1948.69 232.833 Q1955.96 232.833 1960.31 237.717 Q1964.67 242.578 1964.67 250.772 Q1964.67 256.791 1962.24 261.073 Q1959.83 265.356 1955.24 267.393 Z" fill="#000000" fill-rule="evenodd" fill-opacity="1" /><path clip-path="url(#clip860)" d="M1971.36 257.786 L1971.36 242.092 L1975.61 242.092 L1975.61 257.624 Q1975.61 261.305 1977.05 263.156 Q1978.49 264.985 1981.36 264.985 Q1984.8 264.985 1986.8 262.786 Q1988.81 260.587 1988.81 256.791 L1988.81 242.092 L1993.07 242.092 L1993.07 268.018 L1988.81 268.018 L1988.81 264.036 Q1987.26 266.397 1985.2 267.555 Q1983.16 268.689 1980.45 268.689 Q1975.99 268.689 1973.67 265.911 Q1971.36 263.133 1971.36 257.786 M1982.07 241.467 L1982.07 241.467 Z" fill="#000000" fill-rule="evenodd" fill-opacity="1" /><path clip-path="url(#clip860)" d="M2013.62 254.985 Q2008.46 254.985 2006.47 256.166 Q2004.48 257.346 2004.48 260.194 Q2004.48 262.462 2005.96 263.805 Q2007.47 265.124 2010.04 265.124 Q2013.58 265.124 2015.71 262.624 Q2017.86 260.101 2017.86 255.934 L2017.86 254.985 L2013.62 254.985 M2022.12 253.226 L2022.12 268.018 L2017.86 268.018 L2017.86 264.082 Q2016.4 266.443 2014.23 267.578 Q2012.05 268.689 2008.9 268.689 Q2004.92 268.689 2002.56 266.467 Q2000.22 264.221 2000.22 260.471 Q2000.22 256.096 2003.14 253.874 Q2006.08 251.652 2011.89 251.652 L2017.86 251.652 L2017.86 251.235 Q2017.86 248.295 2015.92 246.698 Q2013.99 245.078 2010.5 245.078 Q2008.28 245.078 2006.17 245.61 Q2004.06 246.143 2002.12 247.207 L2002.12 243.272 Q2004.46 242.37 2006.66 241.93 Q2008.86 241.467 2010.94 241.467 Q2016.56 241.467 2019.34 244.383 Q2022.12 247.3 2022.12 253.226 Z" fill="#000000" fill-rule="evenodd" fill-opacity="1" /><path clip-path="url(#clip860)" d="M2047.95 246.027 L2047.95 231.999 L2052.21 231.999 L2052.21 268.018 L2047.95 268.018 L2047.95 264.129 Q2046.61 266.443 2044.55 267.578 Q2042.51 268.689 2039.64 268.689 Q2034.94 268.689 2031.98 264.939 Q2029.04 261.189 2029.04 255.078 Q2029.04 248.967 2031.98 245.217 Q2034.94 241.467 2039.64 241.467 Q2042.51 241.467 2044.55 242.601 Q2046.61 243.712 2047.95 246.027 M2033.44 255.078 Q2033.44 259.777 2035.36 262.462 Q2037.3 265.124 2040.68 265.124 Q2044.06 265.124 2046.01 262.462 Q2047.95 259.777 2047.95 255.078 Q2047.95 250.379 2046.01 247.717 Q2044.06 245.032 2040.68 245.032 Q2037.3 245.032 2035.36 247.717 Q2033.44 250.379 2033.44 255.078 Z" fill="#000000" fill-rule="evenodd" fill-opacity="1" /><path clip-path="url(#clip860)" d="M2076.01 246.073 Q2075.29 245.657 2074.43 245.471 Q2073.6 245.263 2072.58 245.263 Q2068.97 245.263 2067.03 247.624 Q2065.11 249.962 2065.11 254.36 L2065.11 268.018 L2060.82 268.018 L2060.82 242.092 L2065.11 242.092 L2065.11 246.12 Q2066.45 243.758 2068.6 242.624 Q2070.75 241.467 2073.83 241.467 Q2074.27 241.467 2074.8 241.536 Q2075.34 241.583 2075.98 241.698 L2076.01 246.073 Z" fill="#000000" fill-rule="evenodd" fill-opacity="1" /><path clip-path="url(#clip860)" d="M2092.26 254.985 Q2087.1 254.985 2085.1 256.166 Q2083.11 257.346 2083.11 260.194 Q2083.11 262.462 2084.6 263.805 Q2086.1 265.124 2088.67 265.124 Q2092.21 265.124 2094.34 262.624 Q2096.49 260.101 2096.49 255.934 L2096.49 254.985 L2092.26 254.985 M2100.75 253.226 L2100.75 268.018 L2096.49 268.018 L2096.49 264.082 Q2095.04 266.443 2092.86 267.578 Q2090.68 268.689 2087.54 268.689 Q2083.55 268.689 2081.19 266.467 Q2078.85 264.221 2078.85 260.471 Q2078.85 256.096 2081.77 253.874 Q2084.71 251.652 2090.52 251.652 L2096.49 251.652 L2096.49 251.235 Q2096.49 248.295 2094.55 246.698 Q2092.63 245.078 2089.13 245.078 Q2086.91 245.078 2084.8 245.61 Q2082.7 246.143 2080.75 247.207 L2080.75 243.272 Q2083.09 242.37 2085.29 241.93 Q2087.49 241.467 2089.57 241.467 Q2095.2 241.467 2097.98 244.383 Q2100.75 247.3 2100.75 253.226 Z" fill="#000000" fill-rule="evenodd" fill-opacity="1" /><path clip-path="url(#clip860)" d="M2113.74 234.731 L2113.74 242.092 L2122.51 242.092 L2122.51 245.402 L2113.74 245.402 L2113.74 259.476 Q2113.74 262.647 2114.6 263.55 Q2115.48 264.453 2118.14 264.453 L2122.51 264.453 L2122.51 268.018 L2118.14 268.018 Q2113.21 268.018 2111.33 266.189 Q2109.46 264.337 2109.46 259.476 L2109.46 245.402 L2106.33 245.402 L2106.33 242.092 L2109.46 242.092 L2109.46 234.731 L2113.74 234.731 Z" fill="#000000" fill-rule="evenodd" fill-opacity="1" /><path clip-path="url(#clip860)" d="M2128.11 242.092 L2132.37 242.092 L2132.37 268.018 L2128.11 268.018 L2128.11 242.092 M2128.11 231.999 L2132.37 231.999 L2132.37 237.393 L2128.11 237.393 L2128.11 231.999 Z" fill="#000000" fill-rule="evenodd" fill-opacity="1" /><path clip-path="url(#clip860)" d="M2159.94 243.087 L2159.94 247.069 Q2158.14 246.073 2156.31 245.587 Q2154.5 245.078 2152.65 245.078 Q2148.51 245.078 2146.22 247.717 Q2143.92 250.332 2143.92 255.078 Q2143.92 259.823 2146.22 262.462 Q2148.51 265.078 2152.65 265.078 Q2154.5 265.078 2156.31 264.592 Q2158.14 264.082 2159.94 263.087 L2159.94 267.022 Q2158.16 267.856 2156.24 268.272 Q2154.34 268.689 2152.19 268.689 Q2146.33 268.689 2142.88 265.008 Q2139.43 261.328 2139.43 255.078 Q2139.43 248.735 2142.91 245.101 Q2146.4 241.467 2152.47 241.467 Q2154.43 241.467 2156.31 241.883 Q2158.18 242.277 2159.94 243.087 Z" fill="#000000" fill-rule="evenodd" fill-opacity="1" /><path clip-path="url(#clip860)" d="M2182.6 233.458 L2202.47 233.458 L2202.47 237.393 L2187.28 237.393 L2187.28 247.578 L2200.98 247.578 L2200.98 251.513 L2187.28 251.513 L2187.28 268.018 L2182.6 268.018 L2182.6 233.458 Z" fill="#000000" fill-rule="evenodd" fill-opacity="1" /><path clip-path="url(#clip860)" d="M2206.24 242.092 L2210.5 242.092 L2210.5 268.018 L2206.24 268.018 L2206.24 242.092 M2206.24 231.999 L2210.5 231.999 L2210.5 237.393 L2206.24 237.393 L2206.24 231.999 Z" fill="#000000" fill-rule="evenodd" fill-opacity="1" /><path clip-path="url(#clip860)" d="M2223.62 234.731 L2223.62 242.092 L2232.4 242.092 L2232.4 245.402 L2223.62 245.402 L2223.62 259.476 Q2223.62 262.647 2224.48 263.55 Q2225.36 264.453 2228.02 264.453 L2232.4 264.453 L2232.4 268.018 L2228.02 268.018 Q2223.09 268.018 2221.22 266.189 Q2219.34 264.337 2219.34 259.476 L2219.34 245.402 L2216.22 245.402 L2216.22 242.092 L2219.34 242.092 L2219.34 234.731 L2223.62 234.731 Z" fill="#000000" fill-rule="evenodd" fill-opacity="1" /></svg>
