<?xml version="1.0" encoding="utf-8"?>
<svg xmlns="http://www.w3.org/2000/svg" xmlns:xlink="http://www.w3.org/1999/xlink" width="600" height="400" viewBox="0 0 2400 1600">
<defs>
  <clipPath id="clip2100">
    <rect x="0" y="0" width="2400" height="1600"/>
  </clipPath>
</defs>
<path clip-path="url(#clip2100)" d="
M0 1600 L2400 1600 L2400 0 L0 0  Z
  " fill="#ffffff" fill-rule="evenodd" fill-opacity="1"/>
<defs>
  <clipPath id="clip2101">
    <rect x="480" y="0" width="1681" height="1600"/>
  </clipPath>
</defs>
<path clip-path="url(#clip2100)" d="
M86.9921 1521.01 L2352.76 1521.01 L2352.76 47.2441 L86.9921 47.2441  Z
  " fill="#ffffff" fill-rule="evenodd" fill-opacity="1"/>
<defs>
  <clipPath id="clip2102">
    <rect x="86" y="47" width="2267" height="1475"/>
  </clipPath>
</defs>
<polyline clip-path="url(#clip2102)" style="stroke:#000000; stroke-width:2; stroke-opacity:0.1; fill:none" points="
  151.118,1521.01 151.118,47.2441 
  "/>
<polyline clip-path="url(#clip2102)" style="stroke:#000000; stroke-width:2; stroke-opacity:0.1; fill:none" points="
  685.496,1521.01 685.496,47.2441 
  "/>
<polyline clip-path="url(#clip2102)" style="stroke:#000000; stroke-width:2; stroke-opacity:0.1; fill:none" points="
  1219.87,1521.01 1219.87,47.2441 
  "/>
<polyline clip-path="url(#clip2102)" style="stroke:#000000; stroke-width:2; stroke-opacity:0.1; fill:none" points="
  1754.25,1521.01 1754.25,47.2441 
  "/>
<polyline clip-path="url(#clip2102)" style="stroke:#000000; stroke-width:2; stroke-opacity:0.1; fill:none" points="
  2288.63,1521.01 2288.63,47.2441 
  "/>
<polyline clip-path="url(#clip2102)" style="stroke:#000000; stroke-width:2; stroke-opacity:0.1; fill:none" points="
  86.9921,1479.3 2352.76,1479.3 
  "/>
<polyline clip-path="url(#clip2102)" style="stroke:#000000; stroke-width:2; stroke-opacity:0.1; fill:none" points="
  86.9921,1131.71 2352.76,1131.71 
  "/>
<polyline clip-path="url(#clip2102)" style="stroke:#000000; stroke-width:2; stroke-opacity:0.1; fill:none" points="
  86.9921,784.126 2352.76,784.126 
  "/>
<polyline clip-path="url(#clip2102)" style="stroke:#000000; stroke-width:2; stroke-opacity:0.1; fill:none" points="
  86.9921,436.54 2352.76,436.54 
  "/>
<polyline clip-path="url(#clip2102)" style="stroke:#000000; stroke-width:2; stroke-opacity:0.1; fill:none" points="
  86.9921,88.9544 2352.76,88.9544 
  "/>
<polyline clip-path="url(#clip2100)" style="stroke:#000000; stroke-width:4; stroke-opacity:1; fill:none" points="
  86.9921,1521.01 2352.76,1521.01 
  "/>
<polyline clip-path="url(#clip2100)" style="stroke:#000000; stroke-width:4; stroke-opacity:1; fill:none" points="
  86.9921,1521.01 86.9921,47.2441 
  "/>
<polyline clip-path="url(#clip2100)" style="stroke:#000000; stroke-width:4; stroke-opacity:1; fill:none" points="
  151.118,1521.01 151.118,1503.32 
  "/>
<polyline clip-path="url(#clip2100)" style="stroke:#000000; stroke-width:4; stroke-opacity:1; fill:none" points="
  685.496,1521.01 685.496,1503.32 
  "/>
<polyline clip-path="url(#clip2100)" style="stroke:#000000; stroke-width:4; stroke-opacity:1; fill:none" points="
  1219.87,1521.01 1219.87,1503.32 
  "/>
<polyline clip-path="url(#clip2100)" style="stroke:#000000; stroke-width:4; stroke-opacity:1; fill:none" points="
  1754.25,1521.01 1754.25,1503.32 
  "/>
<polyline clip-path="url(#clip2100)" style="stroke:#000000; stroke-width:4; stroke-opacity:1; fill:none" points="
  2288.63,1521.01 2288.63,1503.32 
  "/>
<polyline clip-path="url(#clip2100)" style="stroke:#000000; stroke-width:4; stroke-opacity:1; fill:none" points="
  86.9921,1479.3 114.181,1479.3 
  "/>
<polyline clip-path="url(#clip2100)" style="stroke:#000000; stroke-width:4; stroke-opacity:1; fill:none" points="
  86.9921,1131.71 114.181,1131.71 
  "/>
<polyline clip-path="url(#clip2100)" style="stroke:#000000; stroke-width:4; stroke-opacity:1; fill:none" points="
  86.9921,784.126 114.181,784.126 
  "/>
<polyline clip-path="url(#clip2100)" style="stroke:#000000; stroke-width:4; stroke-opacity:1; fill:none" points="
  86.9921,436.54 114.181,436.54 
  "/>
<polyline clip-path="url(#clip2100)" style="stroke:#000000; stroke-width:4; stroke-opacity:1; fill:none" points="
  86.9921,88.9544 114.181,88.9544 
  "/>
<path clip-path="url(#clip2100)" d="M 0 0 M113.502 1559.6 L125.979 1559.6 L125.979 1563.39 L113.502 1563.39 L113.502 1559.6 Z" fill="#000000" fill-rule="evenodd" fill-opacity="1" /><path clip-path="url(#clip2100)" d="M 0 0 M131.858 1570.54 L139.497 1570.54 L139.497 1544.18 L131.187 1545.85 L131.187 1541.59 L139.451 1539.92 L144.127 1539.92 L144.127 1570.54 L151.766 1570.54 L151.766 1574.48 L131.858 1574.48 L131.858 1570.54 Z" fill="#000000" fill-rule="evenodd" fill-opacity="1" /><path clip-path="url(#clip2100)" d="M 0 0 M156.835 1568.6 L161.719 1568.6 L161.719 1574.48 L156.835 1574.48 L156.835 1568.6 Z" fill="#000000" fill-rule="evenodd" fill-opacity="1" /><path clip-path="url(#clip2100)" d="M 0 0 M176.789 1543 Q173.178 1543 171.349 1546.56 Q169.543 1550.11 169.543 1557.23 Q169.543 1564.34 171.349 1567.91 Q173.178 1571.45 176.789 1571.45 Q180.423 1571.45 182.228 1567.91 Q184.057 1564.34 184.057 1557.23 Q184.057 1550.11 182.228 1546.56 Q180.423 1543 176.789 1543 M176.789 1539.29 Q182.599 1539.29 185.654 1543.9 Q188.733 1548.48 188.733 1557.23 Q188.733 1565.96 185.654 1570.57 Q182.599 1575.15 176.789 1575.15 Q170.979 1575.15 167.9 1570.57 Q164.844 1565.96 164.844 1557.23 Q164.844 1548.48 167.9 1543.9 Q170.979 1539.29 176.789 1539.29 Z" fill="#000000" fill-rule="evenodd" fill-opacity="1" /><path clip-path="url(#clip2100)" d="M 0 0 M647.764 1559.6 L660.241 1559.6 L660.241 1563.39 L647.764 1563.39 L647.764 1559.6 Z" fill="#000000" fill-rule="evenodd" fill-opacity="1" /><path clip-path="url(#clip2100)" d="M 0 0 M675.311 1543 Q671.7 1543 669.871 1546.56 Q668.065 1550.11 668.065 1557.23 Q668.065 1564.34 669.871 1567.91 Q671.7 1571.45 675.311 1571.45 Q678.945 1571.45 680.75 1567.91 Q682.579 1564.34 682.579 1557.23 Q682.579 1550.11 680.75 1546.56 Q678.945 1543 675.311 1543 M675.311 1539.29 Q681.121 1539.29 684.176 1543.9 Q687.255 1548.48 687.255 1557.23 Q687.255 1565.96 684.176 1570.57 Q681.121 1575.15 675.311 1575.15 Q669.5 1575.15 666.422 1570.57 Q663.366 1565.96 663.366 1557.23 Q663.366 1548.48 666.422 1543.9 Q669.5 1539.29 675.311 1539.29 Z" fill="#000000" fill-rule="evenodd" fill-opacity="1" /><path clip-path="url(#clip2100)" d="M 0 0 M692.324 1568.6 L697.209 1568.6 L697.209 1574.48 L692.324 1574.48 L692.324 1568.6 Z" fill="#000000" fill-rule="evenodd" fill-opacity="1" /><path clip-path="url(#clip2100)" d="M 0 0 M702.324 1539.92 L720.681 1539.92 L720.681 1543.86 L706.607 1543.86 L706.607 1552.33 Q707.625 1551.98 708.644 1551.82 Q709.662 1551.63 710.681 1551.63 Q716.468 1551.63 719.847 1554.8 Q723.227 1557.98 723.227 1563.39 Q723.227 1568.97 719.755 1572.07 Q716.283 1575.15 709.963 1575.15 Q707.787 1575.15 705.519 1574.78 Q703.273 1574.41 700.866 1573.67 L700.866 1568.97 Q702.949 1570.1 705.172 1570.66 Q707.394 1571.22 709.871 1571.22 Q713.875 1571.22 716.213 1569.11 Q718.551 1567 718.551 1563.39 Q718.551 1559.78 716.213 1557.67 Q713.875 1555.57 709.871 1555.57 Q707.996 1555.57 706.121 1555.98 Q704.269 1556.4 702.324 1557.28 L702.324 1539.92 Z" fill="#000000" fill-rule="evenodd" fill-opacity="1" /><path clip-path="url(#clip2100)" d="M 0 0 M1201.39 1543 Q1197.78 1543 1195.95 1546.56 Q1194.14 1550.11 1194.14 1557.23 Q1194.14 1564.34 1195.95 1567.91 Q1197.78 1571.45 1201.39 1571.45 Q1205.02 1571.45 1206.83 1567.91 Q1208.66 1564.34 1208.66 1557.23 Q1208.66 1550.11 1206.83 1546.56 Q1205.02 1543 1201.39 1543 M1201.39 1539.29 Q1207.2 1539.29 1210.26 1543.9 Q1213.33 1548.48 1213.33 1557.23 Q1213.33 1565.96 1210.26 1570.57 Q1207.2 1575.15 1201.39 1575.15 Q1195.58 1575.15 1192.5 1570.57 Q1189.45 1565.96 1189.45 1557.23 Q1189.45 1548.48 1192.5 1543.9 Q1195.58 1539.29 1201.39 1539.29 Z" fill="#000000" fill-rule="evenodd" fill-opacity="1" /><path clip-path="url(#clip2100)" d="M 0 0 M1218.4 1568.6 L1223.29 1568.6 L1223.29 1574.48 L1218.4 1574.48 L1218.4 1568.6 Z" fill="#000000" fill-rule="evenodd" fill-opacity="1" /><path clip-path="url(#clip2100)" d="M 0 0 M1238.36 1543 Q1234.75 1543 1232.92 1546.56 Q1231.11 1550.11 1231.11 1557.23 Q1231.11 1564.34 1232.92 1567.91 Q1234.75 1571.45 1238.36 1571.45 Q1241.99 1571.45 1243.8 1567.91 Q1245.63 1564.34 1245.63 1557.23 Q1245.63 1550.11 1243.8 1546.56 Q1241.99 1543 1238.36 1543 M1238.36 1539.29 Q1244.17 1539.29 1247.22 1543.9 Q1250.3 1548.48 1250.3 1557.23 Q1250.3 1565.96 1247.22 1570.57 Q1244.17 1575.15 1238.36 1575.15 Q1232.55 1575.15 1229.47 1570.57 Q1226.41 1565.96 1226.41 1557.23 Q1226.41 1548.48 1229.47 1543.9 Q1232.55 1539.29 1238.36 1539.29 Z" fill="#000000" fill-rule="evenodd" fill-opacity="1" /><path clip-path="url(#clip2100)" d="M 0 0 M1736.27 1543 Q1732.66 1543 1730.83 1546.56 Q1729.02 1550.11 1729.02 1557.23 Q1729.02 1564.34 1730.83 1567.91 Q1732.66 1571.45 1736.27 1571.45 Q1739.9 1571.45 1741.71 1567.91 Q1743.53 1564.34 1743.53 1557.23 Q1743.53 1550.11 1741.71 1546.56 Q1739.9 1543 1736.27 1543 M1736.27 1539.29 Q1742.08 1539.29 1745.13 1543.9 Q1748.21 1548.48 1748.21 1557.23 Q1748.21 1565.96 1745.13 1570.57 Q1742.08 1575.15 1736.27 1575.15 Q1730.46 1575.15 1727.38 1570.57 Q1724.32 1565.96 1724.32 1557.23 Q1724.32 1548.48 1727.38 1543.9 Q1730.46 1539.29 1736.27 1539.29 Z" fill="#000000" fill-rule="evenodd" fill-opacity="1" /><path clip-path="url(#clip2100)" d="M 0 0 M1753.28 1568.6 L1758.16 1568.6 L1758.16 1574.48 L1753.28 1574.48 L1753.28 1568.6 Z" fill="#000000" fill-rule="evenodd" fill-opacity="1" /><path clip-path="url(#clip2100)" d="M 0 0 M1763.28 1539.92 L1781.64 1539.92 L1781.64 1543.86 L1767.56 1543.86 L1767.56 1552.33 Q1768.58 1551.98 1769.6 1551.82 Q1770.62 1551.63 1771.64 1551.63 Q1777.42 1551.63 1780.8 1554.8 Q1784.18 1557.98 1784.18 1563.39 Q1784.18 1568.97 1780.71 1572.07 Q1777.24 1575.15 1770.92 1575.15 Q1768.74 1575.15 1766.47 1574.78 Q1764.23 1574.41 1761.82 1573.67 L1761.82 1568.97 Q1763.9 1570.1 1766.13 1570.66 Q1768.35 1571.22 1770.83 1571.22 Q1774.83 1571.22 1777.17 1569.11 Q1779.51 1567 1779.51 1563.39 Q1779.51 1559.78 1777.17 1557.67 Q1774.83 1555.57 1770.83 1555.57 Q1768.95 1555.57 1767.08 1555.98 Q1765.22 1556.4 1763.28 1557.28 L1763.28 1539.92 Z" fill="#000000" fill-rule="evenodd" fill-opacity="1" /><path clip-path="url(#clip2100)" d="M 0 0 M2260.53 1570.54 L2268.17 1570.54 L2268.17 1544.18 L2259.86 1545.85 L2259.86 1541.59 L2268.12 1539.92 L2272.8 1539.92 L2272.8 1570.54 L2280.44 1570.54 L2280.44 1574.48 L2260.53 1574.48 L2260.53 1570.54 Z" fill="#000000" fill-rule="evenodd" fill-opacity="1" /><path clip-path="url(#clip2100)" d="M 0 0 M2285.51 1568.6 L2290.39 1568.6 L2290.39 1574.48 L2285.51 1574.48 L2285.51 1568.6 Z" fill="#000000" fill-rule="evenodd" fill-opacity="1" /><path clip-path="url(#clip2100)" d="M 0 0 M2305.46 1543 Q2301.85 1543 2300.02 1546.56 Q2298.21 1550.11 2298.21 1557.23 Q2298.21 1564.34 2300.02 1567.91 Q2301.85 1571.45 2305.46 1571.45 Q2309.09 1571.45 2310.9 1567.91 Q2312.73 1564.34 2312.73 1557.23 Q2312.73 1550.11 2310.9 1546.56 Q2309.09 1543 2305.46 1543 M2305.46 1539.29 Q2311.27 1539.29 2314.32 1543.9 Q2317.4 1548.48 2317.4 1557.23 Q2317.4 1565.96 2314.32 1570.57 Q2311.27 1575.15 2305.46 1575.15 Q2299.65 1575.15 2296.57 1570.57 Q2293.51 1565.96 2293.51 1557.23 Q2293.51 1548.48 2296.57 1543.9 Q2299.65 1539.29 2305.46 1539.29 Z" fill="#000000" fill-rule="evenodd" fill-opacity="1" /><path clip-path="url(#clip2100)" d="M 0 0 M-12.239 1481.69 L0.237833 1481.69 L0.237833 1485.49 L-12.239 1485.49 L-12.239 1481.69 Z" fill="#000000" fill-rule="evenodd" fill-opacity="1" /><path clip-path="url(#clip2100)" d="M 0 0 M6.11743 1492.64 L13.7563 1492.64 L13.7563 1466.28 L5.44614 1467.94 L5.44614 1463.68 L13.71 1462.02 L18.3859 1462.02 L18.3859 1492.64 L26.0247 1492.64 L26.0247 1496.58 L6.11743 1496.58 L6.11743 1492.64 Z" fill="#000000" fill-rule="evenodd" fill-opacity="1" /><path clip-path="url(#clip2100)" d="M 0 0 M31.0941 1490.7 L35.9784 1490.7 L35.9784 1496.58 L31.0941 1496.58 L31.0941 1490.7 Z" fill="#000000" fill-rule="evenodd" fill-opacity="1" /><path clip-path="url(#clip2100)" d="M 0 0 M51.0477 1465.1 Q47.4367 1465.1 45.608 1468.66 Q43.8024 1472.2 43.8024 1479.33 Q43.8024 1486.44 45.608 1490 Q47.4367 1493.55 51.0477 1493.55 Q54.682 1493.55 56.4875 1490 Q58.3162 1486.44 58.3162 1479.33 Q58.3162 1472.2 56.4875 1468.66 Q54.682 1465.1 51.0477 1465.1 M51.0477 1461.39 Q56.8579 1461.39 59.9134 1466 Q62.9921 1470.58 62.9921 1479.33 Q62.9921 1488.06 59.9134 1492.67 Q56.8579 1497.25 51.0477 1497.25 Q45.2376 1497.25 42.1589 1492.67 Q39.1034 1488.06 39.1034 1479.33 Q39.1034 1470.58 42.1589 1466 Q45.2376 1461.39 51.0477 1461.39 Z" fill="#000000" fill-rule="evenodd" fill-opacity="1" /><path clip-path="url(#clip2100)" d="M 0 0 M-12.4704 1134.11 L0.00635237 1134.11 L0.00635237 1137.9 L-12.4704 1137.9 L-12.4704 1134.11 Z" fill="#000000" fill-rule="evenodd" fill-opacity="1" /><path clip-path="url(#clip2100)" d="M 0 0 M15.0757 1117.51 Q11.4646 1117.51 9.63593 1121.08 Q7.83038 1124.62 7.83038 1131.75 Q7.83038 1138.85 9.63593 1142.42 Q11.4646 1145.96 15.0757 1145.96 Q18.71 1145.96 20.5155 1142.42 Q22.3442 1138.85 22.3442 1131.75 Q22.3442 1124.62 20.5155 1121.08 Q18.71 1117.51 15.0757 1117.51 M15.0757 1113.81 Q20.8859 1113.81 23.9414 1118.41 Q27.0201 1123 27.0201 1131.75 Q27.0201 1140.47 23.9414 1145.08 Q20.8859 1149.66 15.0757 1149.66 Q9.26556 1149.66 6.18687 1145.08 Q3.13134 1140.47 3.13134 1131.75 Q3.13134 1123 6.18687 1118.41 Q9.26556 1113.81 15.0757 1113.81 Z" fill="#000000" fill-rule="evenodd" fill-opacity="1" /><path clip-path="url(#clip2100)" d="M 0 0 M32.0895 1143.11 L36.9737 1143.11 L36.9737 1148.99 L32.0895 1148.99 L32.0895 1143.11 Z" fill="#000000" fill-rule="evenodd" fill-opacity="1" /><path clip-path="url(#clip2100)" d="M 0 0 M42.0895 1114.43 L60.4458 1114.43 L60.4458 1118.37 L46.3718 1118.37 L46.3718 1126.84 Q47.3904 1126.49 48.4089 1126.33 Q49.4274 1126.14 50.4459 1126.14 Q56.2329 1126.14 59.6125 1129.32 Q62.9921 1132.49 62.9921 1137.9 Q62.9921 1143.48 59.5199 1146.58 Q56.0477 1149.66 49.7283 1149.66 Q47.5524 1149.66 45.2839 1149.29 Q43.0385 1148.92 40.6311 1148.18 L40.6311 1143.48 Q42.7145 1144.62 44.9367 1145.17 Q47.1589 1145.73 49.6357 1145.73 Q53.6403 1145.73 55.9783 1143.62 Q58.3162 1141.51 58.3162 1137.9 Q58.3162 1134.29 55.9783 1132.19 Q53.6403 1130.08 49.6357 1130.08 Q47.7607 1130.08 45.8857 1130.5 Q44.0339 1130.91 42.0895 1131.79 L42.0895 1114.43 Z" fill="#000000" fill-rule="evenodd" fill-opacity="1" /><path clip-path="url(#clip2100)" d="M 0 0 M14.0804 769.925 Q10.4693 769.925 8.64057 773.489 Q6.83502 777.031 6.83502 784.161 Q6.83502 791.267 8.64057 794.832 Q10.4693 798.374 14.0804 798.374 Q17.7146 798.374 19.5201 794.832 Q21.3488 791.267 21.3488 784.161 Q21.3488 777.031 19.5201 773.489 Q17.7146 769.925 14.0804 769.925 M14.0804 766.221 Q19.8905 766.221 22.946 770.827 Q26.0247 775.411 26.0247 784.161 Q26.0247 792.888 22.946 797.494 Q19.8905 802.077 14.0804 802.077 Q8.2702 802.077 5.19151 797.494 Q2.13597 792.888 2.13597 784.161 Q2.13597 775.411 5.19151 770.827 Q8.2702 766.221 14.0804 766.221 Z" fill="#000000" fill-rule="evenodd" fill-opacity="1" /><path clip-path="url(#clip2100)" d="M 0 0 M31.0941 795.526 L35.9784 795.526 L35.9784 801.406 L31.0941 801.406 L31.0941 795.526 Z" fill="#000000" fill-rule="evenodd" fill-opacity="1" /><path clip-path="url(#clip2100)" d="M 0 0 M51.0477 769.925 Q47.4367 769.925 45.608 773.489 Q43.8024 777.031 43.8024 784.161 Q43.8024 791.267 45.608 794.832 Q47.4367 798.374 51.0477 798.374 Q54.682 798.374 56.4875 794.832 Q58.3162 791.267 58.3162 784.161 Q58.3162 777.031 56.4875 773.489 Q54.682 769.925 51.0477 769.925 M51.0477 766.221 Q56.8579 766.221 59.9134 770.827 Q62.9921 775.411 62.9921 784.161 Q62.9921 792.888 59.9134 797.494 Q56.8579 802.077 51.0477 802.077 Q45.2376 802.077 42.1589 797.494 Q39.1034 792.888 39.1034 784.161 Q39.1034 775.411 42.1589 770.827 Q45.2376 766.221 51.0477 766.221 Z" fill="#000000" fill-rule="evenodd" fill-opacity="1" /><path clip-path="url(#clip2100)" d="M 0 0 M15.0757 422.339 Q11.4646 422.339 9.63593 425.904 Q7.83038 429.445 7.83038 436.575 Q7.83038 443.681 9.63593 447.246 Q11.4646 450.788 15.0757 450.788 Q18.71 450.788 20.5155 447.246 Q22.3442 443.681 22.3442 436.575 Q22.3442 429.445 20.5155 425.904 Q18.71 422.339 15.0757 422.339 M15.0757 418.635 Q20.8859 418.635 23.9414 423.242 Q27.0201 427.825 27.0201 436.575 Q27.0201 445.302 23.9414 449.908 Q20.8859 454.491 15.0757 454.491 Q9.26556 454.491 6.18687 449.908 Q3.13134 445.302 3.13134 436.575 Q3.13134 427.825 6.18687 423.242 Q9.26556 418.635 15.0757 418.635 Z" fill="#000000" fill-rule="evenodd" fill-opacity="1" /><path clip-path="url(#clip2100)" d="M 0 0 M32.0895 447.941 L36.9737 447.941 L36.9737 453.82 L32.0895 453.82 L32.0895 447.941 Z" fill="#000000" fill-rule="evenodd" fill-opacity="1" /><path clip-path="url(#clip2100)" d="M 0 0 M42.0895 419.26 L60.4458 419.26 L60.4458 423.195 L46.3718 423.195 L46.3718 431.668 Q47.3904 431.32 48.4089 431.158 Q49.4274 430.973 50.4459 430.973 Q56.2329 430.973 59.6125 434.144 Q62.9921 437.316 62.9921 442.732 Q62.9921 448.311 59.5199 451.413 Q56.0477 454.491 49.7283 454.491 Q47.5524 454.491 45.2839 454.121 Q43.0385 453.751 40.6311 453.01 L40.6311 448.311 Q42.7145 449.445 44.9367 450.001 Q47.1589 450.556 49.6357 450.556 Q53.6403 450.556 55.9783 448.45 Q58.3162 446.343 58.3162 442.732 Q58.3162 439.121 55.9783 437.015 Q53.6403 434.908 49.6357 434.908 Q47.7607 434.908 45.8857 435.325 Q44.0339 435.742 42.0895 436.621 L42.0895 419.26 Z" fill="#000000" fill-rule="evenodd" fill-opacity="1" /><path clip-path="url(#clip2100)" d="M 0 0 M6.11743 102.299 L13.7563 102.299 L13.7563 75.9336 L5.44614 77.6003 L5.44614 73.341 L13.71 71.6744 L18.3859 71.6744 L18.3859 102.299 L26.0247 102.299 L26.0247 106.234 L6.11743 106.234 L6.11743 102.299 Z" fill="#000000" fill-rule="evenodd" fill-opacity="1" /><path clip-path="url(#clip2100)" d="M 0 0 M31.0941 100.355 L35.9784 100.355 L35.9784 106.234 L31.0941 106.234 L31.0941 100.355 Z" fill="#000000" fill-rule="evenodd" fill-opacity="1" /><path clip-path="url(#clip2100)" d="M 0 0 M51.0477 74.7531 Q47.4367 74.7531 45.608 78.3179 Q43.8024 81.8595 43.8024 88.9891 Q43.8024 96.0956 45.608 99.6604 Q47.4367 103.202 51.0477 103.202 Q54.682 103.202 56.4875 99.6604 Q58.3162 96.0956 58.3162 88.9891 Q58.3162 81.8595 56.4875 78.3179 Q54.682 74.7531 51.0477 74.7531 M51.0477 71.0494 Q56.8579 71.0494 59.9134 75.6559 Q62.9921 80.2392 62.9921 88.9891 Q62.9921 97.7159 59.9134 102.322 Q56.8579 106.906 51.0477 106.906 Q45.2376 106.906 42.1589 102.322 Q39.1034 97.7159 39.1034 88.9891 Q39.1034 80.2392 42.1589 75.6559 Q45.2376 71.0494 51.0477 71.0494 Z" fill="#000000" fill-rule="evenodd" fill-opacity="1" /><polyline clip-path="url(#clip2102)" style="stroke:#4063d8; stroke-width:20; stroke-opacity:1; fill:none" points="
  151.118,1479.3 172.493,1465.39 193.868,1451.49 215.243,1437.59 236.618,1423.68 257.993,1409.78 279.368,1395.88 300.743,1381.97 322.119,1368.07 343.494,1354.17 
  364.869,1340.26 386.244,1326.36 407.619,1312.46 428.994,1298.55 450.369,1284.65 471.744,1270.75 493.12,1256.84 514.495,1242.94 535.87,1229.04 557.245,1215.13 
  578.62,1201.23 599.995,1187.33 621.37,1173.42 642.746,1159.52 664.121,1145.62 685.496,1131.71 706.871,1117.81 728.246,1103.9 749.621,1090 770.996,1076.1 
  792.371,1062.19 813.747,1048.29 835.122,1034.39 856.497,1020.48 877.872,1006.58 899.247,992.677 920.622,978.774 941.997,964.871 963.372,950.967 984.748,937.064 
  1006.12,923.16 1027.5,909.257 1048.87,895.353 1070.25,881.45 1091.62,867.547 1113,853.643 1134.37,839.74 1155.75,825.836 1177.12,811.933 1198.5,798.029 
  1219.87,784.126 1241.25,770.223 1262.62,756.319 1284,742.416 1305.37,728.512 1326.75,714.609 1348.12,700.705 1369.5,686.802 1390.88,672.899 1412.25,658.995 
  1433.63,645.092 1455,631.188 1476.38,617.285 1497.75,603.381 1519.13,589.478 1540.5,575.575 1561.88,561.671 1583.25,547.768 1604.63,533.864 1626,519.961 
  1647.38,506.057 1668.75,492.154 1690.13,478.25 1711.5,464.347 1732.88,450.444 1754.25,436.54 1775.63,422.637 1797,408.733 1818.38,394.83 1839.75,380.926 
  1861.13,367.023 1882.5,353.12 1903.88,339.216 1925.25,325.313 1946.63,311.409 1968,297.506 1989.38,283.602 2010.75,269.699 2032.13,255.796 2053.5,241.892 
  2074.88,227.989 2096.25,214.085 2117.63,200.182 2139,186.278 2160.38,172.375 2181.75,158.472 2203.13,144.568 2224.51,130.665 2245.88,116.761 2267.26,102.858 
  2288.63,88.9544 
  "/>
<polyline clip-path="url(#clip2102)" style="stroke:#389826; stroke-width:20; stroke-opacity:1; fill:none" points="
  151.118,88.9544 172.493,144.012 193.868,197.957 215.243,250.79 236.618,302.511 257.993,353.12 279.368,402.616 300.743,451 322.119,498.271 343.494,544.431 
  364.869,589.478 386.244,633.413 407.619,676.235 428.994,717.946 450.369,758.544 471.744,798.029 493.12,836.403 514.495,873.664 535.87,909.813 557.245,944.85 
  578.62,978.774 599.995,1011.59 621.37,1043.29 642.746,1073.87 664.121,1103.35 685.496,1131.71 706.871,1158.96 728.246,1185.1 749.621,1210.13 770.996,1234.04 
  792.371,1256.84 813.747,1278.53 835.122,1299.11 856.497,1318.57 877.872,1336.93 899.247,1354.17 920.622,1370.29 941.997,1385.31 963.372,1399.21 984.748,1412 
  1006.12,1423.68 1027.5,1434.25 1048.87,1443.7 1070.25,1452.05 1091.62,1459.28 1113,1465.39 1134.37,1470.4 1155.75,1474.29 1177.12,1477.07 1198.5,1478.74 
  1219.87,1479.3 1241.25,1478.74 1262.62,1477.07 1284,1474.29 1305.37,1470.4 1326.75,1465.39 1348.12,1459.28 1369.5,1452.05 1390.88,1443.7 1412.25,1434.25 
  1433.63,1423.68 1455,1412 1476.38,1399.21 1497.75,1385.31 1519.13,1370.29 1540.5,1354.17 1561.88,1336.93 1583.25,1318.57 1604.63,1299.11 1626,1278.53 
  1647.38,1256.84 1668.75,1234.04 1690.13,1210.13 1711.5,1185.1 1732.88,1158.96 1754.25,1131.71 1775.63,1103.35 1797,1073.87 1818.38,1043.29 1839.75,1011.59 
  1861.13,978.774 1882.5,944.85 1903.88,909.813 1925.25,873.664 1946.63,836.403 1968,798.029 1989.38,758.544 2010.75,717.946 2032.13,676.235 2053.5,633.413 
  2074.88,589.478 2096.25,544.431 2117.63,498.271 2139,451 2160.38,402.616 2181.75,353.12 2203.13,302.511 2224.51,250.79 2245.88,197.957 2267.26,144.012 
  2288.63,88.9544 
  "/>
<polyline clip-path="url(#clip2102)" style="stroke:#cb3c33; stroke-width:20; stroke-opacity:1; fill:none" points="
  151.118,1479.3 172.493,1357.48 193.868,1242.21 215.243,1133.34 236.618,1030.74 257.993,934.283 279.368,843.833 300.743,759.256 322.119,680.418 343.494,607.185 
  364.869,539.426 386.244,477.005 407.619,419.789 428.994,367.646 450.369,320.441 471.744,278.041 493.12,240.313 514.495,207.122 535.87,178.337 557.245,153.822 
  578.62,133.445 599.995,117.073 621.37,104.571 642.746,95.806 664.121,90.645 685.496,88.9544 706.871,90.6006 728.246,95.4501 749.621,103.369 770.996,114.225 
  792.371,127.884 813.747,144.212 835.122,163.076 856.497,184.343 877.872,207.879 899.247,233.55 920.622,261.223 941.997,290.765 963.372,322.043 984.748,354.921 
  1006.12,389.269 1027.5,424.95 1048.87,461.833 1070.25,499.784 1091.62,538.669 1113,578.355 1134.37,618.709 1155.75,659.596 1177.12,700.883 1198.5,742.438 
  1219.87,784.126 1241.25,825.814 1262.62,867.369 1284,908.656 1305.37,949.543 1326.75,989.897 1348.12,1029.58 1369.5,1068.47 1390.88,1106.42 1412.25,1143.3 
  1433.63,1178.98 1455,1213.33 1476.38,1246.21 1497.75,1277.49 1519.13,1307.03 1540.5,1334.7 1561.88,1360.37 1583.25,1383.91 1604.63,1405.18 1626,1424.04 
  1647.38,1440.37 1668.75,1454.03 1690.13,1464.88 1711.5,1472.8 1732.88,1477.65 1754.25,1479.3 1775.63,1477.61 1797,1472.45 1818.38,1463.68 1839.75,1451.18 
  1861.13,1434.81 1882.5,1414.43 1903.88,1389.92 1925.25,1361.13 1946.63,1327.94 1968,1290.21 1989.38,1247.81 2010.75,1200.61 2032.13,1148.46 2053.5,1091.25 
  2074.88,1028.83 2096.25,961.067 2117.63,887.834 2139,808.996 2160.38,724.419 2181.75,633.969 2203.13,537.512 2224.51,434.916 2245.88,326.047 2267.26,210.771 
  2288.63,88.9544 
  "/>
<polyline clip-path="url(#clip2102)" style="stroke:#9558b2; stroke-width:20; stroke-opacity:1; fill:none" points="
  151.118,88.9544 172.493,300.464 193.868,490.783 215.243,660.947 236.618,811.972 257.993,944.85 279.368,1060.55 300.743,1160.03 322.119,1244.21 343.494,1314 
  364.869,1370.29 386.244,1413.95 407.619,1445.81 428.994,1466.7 450.369,1477.41 471.744,1478.74 493.12,1471.44 514.495,1456.23 535.87,1433.85 557.245,1404.98 
  578.62,1370.29 599.995,1330.45 621.37,1286.07 642.746,1237.76 664.121,1186.12 685.496,1131.71 706.871,1075.07 728.246,1016.73 749.621,957.191 770.996,896.928 
  792.371,836.403 813.747,776.054 835.122,716.299 856.497,657.53 877.872,600.124 899.247,544.431 920.622,490.783 941.997,439.489 963.372,390.838 984.748,345.097 
  1006.12,302.511 1027.5,263.305 1048.87,227.681 1070.25,195.821 1091.62,167.885 1113,144.012 1134.37,124.319 1155.75,108.903 1177.12,97.8383 1198.5,91.178 
  1219.87,88.9544 1241.25,91.178 1262.62,97.8383 1284,108.903 1305.37,124.319 1326.75,144.012 1348.12,167.885 1369.5,195.821 1390.88,227.681 1412.25,263.305 
  1433.63,302.511 1455,345.097 1476.38,390.838 1497.75,439.489 1519.13,490.783 1540.5,544.431 1561.88,600.124 1583.25,657.53 1604.63,716.299 1626,776.054 
  1647.38,836.403 1668.75,896.928 1690.13,957.191 1711.5,1016.73 1732.88,1075.07 1754.25,1131.71 1775.63,1186.12 1797,1237.76 1818.38,1286.07 1839.75,1330.45 
  1861.13,1370.29 1882.5,1404.98 1903.88,1433.85 1925.25,1456.23 1946.63,1471.44 1968,1478.74 1989.38,1477.41 2010.75,1466.7 2032.13,1445.81 2053.5,1413.95 
  2074.88,1370.29 2096.25,1314 2117.63,1244.21 2139,1160.03 2160.38,1060.55 2181.75,944.85 2203.13,811.972 2224.51,660.947 2245.88,490.783 2267.26,300.464 
  2288.63,88.9544 
  "/>
</svg>
