<?xml version="1.0" encoding="utf-8"?>
<svg xmlns="http://www.w3.org/2000/svg" xmlns:xlink="http://www.w3.org/1999/xlink" width="600" height="400" viewBox="0 0 2400 1600">
<defs>
  <clipPath id="clip1800">
    <rect x="0" y="0" width="2400" height="1600"/>
  </clipPath>
</defs>
<path clip-path="url(#clip1800)" d="
M0 1600 L2400 1600 L2400 0 L0 0  Z
  " fill="#ffffff" fill-rule="evenodd" fill-opacity="1"/>
<defs>
  <clipPath id="clip1801">
    <rect x="480" y="0" width="1681" height="1600"/>
  </clipPath>
</defs>
<path clip-path="url(#clip1800)" d="
M86.9921 1521.01 L2352.76 1521.01 L2352.76 47.2441 L86.9921 47.2441  Z
  " fill="#ffffff" fill-rule="evenodd" fill-opacity="1"/>
<defs>
  <clipPath id="clip1802">
    <rect x="86" y="47" width="2267" height="1475"/>
  </clipPath>
</defs>
<polyline clip-path="url(#clip1802)" style="stroke:#000000; stroke-width:2; stroke-opacity:0.1; fill:none" points="
  151.118,1521.01 151.118,47.2441 
  "/>
<polyline clip-path="url(#clip1802)" style="stroke:#000000; stroke-width:2; stroke-opacity:0.1; fill:none" points="
  685.496,1521.01 685.496,47.2441 
  "/>
<polyline clip-path="url(#clip1802)" style="stroke:#000000; stroke-width:2; stroke-opacity:0.1; fill:none" points="
  1219.87,1521.01 1219.87,47.2441 
  "/>
<polyline clip-path="url(#clip1802)" style="stroke:#000000; stroke-width:2; stroke-opacity:0.1; fill:none" points="
  1754.25,1521.01 1754.25,47.2441 
  "/>
<polyline clip-path="url(#clip1802)" style="stroke:#000000; stroke-width:2; stroke-opacity:0.1; fill:none" points="
  2288.63,1521.01 2288.63,47.2441 
  "/>
<polyline clip-path="url(#clip1802)" style="stroke:#000000; stroke-width:2; stroke-opacity:0.1; fill:none" points="
  86.9921,1479.36 2352.76,1479.36 
  "/>
<polyline clip-path="url(#clip1802)" style="stroke:#000000; stroke-width:2; stroke-opacity:0.1; fill:none" points="
  86.9921,1131.76 2352.76,1131.76 
  "/>
<polyline clip-path="url(#clip1802)" style="stroke:#000000; stroke-width:2; stroke-opacity:0.1; fill:none" points="
  86.9921,784.157 2352.76,784.157 
  "/>
<polyline clip-path="url(#clip1802)" style="stroke:#000000; stroke-width:2; stroke-opacity:0.1; fill:none" points="
  86.9921,436.556 2352.76,436.556 
  "/>
<polyline clip-path="url(#clip1802)" style="stroke:#000000; stroke-width:2; stroke-opacity:0.1; fill:none" points="
  86.9921,88.9544 2352.76,88.9544 
  "/>
<polyline clip-path="url(#clip1800)" style="stroke:#000000; stroke-width:4; stroke-opacity:1; fill:none" points="
  86.9921,1521.01 2352.76,1521.01 
  "/>
<polyline clip-path="url(#clip1800)" style="stroke:#000000; stroke-width:4; stroke-opacity:1; fill:none" points="
  86.9921,1521.01 86.9921,47.2441 
  "/>
<polyline clip-path="url(#clip1800)" style="stroke:#000000; stroke-width:4; stroke-opacity:1; fill:none" points="
  151.118,1521.01 151.118,1503.32 
  "/>
<polyline clip-path="url(#clip1800)" style="stroke:#000000; stroke-width:4; stroke-opacity:1; fill:none" points="
  685.496,1521.01 685.496,1503.32 
  "/>
<polyline clip-path="url(#clip1800)" style="stroke:#000000; stroke-width:4; stroke-opacity:1; fill:none" points="
  1219.87,1521.01 1219.87,1503.32 
  "/>
<polyline clip-path="url(#clip1800)" style="stroke:#000000; stroke-width:4; stroke-opacity:1; fill:none" points="
  1754.25,1521.01 1754.25,1503.32 
  "/>
<polyline clip-path="url(#clip1800)" style="stroke:#000000; stroke-width:4; stroke-opacity:1; fill:none" points="
  2288.63,1521.01 2288.63,1503.32 
  "/>
<polyline clip-path="url(#clip1800)" style="stroke:#000000; stroke-width:4; stroke-opacity:1; fill:none" points="
  86.9921,1479.36 114.181,1479.36 
  "/>
<polyline clip-path="url(#clip1800)" style="stroke:#000000; stroke-width:4; stroke-opacity:1; fill:none" points="
  86.9921,1131.76 114.181,1131.76 
  "/>
<polyline clip-path="url(#clip1800)" style="stroke:#000000; stroke-width:4; stroke-opacity:1; fill:none" points="
  86.9921,784.157 114.181,784.157 
  "/>
<polyline clip-path="url(#clip1800)" style="stroke:#000000; stroke-width:4; stroke-opacity:1; fill:none" points="
  86.9921,436.556 114.181,436.556 
  "/>
<polyline clip-path="url(#clip1800)" style="stroke:#000000; stroke-width:4; stroke-opacity:1; fill:none" points="
  86.9921,88.9544 114.181,88.9544 
  "/>
<path clip-path="url(#clip1800)" d="M 0 0 M132.634 1543 Q129.023 1543 127.194 1546.56 Q125.388 1550.11 125.388 1557.23 Q125.388 1564.34 127.194 1567.91 Q129.023 1571.45 132.634 1571.45 Q136.268 1571.45 138.074 1567.91 Q139.902 1564.34 139.902 1557.23 Q139.902 1550.11 138.074 1546.56 Q136.268 1543 132.634 1543 M132.634 1539.29 Q138.444 1539.29 141.5 1543.9 Q144.578 1548.48 144.578 1557.23 Q144.578 1565.96 141.5 1570.57 Q138.444 1575.15 132.634 1575.15 Q126.824 1575.15 123.745 1570.57 Q120.689 1565.96 120.689 1557.23 Q120.689 1548.48 123.745 1543.9 Q126.824 1539.29 132.634 1539.29 Z" fill="#000000" fill-rule="evenodd" fill-opacity="1" /><path clip-path="url(#clip1800)" d="M 0 0 M149.648 1568.6 L154.532 1568.6 L154.532 1574.48 L149.648 1574.48 L149.648 1568.6 Z" fill="#000000" fill-rule="evenodd" fill-opacity="1" /><path clip-path="url(#clip1800)" d="M 0 0 M169.601 1543 Q165.99 1543 164.161 1546.56 Q162.356 1550.11 162.356 1557.23 Q162.356 1564.34 164.161 1567.91 Q165.99 1571.45 169.601 1571.45 Q173.235 1571.45 175.041 1567.91 Q176.87 1564.34 176.87 1557.23 Q176.87 1550.11 175.041 1546.56 Q173.235 1543 169.601 1543 M169.601 1539.29 Q175.411 1539.29 178.467 1543.9 Q181.546 1548.48 181.546 1557.23 Q181.546 1565.96 178.467 1570.57 Q175.411 1575.15 169.601 1575.15 Q163.791 1575.15 160.712 1570.57 Q157.657 1565.96 157.657 1557.23 Q157.657 1548.48 160.712 1543.9 Q163.791 1539.29 169.601 1539.29 Z" fill="#000000" fill-rule="evenodd" fill-opacity="1" /><path clip-path="url(#clip1800)" d="M 0 0 M662.163 1570.54 L678.482 1570.54 L678.482 1574.48 L656.538 1574.48 L656.538 1570.54 Q659.2 1567.79 663.783 1563.16 Q668.389 1558.51 669.57 1557.17 Q671.815 1554.64 672.695 1552.91 Q673.598 1551.15 673.598 1549.46 Q673.598 1546.7 671.653 1544.97 Q669.732 1543.23 666.63 1543.23 Q664.431 1543.23 661.977 1543.99 Q659.547 1544.76 656.769 1546.31 L656.769 1541.59 Q659.593 1540.45 662.047 1539.87 Q664.501 1539.29 666.538 1539.29 Q671.908 1539.29 675.102 1541.98 Q678.297 1544.67 678.297 1549.16 Q678.297 1551.29 677.487 1553.21 Q676.7 1555.1 674.593 1557.7 Q674.014 1558.37 670.913 1561.59 Q667.811 1564.78 662.163 1570.54 Z" fill="#000000" fill-rule="evenodd" fill-opacity="1" /><path clip-path="url(#clip1800)" d="M 0 0 M683.551 1568.6 L688.436 1568.6 L688.436 1574.48 L683.551 1574.48 L683.551 1568.6 Z" fill="#000000" fill-rule="evenodd" fill-opacity="1" /><path clip-path="url(#clip1800)" d="M 0 0 M693.551 1539.92 L711.908 1539.92 L711.908 1543.86 L697.834 1543.86 L697.834 1552.33 Q698.852 1551.98 699.871 1551.82 Q700.889 1551.63 701.908 1551.63 Q707.695 1551.63 711.074 1554.8 Q714.454 1557.98 714.454 1563.39 Q714.454 1568.97 710.982 1572.07 Q707.51 1575.15 701.19 1575.15 Q699.014 1575.15 696.746 1574.78 Q694.5 1574.41 692.093 1573.67 L692.093 1568.97 Q694.176 1570.1 696.398 1570.66 Q698.621 1571.22 701.098 1571.22 Q705.102 1571.22 707.44 1569.11 Q709.778 1567 709.778 1563.39 Q709.778 1559.78 707.44 1557.67 Q705.102 1555.57 701.098 1555.57 Q699.223 1555.57 697.348 1555.98 Q695.496 1556.4 693.551 1557.28 L693.551 1539.92 Z" fill="#000000" fill-rule="evenodd" fill-opacity="1" /><path clip-path="url(#clip1800)" d="M 0 0 M1191.67 1539.92 L1210.02 1539.92 L1210.02 1543.86 L1195.95 1543.86 L1195.95 1552.33 Q1196.97 1551.98 1197.99 1551.82 Q1199.01 1551.63 1200.02 1551.63 Q1205.81 1551.63 1209.19 1554.8 Q1212.57 1557.98 1212.57 1563.39 Q1212.57 1568.97 1209.1 1572.07 Q1205.63 1575.15 1199.31 1575.15 Q1197.13 1575.15 1194.86 1574.78 Q1192.62 1574.41 1190.21 1573.67 L1190.21 1568.97 Q1192.29 1570.1 1194.52 1570.66 Q1196.74 1571.22 1199.21 1571.22 Q1203.22 1571.22 1205.56 1569.11 Q1207.89 1567 1207.89 1563.39 Q1207.89 1559.78 1205.56 1557.67 Q1203.22 1555.57 1199.21 1555.57 Q1197.34 1555.57 1195.46 1555.98 Q1193.61 1556.4 1191.67 1557.28 L1191.67 1539.92 Z" fill="#000000" fill-rule="evenodd" fill-opacity="1" /><path clip-path="url(#clip1800)" d="M 0 0 M1217.64 1568.6 L1222.52 1568.6 L1222.52 1574.48 L1217.64 1574.48 L1217.64 1568.6 Z" fill="#000000" fill-rule="evenodd" fill-opacity="1" /><path clip-path="url(#clip1800)" d="M 0 0 M1237.59 1543 Q1233.98 1543 1232.15 1546.56 Q1230.35 1550.11 1230.35 1557.23 Q1230.35 1564.34 1232.15 1567.91 Q1233.98 1571.45 1237.59 1571.45 Q1241.23 1571.45 1243.03 1567.91 Q1244.86 1564.34 1244.86 1557.23 Q1244.86 1550.11 1243.03 1546.56 Q1241.23 1543 1237.59 1543 M1237.59 1539.29 Q1243.4 1539.29 1246.46 1543.9 Q1249.54 1548.48 1249.54 1557.23 Q1249.54 1565.96 1246.46 1570.57 Q1243.4 1575.15 1237.59 1575.15 Q1231.78 1575.15 1228.7 1570.57 Q1225.65 1565.96 1225.65 1557.23 Q1225.65 1548.48 1228.7 1543.9 Q1231.78 1539.29 1237.59 1539.29 Z" fill="#000000" fill-rule="evenodd" fill-opacity="1" /><path clip-path="url(#clip1800)" d="M 0 0 M1725.16 1539.92 L1747.38 1539.92 L1747.38 1541.91 L1734.83 1574.48 L1729.95 1574.48 L1741.75 1543.86 L1725.16 1543.86 L1725.16 1539.92 Z" fill="#000000" fill-rule="evenodd" fill-opacity="1" /><path clip-path="url(#clip1800)" d="M 0 0 M1752.45 1568.6 L1757.33 1568.6 L1757.33 1574.48 L1752.45 1574.48 L1752.45 1568.6 Z" fill="#000000" fill-rule="evenodd" fill-opacity="1" /><path clip-path="url(#clip1800)" d="M 0 0 M1762.45 1539.92 L1780.8 1539.92 L1780.8 1543.86 L1766.73 1543.86 L1766.73 1552.33 Q1767.75 1551.98 1768.77 1551.82 Q1769.78 1551.63 1770.8 1551.63 Q1776.59 1551.63 1779.97 1554.8 Q1783.35 1557.98 1783.35 1563.39 Q1783.35 1568.97 1779.88 1572.07 Q1776.4 1575.15 1770.09 1575.15 Q1767.91 1575.15 1765.64 1574.78 Q1763.4 1574.41 1760.99 1573.67 L1760.99 1568.97 Q1763.07 1570.1 1765.29 1570.66 Q1767.52 1571.22 1769.99 1571.22 Q1774 1571.22 1776.34 1569.11 Q1778.67 1567 1778.67 1563.39 Q1778.67 1559.78 1776.34 1557.67 Q1774 1555.57 1769.99 1555.57 Q1768.12 1555.57 1766.24 1555.98 Q1764.39 1556.4 1762.45 1557.28 L1762.45 1539.92 Z" fill="#000000" fill-rule="evenodd" fill-opacity="1" /><path clip-path="url(#clip1800)" d="M 0 0 M2247.02 1570.54 L2254.66 1570.54 L2254.66 1544.18 L2246.35 1545.85 L2246.35 1541.59 L2254.61 1539.92 L2259.29 1539.92 L2259.29 1570.54 L2266.93 1570.54 L2266.93 1574.48 L2247.02 1574.48 L2247.02 1570.54 Z" fill="#000000" fill-rule="evenodd" fill-opacity="1" /><path clip-path="url(#clip1800)" d="M 0 0 M2282 1543 Q2278.39 1543 2276.56 1546.56 Q2274.75 1550.11 2274.75 1557.23 Q2274.75 1564.34 2276.56 1567.91 Q2278.39 1571.45 2282 1571.45 Q2285.63 1571.45 2287.44 1567.91 Q2289.27 1564.34 2289.27 1557.23 Q2289.27 1550.11 2287.44 1546.56 Q2285.63 1543 2282 1543 M2282 1539.29 Q2287.81 1539.29 2290.86 1543.9 Q2293.94 1548.48 2293.94 1557.23 Q2293.94 1565.96 2290.86 1570.57 Q2287.81 1575.15 2282 1575.15 Q2276.19 1575.15 2273.11 1570.57 Q2270.05 1565.96 2270.05 1557.23 Q2270.05 1548.48 2273.11 1543.9 Q2276.19 1539.29 2282 1539.29 Z" fill="#000000" fill-rule="evenodd" fill-opacity="1" /><path clip-path="url(#clip1800)" d="M 0 0 M2299.01 1568.6 L2303.9 1568.6 L2303.9 1574.48 L2299.01 1574.48 L2299.01 1568.6 Z" fill="#000000" fill-rule="evenodd" fill-opacity="1" /><path clip-path="url(#clip1800)" d="M 0 0 M2318.97 1543 Q2315.35 1543 2313.53 1546.56 Q2311.72 1550.11 2311.72 1557.23 Q2311.72 1564.34 2313.53 1567.91 Q2315.35 1571.45 2318.97 1571.45 Q2322.6 1571.45 2324.41 1567.91 Q2326.23 1564.34 2326.23 1557.23 Q2326.23 1550.11 2324.41 1546.56 Q2322.6 1543 2318.97 1543 M2318.97 1539.29 Q2324.78 1539.29 2327.83 1543.9 Q2330.91 1548.48 2330.91 1557.23 Q2330.91 1565.96 2327.83 1570.57 Q2324.78 1575.15 2318.97 1575.15 Q2313.16 1575.15 2310.08 1570.57 Q2307.02 1565.96 2307.02 1557.23 Q2307.02 1548.48 2310.08 1543.9 Q2313.16 1539.29 2318.97 1539.29 Z" fill="#000000" fill-rule="evenodd" fill-opacity="1" /><path clip-path="url(#clip1800)" d="M 0 0 M-12.9334 1465.16 Q-16.5445 1465.16 -18.3732 1468.72 Q-20.1787 1472.27 -20.1787 1479.4 Q-20.1787 1486.5 -18.3732 1490.07 Q-16.5445 1493.61 -12.9334 1493.61 Q-9.29915 1493.61 -7.49361 1490.07 Q-5.66491 1486.5 -5.66491 1479.4 Q-5.66491 1472.27 -7.49361 1468.72 Q-9.29915 1465.16 -12.9334 1465.16 M-12.9334 1461.46 Q-7.12324 1461.46 -4.0677 1466.06 Q-0.989013 1470.65 -0.989013 1479.4 Q-0.989013 1488.12 -4.0677 1492.73 Q-7.12324 1497.31 -12.9334 1497.31 Q-18.7435 1497.31 -21.8222 1492.73 Q-24.8778 1488.12 -24.8778 1479.4 Q-24.8778 1470.65 -21.8222 1466.06 Q-18.7435 1461.46 -12.9334 1461.46 Z" fill="#000000" fill-rule="evenodd" fill-opacity="1" /><path clip-path="url(#clip1800)" d="M 0 0 M4.0804 1490.76 L8.96464 1490.76 L8.96464 1496.64 L4.0804 1496.64 L4.0804 1490.76 Z" fill="#000000" fill-rule="evenodd" fill-opacity="1" /><path clip-path="url(#clip1800)" d="M 0 0 M24.034 1465.16 Q20.4229 1465.16 18.5942 1468.72 Q16.7887 1472.27 16.7887 1479.4 Q16.7887 1486.5 18.5942 1490.07 Q20.4229 1493.61 24.034 1493.61 Q27.6682 1493.61 29.4738 1490.07 Q31.3025 1486.5 31.3025 1479.4 Q31.3025 1472.27 29.4738 1468.72 Q27.6682 1465.16 24.034 1465.16 M24.034 1461.46 Q29.8442 1461.46 32.8997 1466.06 Q35.9784 1470.65 35.9784 1479.4 Q35.9784 1488.12 32.8997 1492.73 Q29.8442 1497.31 24.034 1497.31 Q18.2238 1497.31 15.1452 1492.73 Q12.0896 1488.12 12.0896 1479.4 Q12.0896 1470.65 15.1452 1466.06 Q18.2238 1461.46 24.034 1461.46 Z" fill="#000000" fill-rule="evenodd" fill-opacity="1" /><path clip-path="url(#clip1800)" d="M 0 0 M51.0477 1465.16 Q47.4367 1465.16 45.608 1468.72 Q43.8024 1472.27 43.8024 1479.4 Q43.8024 1486.5 45.608 1490.07 Q47.4367 1493.61 51.0477 1493.61 Q54.682 1493.61 56.4875 1490.07 Q58.3162 1486.5 58.3162 1479.4 Q58.3162 1472.27 56.4875 1468.72 Q54.682 1465.16 51.0477 1465.16 M51.0477 1461.46 Q56.8579 1461.46 59.9134 1466.06 Q62.9921 1470.65 62.9921 1479.4 Q62.9921 1488.12 59.9134 1492.73 Q56.8579 1497.31 51.0477 1497.31 Q45.2376 1497.31 42.1589 1492.73 Q39.1034 1488.12 39.1034 1479.4 Q39.1034 1470.65 42.1589 1466.06 Q45.2376 1461.46 51.0477 1461.46 Z" fill="#000000" fill-rule="evenodd" fill-opacity="1" /><path clip-path="url(#clip1800)" d="M 0 0 M-10.3408 1117.56 Q-13.9519 1117.56 -15.7806 1121.12 Q-17.5861 1124.66 -17.5861 1131.79 Q-17.5861 1138.9 -15.7806 1142.46 Q-13.9519 1146.01 -10.3408 1146.01 Q-6.70657 1146.01 -4.90103 1142.46 Q-3.07233 1138.9 -3.07233 1131.79 Q-3.07233 1124.66 -4.90103 1121.12 Q-6.70657 1117.56 -10.3408 1117.56 M-10.3408 1113.85 Q-4.53066 1113.85 -1.47512 1118.46 Q1.60357 1123.04 1.60357 1131.79 Q1.60357 1140.52 -1.47512 1145.13 Q-4.53066 1149.71 -10.3408 1149.71 Q-16.151 1149.71 -19.2297 1145.13 Q-22.2852 1140.52 -22.2852 1131.79 Q-22.2852 1123.04 -19.2297 1118.46 Q-16.151 1113.85 -10.3408 1113.85 Z" fill="#000000" fill-rule="evenodd" fill-opacity="1" /><path clip-path="url(#clip1800)" d="M 0 0 M6.67298 1143.16 L11.5572 1143.16 L11.5572 1149.04 L6.67298 1149.04 L6.67298 1143.16 Z" fill="#000000" fill-rule="evenodd" fill-opacity="1" /><path clip-path="url(#clip1800)" d="M 0 0 M20.6544 1145.1 L36.9737 1145.1 L36.9737 1149.04 L15.0294 1149.04 L15.0294 1145.1 Q17.6914 1142.35 22.2748 1137.72 Q26.8812 1133.07 28.0618 1131.72 Q30.3071 1129.2 31.1867 1127.47 Q32.0895 1125.71 32.0895 1124.02 Q32.0895 1121.26 30.1451 1119.53 Q28.2238 1117.79 25.122 1117.79 Q22.9229 1117.79 20.4692 1118.55 Q18.0387 1119.32 15.2609 1120.87 L15.2609 1116.15 Q18.085 1115.01 20.5386 1114.43 Q22.9923 1113.85 25.0294 1113.85 Q30.3997 1113.85 33.5941 1116.54 Q36.7886 1119.22 36.7886 1123.72 Q36.7886 1125.84 35.9784 1127.77 Q35.1913 1129.66 33.0849 1132.26 Q32.5062 1132.93 29.4043 1136.15 Q26.3025 1139.34 20.6544 1145.1 Z" fill="#000000" fill-rule="evenodd" fill-opacity="1" /><path clip-path="url(#clip1800)" d="M 0 0 M42.0895 1114.48 L60.4458 1114.48 L60.4458 1118.41 L46.3718 1118.41 L46.3718 1126.89 Q47.3904 1126.54 48.4089 1126.38 Q49.4274 1126.19 50.4459 1126.19 Q56.2329 1126.19 59.6125 1129.36 Q62.9921 1132.53 62.9921 1137.95 Q62.9921 1143.53 59.5199 1146.63 Q56.0477 1149.71 49.7283 1149.71 Q47.5524 1149.71 45.2839 1149.34 Q43.0385 1148.97 40.6311 1148.23 L40.6311 1143.53 Q42.7145 1144.66 44.9367 1145.22 Q47.1589 1145.78 49.6357 1145.78 Q53.6403 1145.78 55.9783 1143.67 Q58.3162 1141.56 58.3162 1137.95 Q58.3162 1134.34 55.9783 1132.23 Q53.6403 1130.13 49.6357 1130.13 Q47.7607 1130.13 45.8857 1130.54 Q44.0339 1130.96 42.0895 1131.84 L42.0895 1114.48 Z" fill="#000000" fill-rule="evenodd" fill-opacity="1" /><path clip-path="url(#clip1800)" d="M 0 0 M-11.938 769.956 Q-15.5491 769.956 -17.3778 773.521 Q-19.1834 777.063 -19.1834 784.192 Q-19.1834 791.299 -17.3778 794.863 Q-15.5491 798.405 -11.938 798.405 Q-8.30379 798.405 -6.49824 794.863 Q-4.66955 791.299 -4.66955 784.192 Q-4.66955 777.063 -6.49824 773.521 Q-8.30379 769.956 -11.938 769.956 M-11.938 766.252 Q-6.12787 766.252 -3.07233 770.859 Q0.00635237 775.442 0.00635237 784.192 Q0.00635237 792.919 -3.07233 797.525 Q-6.12787 802.109 -11.938 802.109 Q-17.7482 802.109 -20.8269 797.525 Q-23.8824 792.919 -23.8824 784.192 Q-23.8824 775.442 -20.8269 770.859 Q-17.7482 766.252 -11.938 766.252 Z" fill="#000000" fill-rule="evenodd" fill-opacity="1" /><path clip-path="url(#clip1800)" d="M 0 0 M5.07577 795.558 L9.96 795.558 L9.96 801.437 L5.07577 801.437 L5.07577 795.558 Z" fill="#000000" fill-rule="evenodd" fill-opacity="1" /><path clip-path="url(#clip1800)" d="M 0 0 M15.0757 766.877 L33.4321 766.877 L33.4321 770.813 L19.3581 770.813 L19.3581 779.285 Q20.3766 778.938 21.3951 778.776 Q22.4136 778.59 23.4322 778.59 Q29.2192 778.59 32.5988 781.762 Q35.9784 784.933 35.9784 790.35 Q35.9784 795.928 32.5062 799.03 Q29.034 802.109 22.7146 802.109 Q20.5386 802.109 18.2701 801.738 Q16.0248 801.368 13.6174 800.627 L13.6174 795.928 Q15.7007 797.063 17.9229 797.618 Q20.1451 798.174 22.622 798.174 Q26.6266 798.174 28.9645 796.067 Q31.3025 793.961 31.3025 790.35 Q31.3025 786.738 28.9645 784.632 Q26.6266 782.526 22.622 782.526 Q20.747 782.526 18.872 782.942 Q17.0202 783.359 15.0757 784.239 L15.0757 766.877 Z" fill="#000000" fill-rule="evenodd" fill-opacity="1" /><path clip-path="url(#clip1800)" d="M 0 0 M51.0477 769.956 Q47.4367 769.956 45.608 773.521 Q43.8024 777.063 43.8024 784.192 Q43.8024 791.299 45.608 794.863 Q47.4367 798.405 51.0477 798.405 Q54.682 798.405 56.4875 794.863 Q58.3162 791.299 58.3162 784.192 Q58.3162 777.063 56.4875 773.521 Q54.682 769.956 51.0477 769.956 M51.0477 766.252 Q56.8579 766.252 59.9134 770.859 Q62.9921 775.442 62.9921 784.192 Q62.9921 792.919 59.9134 797.525 Q56.8579 802.109 51.0477 802.109 Q45.2376 802.109 42.1589 797.525 Q39.1034 792.919 39.1034 784.192 Q39.1034 775.442 42.1589 770.859 Q45.2376 766.252 51.0477 766.252 Z" fill="#000000" fill-rule="evenodd" fill-opacity="1" /><path clip-path="url(#clip1800)" d="M 0 0 M-11.0353 422.355 Q-14.6463 422.355 -16.475 425.919 Q-18.2806 429.461 -18.2806 436.591 Q-18.2806 443.697 -16.475 447.262 Q-14.6463 450.804 -11.0353 450.804 Q-7.40102 450.804 -5.59547 447.262 Q-3.76678 443.697 -3.76678 436.591 Q-3.76678 429.461 -5.59547 425.919 Q-7.40102 422.355 -11.0353 422.355 M-11.0353 418.651 Q-5.2251 418.651 -2.16956 423.257 Q0.909125 427.841 0.909125 436.591 Q0.909125 445.317 -2.16956 449.924 Q-5.2251 454.507 -11.0353 454.507 Q-16.8454 454.507 -19.9241 449.924 Q-22.9796 445.317 -22.9796 436.591 Q-22.9796 427.841 -19.9241 423.257 Q-16.8454 418.651 -11.0353 418.651 Z" fill="#000000" fill-rule="evenodd" fill-opacity="1" /><path clip-path="url(#clip1800)" d="M 0 0 M5.97854 447.956 L10.8628 447.956 L10.8628 453.836 L5.97854 453.836 L5.97854 447.956 Z" fill="#000000" fill-rule="evenodd" fill-opacity="1" /><path clip-path="url(#clip1800)" d="M 0 0 M14.7516 419.276 L36.9737 419.276 L36.9737 421.267 L24.4275 453.836 L19.5433 453.836 L31.3488 423.211 L14.7516 423.211 L14.7516 419.276 Z" fill="#000000" fill-rule="evenodd" fill-opacity="1" /><path clip-path="url(#clip1800)" d="M 0 0 M42.0895 419.276 L60.4458 419.276 L60.4458 423.211 L46.3718 423.211 L46.3718 431.683 Q47.3904 431.336 48.4089 431.174 Q49.4274 430.989 50.4459 430.989 Q56.2329 430.989 59.6125 434.16 Q62.9921 437.331 62.9921 442.748 Q62.9921 448.327 59.5199 451.429 Q56.0477 454.507 49.7283 454.507 Q47.5524 454.507 45.2839 454.137 Q43.0385 453.766 40.6311 453.026 L40.6311 448.327 Q42.7145 449.461 44.9367 450.017 Q47.1589 450.572 49.6357 450.572 Q53.6403 450.572 55.9783 448.466 Q58.3162 446.359 58.3162 442.748 Q58.3162 439.137 55.9783 437.03 Q53.6403 434.924 49.6357 434.924 Q47.7607 434.924 45.8857 435.341 Q44.0339 435.757 42.0895 436.637 L42.0895 419.276 Z" fill="#000000" fill-rule="evenodd" fill-opacity="1" /><path clip-path="url(#clip1800)" d="M 0 0 M-20.8963 102.299 L-13.2575 102.299 L-13.2575 75.9336 L-21.5676 77.6003 L-21.5676 73.341 L-13.3038 71.6744 L-8.62786 71.6744 L-8.62786 102.299 L-0.989013 102.299 L-0.989013 106.234 L-20.8963 106.234 L-20.8963 102.299 Z" fill="#000000" fill-rule="evenodd" fill-opacity="1" /><path clip-path="url(#clip1800)" d="M 0 0 M4.0804 100.355 L8.96464 100.355 L8.96464 106.234 L4.0804 106.234 L4.0804 100.355 Z" fill="#000000" fill-rule="evenodd" fill-opacity="1" /><path clip-path="url(#clip1800)" d="M 0 0 M24.034 74.7531 Q20.4229 74.7531 18.5942 78.3179 Q16.7887 81.8595 16.7887 88.9891 Q16.7887 96.0956 18.5942 99.6604 Q20.4229 103.202 24.034 103.202 Q27.6682 103.202 29.4738 99.6604 Q31.3025 96.0956 31.3025 88.9891 Q31.3025 81.8595 29.4738 78.3179 Q27.6682 74.7531 24.034 74.7531 M24.034 71.0494 Q29.8442 71.0494 32.8997 75.6559 Q35.9784 80.2392 35.9784 88.9891 Q35.9784 97.7159 32.8997 102.322 Q29.8442 106.906 24.034 106.906 Q18.2238 106.906 15.1452 102.322 Q12.0896 97.7159 12.0896 88.9891 Q12.0896 80.2392 15.1452 75.6559 Q18.2238 71.0494 24.034 71.0494 Z" fill="#000000" fill-rule="evenodd" fill-opacity="1" /><path clip-path="url(#clip1800)" d="M 0 0 M51.0477 74.7531 Q47.4367 74.7531 45.608 78.3179 Q43.8024 81.8595 43.8024 88.9891 Q43.8024 96.0956 45.608 99.6604 Q47.4367 103.202 51.0477 103.202 Q54.682 103.202 56.4875 99.6604 Q58.3162 96.0956 58.3162 88.9891 Q58.3162 81.8595 56.4875 78.3179 Q54.682 74.7531 51.0477 74.7531 M51.0477 71.0494 Q56.8579 71.0494 59.9134 75.6559 Q62.9921 80.2392 62.9921 88.9891 Q62.9921 97.7159 59.9134 102.322 Q56.8579 106.906 51.0477 106.906 Q45.2376 106.906 42.1589 102.322 Q39.1034 97.7159 39.1034 88.9891 Q39.1034 80.2392 42.1589 75.6559 Q45.2376 71.0494 51.0477 71.0494 Z" fill="#000000" fill-rule="evenodd" fill-opacity="1" /><circle clip-path="url(#clip1802)" cx="151.118" cy="88.9544" r="14" fill="#009af9" fill-rule="evenodd" fill-opacity="1" stroke="#000000" stroke-opacity="1" stroke-width="3.2"/>
<circle clip-path="url(#clip1802)" cx="388.619" cy="1021.65" r="14" fill="#009af9" fill-rule="evenodd" fill-opacity="1" stroke="#000000" stroke-opacity="1" stroke-width="3.2"/>
<circle clip-path="url(#clip1802)" cx="626.12" cy="1328.69" r="14" fill="#009af9" fill-rule="evenodd" fill-opacity="1" stroke="#000000" stroke-opacity="1" stroke-width="3.2"/>
<circle clip-path="url(#clip1802)" cx="863.622" cy="1429.76" r="14" fill="#009af9" fill-rule="evenodd" fill-opacity="1" stroke="#000000" stroke-opacity="1" stroke-width="3.2"/>
<circle clip-path="url(#clip1802)" cx="1101.12" cy="1463.03" r="14" fill="#009af9" fill-rule="evenodd" fill-opacity="1" stroke="#000000" stroke-opacity="1" stroke-width="3.2"/>
<circle clip-path="url(#clip1802)" cx="1338.62" cy="1473.99" r="14" fill="#009af9" fill-rule="evenodd" fill-opacity="1" stroke="#000000" stroke-opacity="1" stroke-width="3.2"/>
<circle clip-path="url(#clip1802)" cx="1576.13" cy="1477.59" r="14" fill="#009af9" fill-rule="evenodd" fill-opacity="1" stroke="#000000" stroke-opacity="1" stroke-width="3.2"/>
<circle clip-path="url(#clip1802)" cx="1813.63" cy="1478.78" r="14" fill="#009af9" fill-rule="evenodd" fill-opacity="1" stroke="#000000" stroke-opacity="1" stroke-width="3.2"/>
<circle clip-path="url(#clip1802)" cx="2051.13" cy="1479.17" r="14" fill="#009af9" fill-rule="evenodd" fill-opacity="1" stroke="#000000" stroke-opacity="1" stroke-width="3.2"/>
<circle clip-path="url(#clip1802)" cx="2288.63" cy="1479.3" r="14" fill="#009af9" fill-rule="evenodd" fill-opacity="1" stroke="#000000" stroke-opacity="1" stroke-width="3.2"/>
<polyline clip-path="url(#clip1802)" style="stroke:#e26f46; stroke-width:4; stroke-opacity:1; fill:none" points="
  151.118,88.9544 172.493,220.811 193.868,340.306 215.243,448.564 236.618,546.614 257.993,635.395 279.368,715.766 300.743,788.508 322.119,854.335 343.494,913.897 
  364.869,967.782 386.244,1016.53 407.619,1060.62 428.994,1100.51 450.369,1136.59 471.744,1169.22 493.12,1198.74 514.495,1225.44 535.87,1249.6 557.245,1271.45 
  578.62,1291.22 599.995,1309.11 621.37,1325.3 642.746,1339.95 664.121,1353.21 685.496,1365.2 706.871,1376.06 728.246,1385.89 749.621,1394.78 770.996,1402.83 
  792.371,1410.12 813.747,1416.71 835.122,1422.68 856.497,1428.08 877.872,1432.96 899.247,1437.38 920.622,1441.38 941.997,1445 963.372,1448.27 984.748,1451.23 
  1006.12,1453.91 1027.5,1456.33 1048.87,1458.52 1070.25,1460.5 1091.62,1462.29 1113,1463.91 1134.37,1465.38 1155.75,1466.71 1177.12,1467.91 1198.5,1469 
  1219.87,1469.98 1241.25,1470.87 1262.62,1471.68 1284,1472.41 1305.37,1473.08 1326.75,1473.68 1348.12,1474.22 1369.5,1474.71 1390.88,1475.16 1412.25,1475.56 
  1433.63,1475.92 1455,1476.25 1476.38,1476.55 1497.75,1476.82 1519.13,1477.06 1540.5,1477.28 1561.88,1477.47 1583.25,1477.65 1604.63,1477.81 1626,1477.95 
  1647.38,1478.08 1668.75,1478.2 1690.13,1478.3 1711.5,1478.4 1732.88,1478.49 1754.25,1478.58 1775.63,1478.65 1797,1478.73 1818.38,1478.79 1839.75,1478.86 
  1861.13,1478.91 1882.5,1478.97 1903.88,1479.02 1925.25,1479.06 1946.63,1479.1 1968,1479.13 1989.38,1479.16 2010.75,1479.17 2032.13,1479.17 2053.5,1479.17 
  2074.88,1479.15 2096.25,1479.12 2117.63,1479.09 2139,1479.05 2160.38,1479.01 2181.75,1478.97 2203.13,1478.94 2224.51,1478.95 2245.88,1478.99 2267.26,1479.1 
  2288.63,1479.3 
  "/>
<path clip-path="url(#clip1800)" d="
M1944.76 312.204 L2280.76 312.204 L2280.76 130.764 L1944.76 130.764  Z
  " fill="#ffffff" fill-rule="evenodd" fill-opacity="1"/>
<polyline clip-path="url(#clip1800)" style="stroke:#000000; stroke-width:4; stroke-opacity:1; fill:none" points="
  1944.76,312.204 2280.76,312.204 2280.76,130.764 1944.76,130.764 1944.76,312.204 
  "/>
<circle clip-path="url(#clip1800)" cx="2052.76" cy="191.244" r="21" fill="#009af9" fill-rule="evenodd" fill-opacity="1" stroke="#000000" stroke-opacity="1" stroke-width="3.2"/>
<path clip-path="url(#clip1800)" d="M 0 0 M2141.44 177.807 L2141.44 204.682 L2147.09 204.682 Q2154.24 204.682 2157.55 201.441 Q2160.88 198.2 2160.88 191.209 Q2160.88 184.265 2157.55 181.047 Q2154.24 177.807 2147.09 177.807 L2141.44 177.807 M2136.76 173.964 L2146.37 173.964 Q2156.41 173.964 2161.11 178.154 Q2165.81 182.321 2165.81 191.209 Q2165.81 200.145 2161.09 204.334 Q2156.37 208.524 2146.37 208.524 L2136.76 208.524 L2136.76 173.964 Z" fill="#000000" fill-rule="evenodd" fill-opacity="1" /><path clip-path="url(#clip1800)" d="M 0 0 M2182.06 195.492 Q2176.9 195.492 2174.91 196.672 Q2172.92 197.853 2172.92 200.7 Q2172.92 202.969 2174.4 204.311 Q2175.9 205.631 2178.47 205.631 Q2182.02 205.631 2184.15 203.131 Q2186.3 200.607 2186.3 196.441 L2186.3 195.492 L2182.06 195.492 M2190.56 193.733 L2190.56 208.524 L2186.3 208.524 L2186.3 204.589 Q2184.84 206.95 2182.66 208.084 Q2180.49 209.195 2177.34 209.195 Q2173.36 209.195 2171 206.973 Q2168.66 204.728 2168.66 200.978 Q2168.66 196.603 2171.58 194.381 Q2174.52 192.158 2180.33 192.158 L2186.3 192.158 L2186.3 191.742 Q2186.3 188.802 2184.35 187.205 Q2182.43 185.584 2178.94 185.584 Q2176.71 185.584 2174.61 186.117 Q2172.5 186.649 2170.56 187.714 L2170.56 183.779 Q2172.9 182.876 2175.09 182.436 Q2177.29 181.973 2179.38 181.973 Q2185 181.973 2187.78 184.89 Q2190.56 187.807 2190.56 193.733 Z" fill="#000000" fill-rule="evenodd" fill-opacity="1" /><path clip-path="url(#clip1800)" d="M 0 0 M2199.24 175.237 L2199.24 182.598 L2208.01 182.598 L2208.01 185.908 L2199.24 185.908 L2199.24 199.982 Q2199.24 203.154 2200.09 204.057 Q2200.97 204.959 2203.64 204.959 L2208.01 204.959 L2208.01 208.524 L2203.64 208.524 Q2198.71 208.524 2196.83 206.695 Q2194.96 204.844 2194.96 199.982 L2194.96 185.908 L2191.83 185.908 L2191.83 182.598 L2194.96 182.598 L2194.96 175.237 L2199.24 175.237 Z" fill="#000000" fill-rule="evenodd" fill-opacity="1" /><path clip-path="url(#clip1800)" d="M 0 0 M2224.26 195.492 Q2219.1 195.492 2217.11 196.672 Q2215.12 197.853 2215.12 200.7 Q2215.12 202.969 2216.6 204.311 Q2218.1 205.631 2220.67 205.631 Q2224.21 205.631 2226.34 203.131 Q2228.5 200.607 2228.5 196.441 L2228.5 195.492 L2224.26 195.492 M2232.76 193.733 L2232.76 208.524 L2228.5 208.524 L2228.5 204.589 Q2227.04 206.95 2224.86 208.084 Q2222.69 209.195 2219.54 209.195 Q2215.56 209.195 2213.2 206.973 Q2210.86 204.728 2210.86 200.978 Q2210.86 196.603 2213.77 194.381 Q2216.71 192.158 2222.52 192.158 L2228.5 192.158 L2228.5 191.742 Q2228.5 188.802 2226.55 187.205 Q2224.63 185.584 2221.14 185.584 Q2218.91 185.584 2216.81 186.117 Q2214.7 186.649 2212.76 187.714 L2212.76 183.779 Q2215.09 182.876 2217.29 182.436 Q2219.49 181.973 2221.58 181.973 Q2227.2 181.973 2229.98 184.89 Q2232.76 187.807 2232.76 193.733 Z" fill="#000000" fill-rule="evenodd" fill-opacity="1" /><polyline clip-path="url(#clip1800)" style="stroke:#e26f46; stroke-width:4; stroke-opacity:1; fill:none" points="
  1968.76,251.724 2112.76,251.724 
  "/>
<path clip-path="url(#clip1800)" d="M 0 0 M2136.76 234.444 L2156.62 234.444 L2156.62 238.379 L2141.44 238.379 L2141.44 248.564 L2155.14 248.564 L2155.14 252.5 L2141.44 252.5 L2141.44 269.004 L2136.76 269.004 L2136.76 234.444 Z" fill="#000000" fill-rule="evenodd" fill-opacity="1" /><path clip-path="url(#clip1800)" d="M 0 0 M2157.64 243.078 L2161.9 243.078 L2161.9 269.004 L2157.64 269.004 L2157.64 243.078 M2157.64 232.986 L2161.9 232.986 L2161.9 238.379 L2157.64 238.379 L2157.64 232.986 Z" fill="#000000" fill-rule="evenodd" fill-opacity="1" /><path clip-path="url(#clip1800)" d="M 0 0 M2170.58 235.717 L2170.58 243.078 L2179.35 243.078 L2179.35 246.388 L2170.58 246.388 L2170.58 260.462 Q2170.58 263.634 2171.44 264.537 Q2172.32 265.439 2174.98 265.439 L2179.35 265.439 L2179.35 269.004 L2174.98 269.004 Q2170.05 269.004 2168.17 267.175 Q2166.3 265.324 2166.3 260.462 L2166.3 246.388 L2163.17 246.388 L2163.17 243.078 L2166.3 243.078 L2166.3 235.717 L2170.58 235.717 Z" fill="#000000" fill-rule="evenodd" fill-opacity="1" /></svg>
