<?xml version="1.0" encoding="utf-8"?>
<svg xmlns="http://www.w3.org/2000/svg" xmlns:xlink="http://www.w3.org/1999/xlink" width="600" height="400" viewBox="0 0 2400 1600">
<defs>
  <clipPath id="clip340">
    <rect x="0" y="0" width="2400" height="1600"/>
  </clipPath>
</defs>
<path clip-path="url(#clip340)" d="
M0 1600 L2400 1600 L2400 0 L0 0  Z
  " fill="#ffffff" fill-rule="evenodd" fill-opacity="1"/>
<defs>
  <clipPath id="clip341">
    <rect x="480" y="0" width="1681" height="1600"/>
  </clipPath>
</defs>
<path clip-path="url(#clip340)" d="
M179.654 1486.45 L2352.76 1486.45 L2352.76 47.2441 L179.654 47.2441  Z
  " fill="#ffffff" fill-rule="evenodd" fill-opacity="1"/>
<defs>
  <clipPath id="clip342">
    <rect x="179" y="47" width="2174" height="1440"/>
  </clipPath>
</defs>
<polyline clip-path="url(#clip342)" style="stroke:#000000; stroke-width:2; stroke-opacity:0.1; fill:none" points="
  241.157,1486.45 241.157,47.2441 
  "/>
<polyline clip-path="url(#clip342)" style="stroke:#000000; stroke-width:2; stroke-opacity:0.1; fill:none" points="
  753.681,1486.45 753.681,47.2441 
  "/>
<polyline clip-path="url(#clip342)" style="stroke:#000000; stroke-width:2; stroke-opacity:0.1; fill:none" points="
  1266.2,1486.45 1266.2,47.2441 
  "/>
<polyline clip-path="url(#clip342)" style="stroke:#000000; stroke-width:2; stroke-opacity:0.1; fill:none" points="
  1778.73,1486.45 1778.73,47.2441 
  "/>
<polyline clip-path="url(#clip342)" style="stroke:#000000; stroke-width:2; stroke-opacity:0.1; fill:none" points="
  2291.25,1486.45 2291.25,47.2441 
  "/>
<polyline clip-path="url(#clip342)" style="stroke:#000000; stroke-width:2; stroke-opacity:0.1; fill:none" points="
  179.654,1445.72 2352.76,1445.72 
  "/>
<polyline clip-path="url(#clip342)" style="stroke:#000000; stroke-width:2; stroke-opacity:0.1; fill:none" points="
  179.654,1106.28 2352.76,1106.28 
  "/>
<polyline clip-path="url(#clip342)" style="stroke:#000000; stroke-width:2; stroke-opacity:0.1; fill:none" points="
  179.654,766.846 2352.76,766.846 
  "/>
<polyline clip-path="url(#clip342)" style="stroke:#000000; stroke-width:2; stroke-opacity:0.1; fill:none" points="
  179.654,427.411 2352.76,427.411 
  "/>
<polyline clip-path="url(#clip342)" style="stroke:#000000; stroke-width:2; stroke-opacity:0.1; fill:none" points="
  179.654,87.9763 2352.76,87.9763 
  "/>
<polyline clip-path="url(#clip340)" style="stroke:#000000; stroke-width:4; stroke-opacity:1; fill:none" points="
  179.654,1486.45 2352.76,1486.45 
  "/>
<polyline clip-path="url(#clip340)" style="stroke:#000000; stroke-width:4; stroke-opacity:1; fill:none" points="
  179.654,1486.45 179.654,47.2441 
  "/>
<polyline clip-path="url(#clip340)" style="stroke:#000000; stroke-width:4; stroke-opacity:1; fill:none" points="
  241.157,1486.45 241.157,1469.18 
  "/>
<polyline clip-path="url(#clip340)" style="stroke:#000000; stroke-width:4; stroke-opacity:1; fill:none" points="
  753.681,1486.45 753.681,1469.18 
  "/>
<polyline clip-path="url(#clip340)" style="stroke:#000000; stroke-width:4; stroke-opacity:1; fill:none" points="
  1266.2,1486.45 1266.2,1469.18 
  "/>
<polyline clip-path="url(#clip340)" style="stroke:#000000; stroke-width:4; stroke-opacity:1; fill:none" points="
  1778.73,1486.45 1778.73,1469.18 
  "/>
<polyline clip-path="url(#clip340)" style="stroke:#000000; stroke-width:4; stroke-opacity:1; fill:none" points="
  2291.25,1486.45 2291.25,1469.18 
  "/>
<polyline clip-path="url(#clip340)" style="stroke:#000000; stroke-width:4; stroke-opacity:1; fill:none" points="
  179.654,1445.72 205.731,1445.72 
  "/>
<polyline clip-path="url(#clip340)" style="stroke:#000000; stroke-width:4; stroke-opacity:1; fill:none" points="
  179.654,1106.28 205.731,1106.28 
  "/>
<polyline clip-path="url(#clip340)" style="stroke:#000000; stroke-width:4; stroke-opacity:1; fill:none" points="
  179.654,766.846 205.731,766.846 
  "/>
<polyline clip-path="url(#clip340)" style="stroke:#000000; stroke-width:4; stroke-opacity:1; fill:none" points="
  179.654,427.411 205.731,427.411 
  "/>
<polyline clip-path="url(#clip340)" style="stroke:#000000; stroke-width:4; stroke-opacity:1; fill:none" points="
  179.654,87.9763 205.731,87.9763 
  "/>
<path clip-path="url(#clip340)" d="M 0 0 M194.942 1523.09 L224.617 1523.09 L224.617 1527.03 L194.942 1527.03 L194.942 1523.09 Z" fill="#000000" fill-rule="evenodd" fill-opacity="1" /><path clip-path="url(#clip340)" d="M 0 0 M230.497 1535.98 L238.136 1535.98 L238.136 1509.62 L229.826 1511.29 L229.826 1507.03 L238.089 1505.36 L242.765 1505.36 L242.765 1535.98 L250.404 1535.98 L250.404 1539.92 L230.497 1539.92 L230.497 1535.98 Z" fill="#000000" fill-rule="evenodd" fill-opacity="1" /><path clip-path="url(#clip340)" d="M 0 0 M255.474 1534.04 L260.358 1534.04 L260.358 1539.92 L255.474 1539.92 L255.474 1534.04 Z" fill="#000000" fill-rule="evenodd" fill-opacity="1" /><path clip-path="url(#clip340)" d="M 0 0 M275.427 1508.44 Q271.816 1508.44 269.987 1512 Q268.182 1515.55 268.182 1522.67 Q268.182 1529.78 269.987 1533.35 Q271.816 1536.89 275.427 1536.89 Q279.061 1536.89 280.867 1533.35 Q282.696 1529.78 282.696 1522.67 Q282.696 1515.55 280.867 1512 Q279.061 1508.44 275.427 1508.44 M275.427 1504.73 Q281.237 1504.73 284.293 1509.34 Q287.372 1513.92 287.372 1522.67 Q287.372 1531.4 284.293 1536.01 Q281.237 1540.59 275.427 1540.59 Q269.617 1540.59 266.538 1536.01 Q263.483 1531.4 263.483 1522.67 Q263.483 1513.92 266.538 1509.34 Q269.617 1504.73 275.427 1504.73 Z" fill="#000000" fill-rule="evenodd" fill-opacity="1" /><path clip-path="url(#clip340)" d="M 0 0 M707.35 1523.09 L737.026 1523.09 L737.026 1527.03 L707.35 1527.03 L707.35 1523.09 Z" fill="#000000" fill-rule="evenodd" fill-opacity="1" /><path clip-path="url(#clip340)" d="M 0 0 M752.095 1508.44 Q748.484 1508.44 746.655 1512 Q744.85 1515.55 744.85 1522.67 Q744.85 1529.78 746.655 1533.35 Q748.484 1536.89 752.095 1536.89 Q755.729 1536.89 757.535 1533.35 Q759.364 1529.78 759.364 1522.67 Q759.364 1515.55 757.535 1512 Q755.729 1508.44 752.095 1508.44 M752.095 1504.73 Q757.905 1504.73 760.961 1509.34 Q764.039 1513.92 764.039 1522.67 Q764.039 1531.4 760.961 1536.01 Q757.905 1540.59 752.095 1540.59 Q746.285 1540.59 743.206 1536.01 Q740.151 1531.4 740.151 1522.67 Q740.151 1513.92 743.206 1509.34 Q746.285 1504.73 752.095 1504.73 Z" fill="#000000" fill-rule="evenodd" fill-opacity="1" /><path clip-path="url(#clip340)" d="M 0 0 M769.109 1534.04 L773.993 1534.04 L773.993 1539.92 L769.109 1539.92 L769.109 1534.04 Z" fill="#000000" fill-rule="evenodd" fill-opacity="1" /><path clip-path="url(#clip340)" d="M 0 0 M779.109 1505.36 L797.465 1505.36 L797.465 1509.3 L783.391 1509.3 L783.391 1517.77 Q784.41 1517.42 785.428 1517.26 Q786.447 1517.07 787.465 1517.07 Q793.252 1517.07 796.632 1520.24 Q800.011 1523.42 800.011 1528.83 Q800.011 1534.41 796.539 1537.51 Q793.067 1540.59 786.748 1540.59 Q784.572 1540.59 782.303 1540.22 Q780.058 1539.85 777.65 1539.11 L777.65 1534.41 Q779.734 1535.54 781.956 1536.1 Q784.178 1536.66 786.655 1536.66 Q790.66 1536.66 792.998 1534.55 Q795.336 1532.44 795.336 1528.83 Q795.336 1525.22 792.998 1523.11 Q790.66 1521.01 786.655 1521.01 Q784.78 1521.01 782.905 1521.42 Q781.053 1521.84 779.109 1522.72 L779.109 1505.36 Z" fill="#000000" fill-rule="evenodd" fill-opacity="1" /><path clip-path="url(#clip340)" d="M 0 0 M1247.72 1508.44 Q1244.11 1508.44 1242.28 1512 Q1240.48 1515.55 1240.48 1522.67 Q1240.48 1529.78 1242.28 1533.35 Q1244.11 1536.89 1247.72 1536.89 Q1251.36 1536.89 1253.16 1533.35 Q1254.99 1529.78 1254.99 1522.67 Q1254.99 1515.55 1253.16 1512 Q1251.36 1508.44 1247.72 1508.44 M1247.72 1504.73 Q1253.53 1504.73 1256.59 1509.34 Q1259.67 1513.92 1259.67 1522.67 Q1259.67 1531.4 1256.59 1536.01 Q1253.53 1540.59 1247.72 1540.59 Q1241.91 1540.59 1238.83 1536.01 Q1235.78 1531.4 1235.78 1522.67 Q1235.78 1513.92 1238.83 1509.34 Q1241.91 1504.73 1247.72 1504.73 Z" fill="#000000" fill-rule="evenodd" fill-opacity="1" /><path clip-path="url(#clip340)" d="M 0 0 M1264.73 1534.04 L1269.62 1534.04 L1269.62 1539.92 L1264.73 1539.92 L1264.73 1534.04 Z" fill="#000000" fill-rule="evenodd" fill-opacity="1" /><path clip-path="url(#clip340)" d="M 0 0 M1284.69 1508.44 Q1281.08 1508.44 1279.25 1512 Q1277.44 1515.55 1277.44 1522.67 Q1277.44 1529.78 1279.25 1533.35 Q1281.08 1536.89 1284.69 1536.89 Q1288.32 1536.89 1290.13 1533.35 Q1291.96 1529.78 1291.96 1522.67 Q1291.96 1515.55 1290.13 1512 Q1288.32 1508.44 1284.69 1508.44 M1284.69 1504.73 Q1290.5 1504.73 1293.55 1509.34 Q1296.63 1513.92 1296.63 1522.67 Q1296.63 1531.4 1293.55 1536.01 Q1290.5 1540.59 1284.69 1540.59 Q1278.88 1540.59 1275.8 1536.01 Q1272.74 1531.4 1272.74 1522.67 Q1272.74 1513.92 1275.8 1509.34 Q1278.88 1504.73 1284.69 1504.73 Z" fill="#000000" fill-rule="evenodd" fill-opacity="1" /><path clip-path="url(#clip340)" d="M 0 0 M1760.74 1508.44 Q1757.13 1508.44 1755.3 1512 Q1753.5 1515.55 1753.5 1522.67 Q1753.5 1529.78 1755.3 1533.35 Q1757.13 1536.89 1760.74 1536.89 Q1764.38 1536.89 1766.18 1533.35 Q1768.01 1529.78 1768.01 1522.67 Q1768.01 1515.55 1766.18 1512 Q1764.38 1508.44 1760.74 1508.44 M1760.74 1504.73 Q1766.55 1504.73 1769.61 1509.34 Q1772.69 1513.92 1772.69 1522.67 Q1772.69 1531.4 1769.61 1536.01 Q1766.55 1540.59 1760.74 1540.59 Q1754.93 1540.59 1751.85 1536.01 Q1748.8 1531.4 1748.8 1522.67 Q1748.8 1513.92 1751.85 1509.34 Q1754.93 1504.73 1760.74 1504.73 Z" fill="#000000" fill-rule="evenodd" fill-opacity="1" /><path clip-path="url(#clip340)" d="M 0 0 M1777.76 1534.04 L1782.64 1534.04 L1782.64 1539.92 L1777.76 1539.92 L1777.76 1534.04 Z" fill="#000000" fill-rule="evenodd" fill-opacity="1" /><path clip-path="url(#clip340)" d="M 0 0 M1787.76 1505.36 L1806.11 1505.36 L1806.11 1509.3 L1792.04 1509.3 L1792.04 1517.77 Q1793.06 1517.42 1794.08 1517.26 Q1795.09 1517.07 1796.11 1517.07 Q1801.9 1517.07 1805.28 1520.24 Q1808.66 1523.42 1808.66 1528.83 Q1808.66 1534.41 1805.19 1537.51 Q1801.71 1540.59 1795.4 1540.59 Q1793.22 1540.59 1790.95 1540.22 Q1788.71 1539.85 1786.3 1539.11 L1786.3 1534.41 Q1788.38 1535.54 1790.6 1536.1 Q1792.83 1536.66 1795.3 1536.66 Q1799.31 1536.66 1801.65 1534.55 Q1803.98 1532.44 1803.98 1528.83 Q1803.98 1525.22 1801.65 1523.11 Q1799.31 1521.01 1795.3 1521.01 Q1793.43 1521.01 1791.55 1521.42 Q1789.7 1521.84 1787.76 1522.72 L1787.76 1505.36 Z" fill="#000000" fill-rule="evenodd" fill-opacity="1" /><path clip-path="url(#clip340)" d="M 0 0 M2263.15 1535.98 L2270.79 1535.98 L2270.79 1509.62 L2262.48 1511.29 L2262.48 1507.03 L2270.74 1505.36 L2275.42 1505.36 L2275.42 1535.98 L2283.06 1535.98 L2283.06 1539.92 L2263.15 1539.92 L2263.15 1535.98 Z" fill="#000000" fill-rule="evenodd" fill-opacity="1" /><path clip-path="url(#clip340)" d="M 0 0 M2288.13 1534.04 L2293.01 1534.04 L2293.01 1539.92 L2288.13 1539.92 L2288.13 1534.04 Z" fill="#000000" fill-rule="evenodd" fill-opacity="1" /><path clip-path="url(#clip340)" d="M 0 0 M2308.08 1508.44 Q2304.47 1508.44 2302.64 1512 Q2300.84 1515.55 2300.84 1522.67 Q2300.84 1529.78 2302.64 1533.35 Q2304.47 1536.89 2308.08 1536.89 Q2311.72 1536.89 2313.52 1533.35 Q2315.35 1529.78 2315.35 1522.67 Q2315.35 1515.55 2313.52 1512 Q2311.72 1508.44 2308.08 1508.44 M2308.08 1504.73 Q2313.89 1504.73 2316.95 1509.34 Q2320.03 1513.92 2320.03 1522.67 Q2320.03 1531.4 2316.95 1536.01 Q2313.89 1540.59 2308.08 1540.59 Q2302.27 1540.59 2299.19 1536.01 Q2296.14 1531.4 2296.14 1522.67 Q2296.14 1513.92 2299.19 1509.34 Q2302.27 1504.73 2308.08 1504.73 Z" fill="#000000" fill-rule="evenodd" fill-opacity="1" /><path clip-path="url(#clip340)" d="M 0 0 M63.2236 1446.17 L92.8994 1446.17 L92.8994 1450.1 L63.2236 1450.1 L63.2236 1446.17 Z" fill="#000000" fill-rule="evenodd" fill-opacity="1" /><path clip-path="url(#clip340)" d="M 0 0 M98.779 1459.06 L106.418 1459.06 L106.418 1432.69 L98.1077 1434.36 L98.1077 1430.1 L106.372 1428.44 L111.047 1428.44 L111.047 1459.06 L118.686 1459.06 L118.686 1463 L98.779 1463 L98.779 1459.06 Z" fill="#000000" fill-rule="evenodd" fill-opacity="1" /><path clip-path="url(#clip340)" d="M 0 0 M123.756 1457.12 L128.64 1457.12 L128.64 1463 L123.756 1463 L123.756 1457.12 Z" fill="#000000" fill-rule="evenodd" fill-opacity="1" /><path clip-path="url(#clip340)" d="M 0 0 M143.709 1431.51 Q140.098 1431.51 138.27 1435.08 Q136.464 1438.62 136.464 1445.75 Q136.464 1452.86 138.27 1456.42 Q140.098 1459.96 143.709 1459.96 Q147.344 1459.96 149.149 1456.42 Q150.978 1452.86 150.978 1445.75 Q150.978 1438.62 149.149 1435.08 Q147.344 1431.51 143.709 1431.51 M143.709 1427.81 Q149.519 1427.81 152.575 1432.42 Q155.654 1437 155.654 1445.75 Q155.654 1454.48 152.575 1459.08 Q149.519 1463.67 143.709 1463.67 Q137.899 1463.67 134.82 1459.08 Q131.765 1454.48 131.765 1445.75 Q131.765 1437 134.82 1432.42 Q137.899 1427.81 143.709 1427.81 Z" fill="#000000" fill-rule="evenodd" fill-opacity="1" /><path clip-path="url(#clip340)" d="M 0 0 M62.9921 1106.73 L92.6679 1106.73 L92.6679 1110.67 L62.9921 1110.67 L62.9921 1106.73 Z" fill="#000000" fill-rule="evenodd" fill-opacity="1" /><path clip-path="url(#clip340)" d="M 0 0 M107.737 1092.08 Q104.126 1092.08 102.297 1095.64 Q100.492 1099.19 100.492 1106.32 Q100.492 1113.42 102.297 1116.99 Q104.126 1120.53 107.737 1120.53 Q111.371 1120.53 113.177 1116.99 Q115.006 1113.42 115.006 1106.32 Q115.006 1099.19 113.177 1095.64 Q111.371 1092.08 107.737 1092.08 M107.737 1088.38 Q113.547 1088.38 116.603 1092.98 Q119.682 1097.57 119.682 1106.32 Q119.682 1115.04 116.603 1119.65 Q113.547 1124.23 107.737 1124.23 Q101.927 1124.23 98.8484 1119.65 Q95.7929 1115.04 95.7929 1106.32 Q95.7929 1097.57 98.8484 1092.98 Q101.927 1088.38 107.737 1088.38 Z" fill="#000000" fill-rule="evenodd" fill-opacity="1" /><path clip-path="url(#clip340)" d="M 0 0 M124.751 1117.68 L129.635 1117.68 L129.635 1123.56 L124.751 1123.56 L124.751 1117.68 Z" fill="#000000" fill-rule="evenodd" fill-opacity="1" /><path clip-path="url(#clip340)" d="M 0 0 M134.751 1089 L153.107 1089 L153.107 1092.94 L139.033 1092.94 L139.033 1101.41 Q140.052 1101.06 141.07 1100.9 Q142.089 1100.71 143.107 1100.71 Q148.894 1100.71 152.274 1103.89 Q155.654 1107.06 155.654 1112.47 Q155.654 1118.05 152.181 1121.15 Q148.709 1124.23 142.39 1124.23 Q140.214 1124.23 137.945 1123.86 Q135.7 1123.49 133.293 1122.75 L133.293 1118.05 Q135.376 1119.19 137.598 1119.74 Q139.82 1120.3 142.297 1120.3 Q146.302 1120.3 148.64 1118.19 Q150.978 1116.08 150.978 1112.47 Q150.978 1108.86 148.64 1106.76 Q146.302 1104.65 142.297 1104.65 Q140.422 1104.65 138.547 1105.07 Q136.695 1105.48 134.751 1106.36 L134.751 1089 Z" fill="#000000" fill-rule="evenodd" fill-opacity="1" /><path clip-path="url(#clip340)" d="M 0 0 M106.742 752.645 Q103.131 752.645 101.302 756.209 Q99.4966 759.751 99.4966 766.881 Q99.4966 773.987 101.302 777.552 Q103.131 781.094 106.742 781.094 Q110.376 781.094 112.182 777.552 Q114.01 773.987 114.01 766.881 Q114.01 759.751 112.182 756.209 Q110.376 752.645 106.742 752.645 M106.742 748.941 Q112.552 748.941 115.608 753.547 Q118.686 758.131 118.686 766.881 Q118.686 775.608 115.608 780.214 Q112.552 784.797 106.742 784.797 Q100.932 784.797 97.8531 780.214 Q94.7975 775.608 94.7975 766.881 Q94.7975 758.131 97.8531 753.547 Q100.932 748.941 106.742 748.941 Z" fill="#000000" fill-rule="evenodd" fill-opacity="1" /><path clip-path="url(#clip340)" d="M 0 0 M123.756 778.246 L128.64 778.246 L128.64 784.126 L123.756 784.126 L123.756 778.246 Z" fill="#000000" fill-rule="evenodd" fill-opacity="1" /><path clip-path="url(#clip340)" d="M 0 0 M143.709 752.645 Q140.098 752.645 138.27 756.209 Q136.464 759.751 136.464 766.881 Q136.464 773.987 138.27 777.552 Q140.098 781.094 143.709 781.094 Q147.344 781.094 149.149 777.552 Q150.978 773.987 150.978 766.881 Q150.978 759.751 149.149 756.209 Q147.344 752.645 143.709 752.645 M143.709 748.941 Q149.519 748.941 152.575 753.547 Q155.654 758.131 155.654 766.881 Q155.654 775.608 152.575 780.214 Q149.519 784.797 143.709 784.797 Q137.899 784.797 134.82 780.214 Q131.765 775.608 131.765 766.881 Q131.765 758.131 134.82 753.547 Q137.899 748.941 143.709 748.941 Z" fill="#000000" fill-rule="evenodd" fill-opacity="1" /><path clip-path="url(#clip340)" d="M 0 0 M107.737 413.21 Q104.126 413.21 102.297 416.775 Q100.492 420.316 100.492 427.446 Q100.492 434.552 102.297 438.117 Q104.126 441.659 107.737 441.659 Q111.371 441.659 113.177 438.117 Q115.006 434.552 115.006 427.446 Q115.006 420.316 113.177 416.775 Q111.371 413.21 107.737 413.21 M107.737 409.506 Q113.547 409.506 116.603 414.113 Q119.682 418.696 119.682 427.446 Q119.682 436.173 116.603 440.779 Q113.547 445.362 107.737 445.362 Q101.927 445.362 98.8484 440.779 Q95.7929 436.173 95.7929 427.446 Q95.7929 418.696 98.8484 414.113 Q101.927 409.506 107.737 409.506 Z" fill="#000000" fill-rule="evenodd" fill-opacity="1" /><path clip-path="url(#clip340)" d="M 0 0 M124.751 438.812 L129.635 438.812 L129.635 444.691 L124.751 444.691 L124.751 438.812 Z" fill="#000000" fill-rule="evenodd" fill-opacity="1" /><path clip-path="url(#clip340)" d="M 0 0 M134.751 410.131 L153.107 410.131 L153.107 414.066 L139.033 414.066 L139.033 422.538 Q140.052 422.191 141.07 422.029 Q142.089 421.844 143.107 421.844 Q148.894 421.844 152.274 425.015 Q155.654 428.187 155.654 433.603 Q155.654 439.182 152.181 442.284 Q148.709 445.362 142.39 445.362 Q140.214 445.362 137.945 444.992 Q135.7 444.622 133.293 443.881 L133.293 439.182 Q135.376 440.316 137.598 440.872 Q139.82 441.427 142.297 441.427 Q146.302 441.427 148.64 439.321 Q150.978 437.214 150.978 433.603 Q150.978 429.992 148.64 427.886 Q146.302 425.779 142.297 425.779 Q140.422 425.779 138.547 426.196 Q136.695 426.613 134.751 427.492 L134.751 410.131 Z" fill="#000000" fill-rule="evenodd" fill-opacity="1" /><path clip-path="url(#clip340)" d="M 0 0 M98.779 101.321 L106.418 101.321 L106.418 74.9555 L98.1077 76.6222 L98.1077 72.3629 L106.372 70.6963 L111.047 70.6963 L111.047 101.321 L118.686 101.321 L118.686 105.256 L98.779 105.256 L98.779 101.321 Z" fill="#000000" fill-rule="evenodd" fill-opacity="1" /><path clip-path="url(#clip340)" d="M 0 0 M123.756 99.3767 L128.64 99.3767 L128.64 105.256 L123.756 105.256 L123.756 99.3767 Z" fill="#000000" fill-rule="evenodd" fill-opacity="1" /><path clip-path="url(#clip340)" d="M 0 0 M143.709 73.775 Q140.098 73.775 138.27 77.3398 Q136.464 80.8814 136.464 88.011 Q136.464 95.1174 138.27 98.6822 Q140.098 102.224 143.709 102.224 Q147.344 102.224 149.149 98.6822 Q150.978 95.1174 150.978 88.011 Q150.978 80.8814 149.149 77.3398 Q147.344 73.775 143.709 73.775 M143.709 70.0713 Q149.519 70.0713 152.575 74.6777 Q155.654 79.261 155.654 88.011 Q155.654 96.7378 152.575 101.344 Q149.519 105.928 143.709 105.928 Q137.899 105.928 134.82 101.344 Q131.765 96.7378 131.765 88.011 Q131.765 79.261 134.82 74.6777 Q137.899 70.0713 143.709 70.0713 Z" fill="#000000" fill-rule="evenodd" fill-opacity="1" /><polyline clip-path="url(#clip342)" style="stroke:#4063d8; stroke-width:20; stroke-opacity:1; fill:none" points="
  241.157,1445.72 261.658,1432.14 282.158,1418.56 302.659,1404.98 323.16,1391.41 343.661,1377.83 364.162,1364.25 384.663,1350.67 405.164,1337.1 425.665,1323.52 
  446.166,1309.94 466.667,1296.36 487.168,1282.79 507.669,1269.21 528.17,1255.63 548.671,1242.05 569.172,1228.48 589.673,1214.9 610.174,1201.32 630.675,1187.75 
  651.176,1174.17 671.677,1160.59 692.178,1147.01 712.679,1133.44 733.18,1119.86 753.681,1106.28 774.182,1092.7 794.683,1079.13 815.184,1065.55 835.685,1051.97 
  856.185,1038.39 876.686,1024.82 897.187,1011.24 917.688,997.662 938.189,984.084 958.69,970.507 979.191,956.93 999.692,943.352 1020.19,929.775 1040.69,916.197 
  1061.2,902.62 1081.7,889.043 1102.2,875.465 1122.7,861.888 1143.2,848.31 1163.7,834.733 1184.2,821.156 1204.7,807.578 1225.2,794.001 1245.7,780.423 
  1266.2,766.846 1286.71,753.269 1307.21,739.691 1327.71,726.114 1348.21,712.536 1368.71,698.959 1389.21,685.382 1409.71,671.804 1430.21,658.227 1450.71,644.649 
  1471.21,631.072 1491.72,617.495 1512.22,603.917 1532.72,590.34 1553.22,576.762 1573.72,563.185 1594.22,549.608 1614.72,536.03 1635.22,522.453 1655.72,508.875 
  1676.22,495.298 1696.73,481.721 1717.23,468.143 1737.73,454.566 1758.23,440.989 1778.73,427.411 1799.23,413.834 1819.73,400.256 1840.23,386.679 1860.73,373.102 
  1881.23,359.524 1901.73,345.947 1922.24,332.369 1942.74,318.792 1963.24,305.215 1983.74,291.637 2004.24,278.06 2024.74,264.482 2045.24,250.905 2065.74,237.328 
  2086.24,223.75 2106.74,210.173 2127.25,196.595 2147.75,183.018 2168.25,169.441 2188.75,155.863 2209.25,142.286 2229.75,128.708 2250.25,115.131 2270.75,101.554 
  2291.25,87.9763 
  "/>
<polyline clip-path="url(#clip342)" style="stroke:#389826; stroke-width:20; stroke-opacity:1; fill:none" points="
  241.157,87.9763 261.658,141.743 282.158,194.423 302.659,246.017 323.16,296.525 343.661,345.947 364.162,394.282 384.663,441.532 405.164,487.695 425.665,532.772 
  446.166,576.762 466.667,619.667 487.168,661.485 507.669,702.218 528.17,741.864 548.671,780.423 569.172,817.897 589.673,854.284 610.174,889.586 630.675,923.801 
  651.176,956.93 671.677,988.972 692.178,1019.93 712.679,1049.8 733.18,1078.58 753.681,1106.28 774.182,1132.89 794.683,1158.42 815.184,1182.86 835.685,1206.21 
  856.185,1228.48 876.686,1249.66 897.187,1269.75 917.688,1288.76 938.189,1306.68 958.69,1323.52 979.191,1339.27 999.692,1353.93 1020.19,1367.51 1040.69,1380 
  1061.2,1391.41 1081.7,1401.72 1102.2,1410.96 1122.7,1419.1 1143.2,1426.16 1163.7,1432.14 1184.2,1437.03 1204.7,1440.83 1225.2,1443.54 1245.7,1445.17 
  1266.2,1445.72 1286.71,1445.17 1307.21,1443.54 1327.71,1440.83 1348.21,1437.03 1368.71,1432.14 1389.21,1426.16 1409.71,1419.1 1430.21,1410.96 1450.71,1401.72 
  1471.21,1391.41 1491.72,1380 1512.22,1367.51 1532.72,1353.93 1553.22,1339.27 1573.72,1323.52 1594.22,1306.68 1614.72,1288.76 1635.22,1269.75 1655.72,1249.66 
  1676.22,1228.48 1696.73,1206.21 1717.23,1182.86 1737.73,1158.42 1758.23,1132.89 1778.73,1106.28 1799.23,1078.58 1819.73,1049.8 1840.23,1019.93 1860.73,988.972 
  1881.23,956.93 1901.73,923.801 1922.24,889.586 1942.74,854.284 1963.24,817.897 1983.74,780.423 2004.24,741.864 2024.74,702.218 2045.24,661.485 2065.74,619.667 
  2086.24,576.762 2106.74,532.772 2127.25,487.695 2147.75,441.532 2168.25,394.282 2188.75,345.947 2209.25,296.525 2229.75,246.017 2250.25,194.423 2270.75,141.743 
  2291.25,87.9763 
  "/>
<polyline clip-path="url(#clip342)" style="stroke:#cb3c33; stroke-width:20; stroke-opacity:1; fill:none" points="
  241.157,1445.72 261.658,1326.76 282.158,1214.18 302.659,1107.87 323.16,1007.68 343.661,913.482 364.162,825.153 384.663,742.559 405.164,665.569 425.665,594.055 
  446.166,527.884 466.667,466.927 487.168,411.053 507.669,360.132 528.17,314.034 548.671,272.629 569.172,235.785 589.673,203.373 610.174,175.263 630.675,151.323 
  651.176,131.424 671.677,115.435 692.178,103.226 712.679,94.6672 733.18,89.6273 753.681,87.9763 774.182,89.5838 794.683,94.3196 815.184,102.053 835.685,112.655 
  856.185,125.993 876.686,141.938 897.187,160.36 917.688,181.128 938.189,204.112 958.69,229.181 979.191,256.206 999.692,285.055 1020.19,315.599 1040.69,347.706 
  1061.2,381.248 1081.7,416.093 1102.2,452.111 1122.7,489.172 1143.2,527.145 1163.7,565.901 1184.2,605.308 1204.7,645.236 1225.2,685.555 1245.7,726.136 
  1266.2,766.846 1286.71,807.556 1307.21,848.137 1327.71,888.456 1348.21,928.384 1368.71,967.791 1389.21,1006.55 1409.71,1044.52 1430.21,1081.58 1450.71,1117.6 
  1471.21,1152.44 1491.72,1185.99 1512.22,1218.09 1532.72,1248.64 1553.22,1277.49 1573.72,1304.51 1594.22,1329.58 1614.72,1352.56 1635.22,1373.33 1655.72,1391.75 
  1676.22,1407.7 1696.73,1421.04 1717.23,1431.64 1737.73,1439.37 1758.23,1444.11 1778.73,1445.72 1799.23,1444.06 1819.73,1439.02 1840.23,1430.47 1860.73,1418.26 
  1881.23,1402.27 1901.73,1382.37 1922.24,1358.43 1942.74,1330.32 1963.24,1297.91 1983.74,1261.06 2004.24,1219.66 2024.74,1173.56 2045.24,1122.64 2065.74,1066.77 
  2086.24,1005.81 2106.74,939.637 2127.25,868.122 2147.75,791.133 2168.25,708.539 2188.75,620.21 2209.25,526.016 2229.75,425.825 2250.25,319.509 2270.75,206.936 
  2291.25,87.9763 
  "/>
<polyline clip-path="url(#clip342)" style="stroke:#9558b2; stroke-width:20; stroke-opacity:1; fill:none" points="
  241.157,87.9763 261.658,294.526 282.158,480.382 302.659,646.556 323.16,794.039 343.661,923.801 364.162,1036.79 384.663,1133.93 405.164,1216.14 425.665,1284.3 
  446.166,1339.27 466.667,1381.9 487.168,1413.01 507.669,1433.41 528.17,1443.88 548.671,1445.17 569.172,1438.04 589.673,1423.19 610.174,1401.33 630.675,1373.14 
  651.176,1339.27 671.677,1300.36 692.178,1257.02 712.679,1209.85 733.18,1159.42 753.681,1106.28 774.182,1050.97 794.683,993.998 815.184,935.852 835.685,877.002 
  856.185,817.897 876.686,758.964 897.187,700.609 917.688,643.219 938.189,587.159 958.69,532.772 979.191,480.382 999.692,430.291 1020.19,382.781 1040.69,338.112 
  1061.2,296.525 1081.7,258.238 1102.2,223.45 1122.7,192.337 1143.2,165.056 1163.7,141.743 1184.2,122.512 1204.7,107.457 1225.2,96.6519 1245.7,90.1478 
  1266.2,87.9763 1286.71,90.1478 1307.21,96.6519 1327.71,107.457 1348.21,122.512 1368.71,141.743 1389.21,165.056 1409.71,192.337 1430.21,223.45 1450.71,258.238 
  1471.21,296.525 1491.72,338.112 1512.22,382.781 1532.72,430.291 1553.22,480.382 1573.72,532.772 1594.22,587.159 1614.72,643.219 1635.22,700.609 1655.72,758.964 
  1676.22,817.897 1696.73,877.002 1717.23,935.852 1737.73,993.998 1758.23,1050.97 1778.73,1106.28 1799.23,1159.42 1819.73,1209.85 1840.23,1257.02 1860.73,1300.36 
  1881.23,1339.27 1901.73,1373.14 1922.24,1401.33 1942.74,1423.19 1963.24,1438.04 1983.74,1445.17 2004.24,1443.88 2024.74,1433.41 2045.24,1413.01 2065.74,1381.9 
  2086.24,1339.27 2106.74,1284.3 2127.25,1216.14 2147.75,1133.93 2168.25,1036.79 2188.75,923.801 2209.25,794.039 2229.75,646.556 2250.25,480.382 2270.75,294.526 
  2291.25,87.9763 
  "/>
</svg>
